{"glyphs":{"0":{"ha":833,"x_min":79,"x_max":754,"o":"m 417 -11 q 165 116 251 -11 q 79 489 79 243 q 165 863 79 736 q 417 990 251 990 q 668 863 582 990 q 754 490 754 736 q 668 117 754 244 q 417 -11 582 -11 m 417 65 q 605 169 544 65 q 665 490 665 272 q 605 811 665 708 q 417 914 544 914 q 228 811 289 914 q 168 490 168 708 q 229 169 168 274 q 417 65 290 65 z "},"1":{"ha":833,"x_min":183,"x_max":717,"o":"m 676 75 q 706 65 694 75 q 717 38 717 54 q 706 10 717 19 q 676 0 696 0 l 222 0 q 194 10 204 0 q 183 38 183 19 q 194 65 183 54 q 222 75 204 75 l 407 75 l 407 868 l 247 764 q 229 758 240 758 q 202 772 214 758 q 190 804 190 786 q 208 836 190 824 l 417 975 q 451 986 435 986 q 481 974 469 986 q 493 942 493 963 l 493 75 l 676 75 z "},"2":{"ha":833,"x_min":97,"x_max":751,"o":"m 711 75 q 740 65 729 75 q 751 38 751 54 q 711 0 751 0 l 158 0 q 128 11 139 0 q 117 38 117 22 q 131 71 117 57 l 474 453 q 581 603 547 538 q 614 733 614 668 q 563 868 614 821 q 421 915 513 915 q 287 890 350 915 q 157 808 224 864 q 125 794 142 794 q 106 806 114 794 q 97 832 97 817 q 115 872 97 856 q 253 958 171 926 q 421 990 335 990 q 625 923 550 990 q 700 738 700 856 q 661 574 700 653 q 533 396 622 494 l 240 75 l 711 75 z "},"3":{"ha":833,"x_min":82,"x_max":721,"o":"m 538 503 q 674 418 628 479 q 721 264 721 357 q 638 64 721 138 q 411 -10 554 -10 q 238 22 321 -10 q 100 108 154 54 q 82 149 82 125 q 90 175 82 164 q 110 186 99 186 q 142 172 126 186 q 272 90 207 115 q 411 65 336 65 q 576 117 518 65 q 635 264 635 168 q 393 460 635 460 l 322 460 q 293 471 304 460 q 282 497 282 482 q 292 524 282 513 q 322 535 303 535 l 372 535 q 551 588 488 535 q 614 740 614 642 q 563 869 614 824 q 421 915 513 915 q 287 890 350 915 q 157 808 224 864 q 125 794 142 794 q 106 806 114 794 q 97 832 97 817 q 115 872 97 856 q 251 958 169 926 q 421 990 333 990 q 624 924 549 990 q 700 744 700 858 q 657 594 700 658 q 538 503 614 529 z "},"4":{"ha":833,"x_min":68,"x_max":785,"o":"m 746 296 q 774 285 764 296 q 785 258 785 275 q 774 231 785 240 q 746 222 764 222 l 626 222 l 626 38 q 615 6 626 18 q 583 -7 603 -7 q 552 6 564 -7 q 540 38 540 18 l 540 222 l 110 222 q 79 232 90 222 q 68 258 68 242 q 81 292 68 275 l 547 967 q 563 981 553 976 q 585 986 574 986 q 614 975 601 986 q 626 942 626 964 l 626 296 l 746 296 m 540 296 l 540 828 l 172 296 l 540 296 z "},"5":{"ha":833,"x_min":115,"x_max":758,"o":"m 449 608 q 612 569 542 608 q 720 461 682 531 q 758 300 758 392 q 718 140 758 210 q 606 30 678 69 q 439 -10 533 -10 q 269 22 351 -10 q 133 108 188 54 q 115 149 115 125 q 124 175 115 164 q 143 186 132 186 q 175 172 157 186 q 305 91 242 117 q 438 65 368 65 q 608 128 546 65 q 671 300 671 192 q 609 469 671 404 q 443 533 547 533 q 225 424 304 533 q 183 401 208 401 q 157 411 168 401 q 146 439 146 421 l 146 939 q 157 967 146 956 q 188 979 168 979 l 689 979 q 718 969 707 979 q 729 942 729 960 q 718 916 729 926 q 689 906 707 906 l 231 906 l 231 517 q 326 585 269 561 q 449 608 382 608 z "},"6":{"ha":832,"x_min":83,"x_max":760,"o":"m 449 610 q 609 571 539 610 q 718 462 679 532 q 757 300 757 392 q 717 140 757 211 q 606 29 676 69 q 446 -11 535 -11 q 178 112 272 -11 q 83 463 83 235 q 181 851 83 713 q 451 990 278 990 q 610 958 532 990 q 742 872 688 926 q 760 832 760 856 q 751 806 760 817 q 732 794 743 794 q 700 808 718 794 q 451 915 574 915 q 244 796 319 915 q 169 463 169 676 l 169 425 q 276 560 201 511 q 449 610 351 610 m 443 64 q 608 128 546 64 q 669 300 669 193 q 607 469 669 406 q 442 533 544 533 q 271 468 338 533 q 204 300 204 403 q 270 129 204 194 q 443 64 336 64 z "},"7":{"ha":833,"x_min":93,"x_max":740,"o":"m 700 979 q 730 969 719 979 q 740 943 740 960 q 731 910 740 932 l 260 15 q 222 -8 249 -8 q 194 3 206 -8 q 182 32 182 15 q 188 54 182 43 l 636 904 l 132 904 q 103 915 114 904 q 93 942 93 925 q 103 969 93 960 q 132 979 114 979 l 700 979 z "},"8":{"ha":833,"x_min":72,"x_max":761,"o":"m 576 501 q 712 412 663 476 q 761 257 761 347 q 672 61 761 132 q 417 -10 582 -10 q 162 61 251 -10 q 72 257 72 132 q 121 413 72 349 q 257 501 169 476 q 138 590 182 529 q 94 732 94 651 q 179 921 94 851 q 417 990 264 990 q 654 921 569 990 q 739 732 739 851 q 695 590 739 651 q 576 501 651 529 m 182 728 q 242 585 182 636 q 417 533 301 533 q 592 585 532 533 q 651 728 651 636 q 592 866 651 817 q 417 915 532 915 q 242 866 301 915 q 182 728 182 817 m 417 65 q 674 261 674 65 q 417 458 674 458 q 160 261 160 458 q 417 65 160 65 z "},"9":{"ha":833,"x_min":74,"x_max":750,"o":"m 388 990 q 656 867 561 990 q 750 517 750 744 q 653 128 750 267 q 382 -11 556 -11 q 224 21 301 -11 q 92 107 146 53 q 74 147 74 124 q 82 174 74 163 q 101 185 90 185 q 133 171 115 185 q 382 64 260 64 q 589 183 514 64 q 664 517 664 303 l 664 554 q 557 419 632 468 q 385 369 482 369 q 224 408 294 369 q 115 517 154 447 q 76 679 76 588 q 117 839 76 768 q 228 950 157 910 q 388 990 299 990 m 392 446 q 563 511 496 446 q 629 679 629 576 q 563 850 629 785 q 390 915 497 915 q 226 851 288 915 q 164 679 164 786 q 226 510 164 574 q 392 446 289 446 z "},"\u0000":{"ha":0,"x_min":0,"x_max":0,"o":""},"\r":{"ha":350,"x_min":0,"x_max":0,"o":""}," ":{"ha":350,"x_min":0,"x_max":0,"o":""},"A":{"ha":1000,"x_min":46,"x_max":956,"o":"m 951 46 q 956 29 956 38 q 943 3 956 14 q 914 -7 931 -7 q 892 0 903 -7 q 876 19 882 7 l 771 261 l 232 261 l 125 19 q 86 -7 113 -7 q 58 3 69 -7 q 46 31 46 14 q 49 46 46 40 l 454 957 q 500 988 467 988 q 528 979 515 988 q 547 957 542 971 l 951 46 m 738 336 l 501 874 l 264 336 l 738 336 z "},"Á":{"ha":1000,"x_min":46,"x_max":956,"o":"m 951 46 q 956 29 956 38 q 943 3 956 14 q 914 -7 931 -7 q 892 0 903 -7 q 876 19 882 7 l 771 261 l 232 261 l 125 19 q 86 -7 113 -7 q 58 3 69 -7 q 46 31 46 14 q 49 46 46 40 l 454 957 q 500 988 467 988 q 528 979 515 988 q 547 957 542 971 l 951 46 m 738 336 l 501 874 l 264 336 l 738 336 m 517 1061 q 500 1056 510 1056 q 483 1063 490 1056 q 475 1079 475 1069 q 483 1097 475 1089 l 626 1257 q 668 1278 646 1278 q 699 1266 686 1278 q 711 1236 711 1254 q 685 1193 711 1214 l 517 1061 z "},"Ă":{"ha":1000,"x_min":46,"x_max":956,"o":"m 951 46 q 956 29 956 38 q 943 3 956 14 q 914 -7 931 -7 q 892 0 903 -7 q 876 19 882 7 l 771 261 l 232 261 l 125 19 q 86 -7 113 -7 q 58 3 69 -7 q 46 31 46 14 q 49 46 46 40 l 454 957 q 500 988 467 988 q 528 979 515 988 q 547 957 542 971 l 951 46 m 738 336 l 501 874 l 264 336 l 738 336 m 500 1081 q 376 1111 431 1081 q 292 1203 322 1142 q 286 1224 286 1214 q 296 1247 286 1238 q 319 1256 306 1256 q 357 1232 343 1256 q 417 1169 383 1188 q 500 1150 451 1150 q 583 1169 549 1150 q 643 1232 617 1188 q 681 1256 657 1256 q 704 1247 694 1256 q 714 1224 714 1238 q 708 1203 714 1213 q 626 1111 681 1142 q 500 1081 571 1081 z "},"Ắ":{"ha":1000,"x_min":46,"x_max":956,"o":"m 951 46 q 956 29 956 38 q 943 3 956 14 q 914 -7 931 -7 q 892 0 903 -7 q 876 19 882 7 l 771 261 l 232 261 l 125 19 q 86 -7 113 -7 q 58 3 69 -7 q 46 31 46 14 q 49 46 46 40 l 454 957 q 500 988 467 988 q 528 979 515 988 q 547 957 542 971 l 951 46 m 738 336 l 501 874 l 264 336 l 738 336 m 517 1201 q 500 1196 510 1196 q 483 1203 490 1196 q 476 1219 476 1210 q 485 1239 476 1229 l 618 1386 q 661 1408 639 1408 q 688 1397 676 1408 q 699 1369 699 1386 q 672 1324 699 1344 l 517 1201 m 500 1056 q 376 1086 431 1056 q 292 1178 322 1117 q 286 1200 286 1189 q 295 1222 286 1214 q 318 1231 304 1231 q 357 1207 342 1231 q 418 1144 383 1164 q 500 1124 453 1124 q 582 1144 547 1124 q 643 1207 617 1164 q 682 1231 658 1231 q 704 1222 694 1231 q 714 1199 714 1213 q 708 1178 714 1188 q 626 1086 681 1117 q 500 1056 571 1056 z "},"Ặ":{"ha":1000,"x_min":46,"x_max":956,"o":"m 951 46 q 956 29 956 38 q 943 3 956 14 q 914 -7 931 -7 q 892 0 903 -7 q 876 19 882 7 l 771 261 l 232 261 l 125 19 q 86 -7 113 -7 q 58 3 69 -7 q 46 31 46 14 q 49 46 46 40 l 454 957 q 500 988 467 988 q 528 979 515 988 q 547 957 542 971 l 951 46 m 738 336 l 501 874 l 264 336 l 738 336 m 500 -254 q 456 -237 474 -254 q 439 -193 439 -221 q 456 -150 439 -167 q 500 -133 474 -133 q 544 -150 526 -133 q 561 -193 561 -167 q 544 -237 561 -221 q 500 -254 526 -254 m 500 1081 q 376 1111 431 1081 q 292 1203 322 1142 q 286 1224 286 1214 q 296 1247 286 1238 q 319 1256 306 1256 q 357 1232 343 1256 q 417 1169 383 1188 q 500 1150 451 1150 q 583 1169 549 1150 q 643 1232 617 1188 q 681 1256 657 1256 q 704 1247 694 1256 q 714 1224 714 1238 q 708 1203 714 1213 q 626 1111 681 1142 q 500 1081 571 1081 z "},"Ằ":{"ha":1000,"x_min":46,"x_max":956,"o":"m 951 46 q 956 29 956 38 q 943 3 956 14 q 914 -7 931 -7 q 892 0 903 -7 q 876 19 882 7 l 771 261 l 232 261 l 125 19 q 86 -7 113 -7 q 58 3 69 -7 q 46 31 46 14 q 49 46 46 40 l 454 957 q 500 988 467 988 q 528 979 515 988 q 547 957 542 971 l 951 46 m 738 336 l 501 874 l 264 336 l 738 336 m 328 1324 q 300 1369 300 1346 q 311 1397 300 1386 q 339 1408 322 1408 q 382 1386 361 1408 l 515 1239 q 524 1219 524 1229 q 517 1203 524 1210 q 500 1196 510 1196 q 483 1201 490 1196 l 328 1324 m 500 1056 q 376 1086 431 1056 q 292 1178 322 1117 q 286 1200 286 1189 q 295 1222 286 1214 q 318 1231 304 1231 q 357 1207 342 1231 q 418 1144 383 1164 q 500 1124 453 1124 q 582 1144 547 1124 q 643 1207 617 1164 q 682 1231 658 1231 q 704 1222 694 1231 q 714 1199 714 1213 q 708 1178 714 1188 q 626 1086 681 1117 q 500 1056 571 1056 z "},"Ẳ":{"ha":1000,"x_min":46,"x_max":956,"o":"m 951 46 q 956 29 956 38 q 943 3 956 14 q 914 -7 931 -7 q 892 0 903 -7 q 876 19 882 7 l 771 261 l 232 261 l 125 19 q 86 -7 113 -7 q 58 3 69 -7 q 46 31 46 14 q 49 46 46 40 l 454 957 q 500 988 467 988 q 528 979 515 988 q 547 957 542 971 l 951 46 m 738 336 l 501 874 l 264 336 l 738 336 m 532 1219 q 522 1202 531 1208 q 504 1196 514 1196 q 481 1205 490 1196 q 472 1231 472 1214 q 486 1263 472 1251 q 528 1289 500 1275 q 555 1305 546 1299 q 564 1319 564 1311 q 547 1338 564 1332 q 503 1344 531 1344 q 431 1335 469 1344 q 418 1333 426 1333 q 397 1341 406 1333 q 389 1360 389 1349 q 413 1390 389 1379 q 504 1407 454 1407 q 603 1383 567 1407 q 640 1322 640 1360 q 624 1281 640 1294 q 576 1254 607 1268 q 544 1238 554 1244 q 532 1219 533 1231 m 500 1056 q 376 1086 431 1056 q 292 1178 322 1117 q 286 1200 286 1189 q 295 1222 286 1214 q 318 1231 304 1231 q 357 1207 342 1231 q 418 1144 383 1164 q 500 1124 453 1124 q 582 1144 547 1124 q 643 1207 617 1164 q 682 1231 658 1231 q 704 1222 694 1231 q 714 1199 714 1213 q 708 1178 714 1188 q 626 1086 681 1117 q 500 1056 571 1056 z "},"Ẵ":{"ha":1000,"x_min":46,"x_max":956,"o":"m 951 46 q 956 29 956 38 q 943 3 956 14 q 914 -7 931 -7 q 892 0 903 -7 q 876 19 882 7 l 771 261 l 232 261 l 125 19 q 86 -7 113 -7 q 58 3 69 -7 q 46 31 46 14 q 49 46 46 40 l 454 957 q 500 988 467 988 q 528 979 515 988 q 547 957 542 971 l 951 46 m 738 336 l 501 874 l 264 336 l 738 336 m 596 1274 q 547 1283 572 1274 q 485 1308 522 1292 q 462 1319 481 1311 q 428 1332 443 1328 q 404 1336 414 1336 q 365 1326 379 1336 q 339 1297 351 1315 q 326 1283 333 1289 q 313 1276 319 1276 q 294 1285 301 1276 q 286 1306 286 1293 q 301 1351 286 1328 q 342 1391 315 1375 q 404 1407 369 1407 q 453 1398 428 1407 q 515 1372 478 1389 q 538 1361 519 1369 q 572 1349 557 1353 q 596 1344 586 1344 q 635 1355 621 1344 q 661 1383 649 1365 q 674 1398 667 1392 q 688 1404 681 1404 q 706 1396 699 1404 q 714 1376 714 1388 q 699 1330 714 1354 q 658 1290 685 1306 q 596 1274 631 1274 m 500 1056 q 376 1086 431 1056 q 292 1178 322 1117 q 286 1199 286 1189 q 296 1222 286 1213 q 319 1231 306 1231 q 357 1207 343 1231 q 418 1144 383 1164 q 500 1124 453 1124 q 582 1144 547 1124 q 643 1207 617 1164 q 681 1231 657 1231 q 704 1222 694 1231 q 714 1199 714 1213 q 708 1178 714 1188 q 626 1086 681 1117 q 500 1056 571 1056 z "},"Â":{"ha":1000,"x_min":46,"x_max":956,"o":"m 951 46 q 956 29 956 38 q 943 3 956 14 q 914 -7 931 -7 q 892 0 903 -7 q 876 19 882 7 l 771 261 l 232 261 l 125 19 q 86 -7 113 -7 q 58 3 69 -7 q 46 31 46 14 q 49 46 46 40 l 454 957 q 500 988 467 988 q 528 979 515 988 q 547 957 542 971 l 951 46 m 738 336 l 501 874 l 264 336 l 738 336 m 378 1068 q 350 1054 365 1054 q 326 1065 336 1054 q 315 1090 315 1075 q 328 1119 315 1106 l 456 1257 q 500 1278 475 1278 q 544 1257 524 1278 l 672 1119 q 685 1090 685 1107 q 674 1066 685 1076 q 650 1056 664 1056 q 622 1068 633 1056 l 500 1210 l 378 1068 z "},"Ấ":{"ha":1000,"x_min":46,"x_max":956,"o":"m 951 46 q 956 29 956 38 q 943 3 956 14 q 914 -7 931 -7 q 892 0 903 -7 q 876 19 882 7 l 771 261 l 232 261 l 125 19 q 86 -7 113 -7 q 58 3 69 -7 q 46 31 46 14 q 49 46 46 40 l 454 957 q 500 988 467 988 q 528 979 515 988 q 547 957 542 971 l 951 46 m 738 336 l 501 874 l 264 336 l 738 336 m 667 1203 q 651 1197 660 1197 q 632 1205 640 1197 q 624 1222 624 1213 q 631 1239 624 1229 l 743 1385 q 785 1408 761 1408 q 814 1397 801 1408 q 826 1368 826 1385 q 803 1325 826 1344 l 667 1203 m 376 1068 q 350 1056 364 1056 q 324 1067 335 1056 q 314 1092 314 1078 q 328 1121 314 1107 l 456 1256 q 500 1276 475 1276 q 544 1256 524 1276 l 672 1121 q 686 1092 686 1107 q 675 1067 686 1078 q 650 1056 664 1056 q 624 1068 636 1056 l 500 1208 l 376 1068 z "},"Ậ":{"ha":1000,"x_min":46,"x_max":956,"o":"m 951 46 q 956 29 956 38 q 943 3 956 14 q 914 -7 931 -7 q 892 0 903 -7 q 876 19 882 7 l 771 261 l 232 261 l 125 19 q 86 -7 113 -7 q 58 3 69 -7 q 46 31 46 14 q 49 46 46 40 l 454 957 q 500 988 467 988 q 528 979 515 988 q 547 957 542 971 l 951 46 m 738 336 l 501 874 l 264 336 l 738 336 m 500 -254 q 456 -237 474 -254 q 439 -193 439 -221 q 456 -150 439 -167 q 500 -133 474 -133 q 544 -150 526 -133 q 561 -193 561 -167 q 544 -237 561 -221 q 500 -254 526 -254 m 378 1068 q 350 1054 365 1054 q 326 1065 336 1054 q 315 1090 315 1075 q 328 1119 315 1106 l 456 1257 q 500 1278 475 1278 q 544 1257 524 1278 l 672 1119 q 685 1090 685 1107 q 674 1066 685 1076 q 650 1056 664 1056 q 622 1068 633 1056 l 500 1210 l 378 1068 z "},"Ầ":{"ha":1000,"x_min":46,"x_max":956,"o":"m 951 46 q 956 29 956 38 q 943 3 956 14 q 914 -7 931 -7 q 892 0 903 -7 q 876 19 882 7 l 771 261 l 232 261 l 125 19 q 86 -7 113 -7 q 58 3 69 -7 q 46 31 46 14 q 49 46 46 40 l 454 957 q 500 988 467 988 q 528 979 515 988 q 547 957 542 971 l 951 46 m 738 336 l 501 874 l 264 336 l 738 336 m 538 1325 q 514 1368 514 1344 q 526 1397 514 1385 q 556 1408 539 1408 q 599 1385 581 1408 l 711 1238 q 718 1221 718 1228 q 710 1204 718 1211 q 692 1197 703 1197 q 674 1204 683 1197 l 538 1325 m 376 1068 q 350 1056 364 1056 q 324 1067 335 1056 q 314 1092 314 1078 q 328 1121 314 1107 l 456 1256 q 500 1276 475 1276 q 544 1256 524 1276 l 672 1121 q 686 1092 686 1107 q 675 1067 686 1078 q 650 1056 664 1056 q 624 1068 636 1056 l 500 1208 l 376 1068 z "},"Ẩ":{"ha":1000,"x_min":46,"x_max":956,"o":"m 951 46 q 956 29 956 38 q 943 3 956 14 q 914 -7 931 -7 q 892 0 903 -7 q 876 19 882 7 l 771 261 l 232 261 l 125 19 q 86 -7 113 -7 q 58 3 69 -7 q 46 31 46 14 q 49 46 46 40 l 454 957 q 500 988 467 988 q 528 979 515 988 q 547 957 542 971 l 951 46 m 738 336 l 501 874 l 264 336 l 738 336 m 676 1219 q 667 1202 675 1208 q 649 1196 658 1196 q 626 1205 635 1196 q 617 1231 617 1214 q 631 1263 617 1251 q 672 1289 644 1275 q 699 1305 690 1299 q 708 1319 708 1311 q 692 1338 708 1332 q 647 1344 675 1344 q 575 1335 614 1344 q 563 1333 571 1333 q 542 1341 550 1333 q 533 1360 533 1349 q 557 1390 533 1379 q 649 1407 599 1407 q 748 1383 711 1407 q 785 1322 785 1360 q 768 1281 785 1294 q 721 1254 751 1268 q 688 1238 699 1244 q 676 1219 678 1231 m 376 1068 q 350 1056 364 1056 q 324 1067 335 1056 q 314 1092 314 1078 q 328 1121 314 1107 l 456 1256 q 500 1276 475 1276 q 544 1256 524 1276 l 672 1121 q 686 1092 686 1107 q 675 1067 686 1078 q 650 1056 664 1056 q 624 1068 636 1056 l 500 1208 l 376 1068 z "},"Ẫ":{"ha":1000,"x_min":46,"x_max":956,"o":"m 951 46 q 956 29 956 38 q 943 3 956 14 q 914 -7 931 -7 q 892 0 903 -7 q 876 19 882 7 l 771 261 l 232 261 l 125 19 q 86 -7 113 -7 q 58 3 69 -7 q 46 31 46 14 q 49 46 46 40 l 454 957 q 500 988 467 988 q 528 979 515 988 q 547 957 542 971 l 951 46 m 738 336 l 501 874 l 264 336 l 738 336 m 596 1274 q 547 1283 572 1274 q 485 1308 522 1292 q 462 1319 481 1311 q 428 1332 443 1328 q 404 1336 414 1336 q 365 1326 379 1336 q 339 1297 351 1315 q 326 1283 333 1289 q 313 1276 319 1276 q 294 1285 301 1276 q 286 1306 286 1293 q 301 1351 286 1328 q 342 1391 315 1375 q 404 1407 369 1407 q 453 1398 428 1407 q 515 1372 478 1389 q 538 1361 519 1369 q 572 1349 557 1353 q 596 1344 586 1344 q 635 1355 621 1344 q 661 1383 649 1365 q 674 1398 667 1392 q 688 1404 681 1404 q 706 1396 699 1404 q 714 1376 714 1388 q 699 1330 714 1354 q 658 1290 685 1306 q 596 1274 631 1274 m 376 1068 q 350 1056 364 1056 q 324 1067 335 1056 q 314 1092 314 1078 q 328 1121 314 1107 l 456 1256 q 500 1276 475 1276 q 544 1256 524 1276 l 672 1121 q 686 1092 686 1107 q 675 1067 686 1078 q 650 1056 664 1056 q 624 1068 636 1056 l 500 1208 l 376 1068 z "},"Ȁ":{"ha":1000,"x_min":46,"x_max":956,"o":"m 951 46 q 956 29 956 38 q 943 3 956 14 q 914 -7 931 -7 q 892 0 903 -7 q 876 19 882 7 l 771 261 l 232 261 l 125 19 q 86 -7 113 -7 q 58 3 69 -7 q 46 31 46 14 q 49 46 46 40 l 454 957 q 500 988 467 988 q 528 979 515 988 q 547 957 542 971 l 951 46 m 738 336 l 501 874 l 264 336 l 738 336 m 294 1207 q 281 1243 281 1225 q 290 1269 281 1258 q 315 1279 300 1279 q 338 1271 326 1279 q 357 1247 349 1263 l 438 1088 q 440 1075 440 1083 q 435 1060 440 1065 q 421 1054 429 1054 q 401 1065 410 1054 l 294 1207 m 454 1207 q 440 1243 440 1225 q 450 1269 440 1258 q 475 1279 460 1279 q 497 1271 486 1279 q 517 1247 508 1263 l 597 1088 q 600 1075 600 1083 q 594 1060 600 1065 q 581 1054 589 1054 q 561 1065 569 1054 l 454 1207 z "},"Ä":{"ha":1000,"x_min":46,"x_max":956,"o":"m 951 46 q 956 29 956 38 q 943 3 956 14 q 914 -7 931 -7 q 892 0 903 -7 q 876 19 882 7 l 771 261 l 232 261 l 125 19 q 86 -7 113 -7 q 58 3 69 -7 q 46 31 46 14 q 49 46 46 40 l 454 957 q 500 988 467 988 q 528 979 515 988 q 547 957 542 971 l 951 46 m 738 336 l 501 874 l 264 336 l 738 336 m 385 1111 q 343 1127 360 1111 q 326 1168 326 1143 q 343 1209 326 1193 q 385 1225 360 1225 q 427 1209 410 1225 q 444 1168 444 1193 q 427 1127 444 1143 q 385 1111 410 1111 m 615 1111 q 573 1127 590 1111 q 556 1168 556 1143 q 573 1209 556 1193 q 615 1225 590 1225 q 657 1209 640 1225 q 674 1168 674 1193 q 657 1127 674 1143 q 615 1111 640 1111 z "},"Ạ":{"ha":1000,"x_min":46,"x_max":956,"o":"m 951 46 q 956 29 956 38 q 943 3 956 14 q 914 -7 931 -7 q 892 0 903 -7 q 876 19 882 7 l 771 261 l 232 261 l 125 19 q 86 -7 113 -7 q 58 3 69 -7 q 46 31 46 14 q 49 46 46 40 l 454 957 q 500 988 467 988 q 528 979 515 988 q 547 957 542 971 l 951 46 m 738 336 l 501 874 l 264 336 l 738 336 m 500 -254 q 456 -237 474 -254 q 439 -193 439 -221 q 456 -150 439 -167 q 500 -133 474 -133 q 544 -150 526 -133 q 561 -193 561 -167 q 544 -237 561 -221 q 500 -254 526 -254 z "},"À":{"ha":1000,"x_min":46,"x_max":956,"o":"m 951 46 q 956 29 956 38 q 943 3 956 14 q 914 -7 931 -7 q 892 0 903 -7 q 876 19 882 7 l 771 261 l 232 261 l 125 19 q 86 -7 113 -7 q 58 3 69 -7 q 46 31 46 14 q 49 46 46 40 l 454 957 q 500 988 467 988 q 528 979 515 988 q 547 957 542 971 l 951 46 m 738 336 l 501 874 l 264 336 l 738 336 m 315 1193 q 289 1238 289 1214 q 301 1266 289 1254 q 332 1278 314 1278 q 374 1257 354 1278 l 517 1097 q 525 1079 525 1089 q 517 1063 525 1069 q 500 1056 510 1056 q 483 1061 490 1056 l 315 1193 z "},"Ả":{"ha":1000,"x_min":46,"x_max":956,"o":"m 951 46 q 956 29 956 38 q 943 3 956 14 q 914 -7 931 -7 q 892 0 903 -7 q 876 19 882 7 l 771 261 l 232 261 l 125 19 q 86 -7 113 -7 q 58 3 69 -7 q 46 31 46 14 q 49 46 46 40 l 454 957 q 500 988 467 988 q 528 979 515 988 q 547 957 542 971 l 951 46 m 738 336 l 501 874 l 264 336 l 738 336 m 535 1079 q 524 1062 533 1068 q 504 1056 515 1056 q 480 1065 490 1056 q 469 1089 469 1074 q 483 1126 469 1113 q 525 1153 497 1139 q 553 1172 544 1164 q 563 1189 563 1179 q 547 1208 563 1201 q 503 1215 531 1215 q 431 1204 468 1215 q 419 1203 426 1203 q 398 1211 406 1203 q 390 1231 390 1219 q 413 1261 390 1251 q 504 1278 454 1278 q 604 1253 568 1278 q 640 1189 640 1229 q 624 1147 640 1161 q 579 1118 608 1132 q 547 1101 558 1110 q 535 1079 536 1092 z "},"Ȃ":{"ha":1000,"x_min":46,"x_max":956,"o":"m 951 46 q 956 29 956 38 q 943 3 956 14 q 914 -7 931 -7 q 892 0 903 -7 q 876 19 882 7 l 771 261 l 232 261 l 125 19 q 86 -7 113 -7 q 58 3 69 -7 q 46 31 46 14 q 49 46 46 40 l 454 957 q 500 988 467 988 q 528 979 515 988 q 547 957 542 971 l 951 46 m 738 336 l 501 874 l 264 336 l 738 336 m 357 1104 q 318 1081 343 1081 q 296 1089 306 1081 q 286 1111 286 1097 q 292 1133 286 1122 q 375 1224 319 1193 q 500 1256 431 1256 q 624 1224 569 1256 q 708 1133 678 1193 q 714 1111 714 1122 q 704 1089 714 1097 q 682 1081 694 1081 q 643 1104 657 1081 q 582 1167 617 1147 q 500 1186 547 1186 q 418 1167 453 1186 q 357 1104 383 1147 z "},"Ā":{"ha":1000,"x_min":46,"x_max":956,"o":"m 951 46 q 956 29 956 38 q 943 3 956 14 q 914 -7 931 -7 q 892 0 903 -7 q 876 19 882 7 l 771 261 l 232 261 l 125 19 q 86 -7 113 -7 q 58 3 69 -7 q 46 31 46 14 q 49 46 46 40 l 454 957 q 500 988 467 988 q 528 979 515 988 q 547 957 542 971 l 951 46 m 738 336 l 501 874 l 264 336 l 738 336 m 332 1132 q 299 1142 311 1132 q 288 1168 288 1151 q 299 1195 288 1186 q 332 1204 311 1204 l 668 1204 q 701 1195 689 1204 q 713 1168 713 1186 q 701 1142 713 1151 q 668 1132 689 1132 l 332 1132 z "},"Ą":{"ha":1000,"x_min":46,"x_max":1025,"o":"m 983 -185 q 1001 -181 993 -181 q 1019 -188 1013 -181 q 1025 -208 1025 -196 q 1006 -242 1025 -231 q 908 -265 964 -265 q 794 -225 838 -265 q 750 -119 750 -185 q 781 -26 750 -68 q 868 40 811 17 l 771 261 l 232 261 l 125 19 q 86 -7 113 -7 q 58 3 69 -7 q 46 31 46 14 q 49 46 46 40 l 454 957 q 500 988 467 988 q 528 979 515 988 q 547 957 542 971 l 951 46 q 956 29 956 38 q 947 8 956 17 q 928 -4 939 -1 q 851 -41 878 -12 q 824 -112 824 -69 q 849 -179 824 -156 q 917 -203 875 -203 q 983 -185 947 -203 m 738 336 l 501 874 l 264 336 l 738 336 z "},"Å":{"ha":1000,"x_min":46,"x_max":956,"o":"m 951 46 q 956 29 956 38 q 943 3 956 14 q 914 -7 931 -7 q 892 0 903 -7 q 876 19 882 7 l 771 261 l 232 261 l 125 19 q 86 -7 113 -7 q 58 3 69 -7 q 46 31 46 14 q 49 46 46 40 l 449 947 q 386 996 410 963 q 363 1071 363 1029 q 403 1167 363 1128 q 500 1206 443 1206 q 597 1167 557 1206 q 638 1071 638 1128 q 614 996 638 1029 q 551 947 590 963 l 951 46 m 500 1143 q 451 1122 471 1143 q 432 1071 432 1101 q 451 1021 432 1042 q 500 1000 471 1000 q 549 1021 529 1000 q 569 1071 569 1042 q 550 1122 569 1101 q 500 1143 531 1143 m 738 336 l 501 874 l 264 336 l 738 336 z "},"Ǻ":{"ha":1000,"x_min":46,"x_max":956,"o":"m 951 46 q 956 29 956 38 q 943 3 956 14 q 914 -7 931 -7 q 892 0 903 -7 q 876 19 882 7 l 771 261 l 232 261 l 125 19 q 86 -7 113 -7 q 58 3 69 -7 q 46 31 46 14 q 49 46 46 40 l 449 947 q 386 996 410 963 q 363 1071 363 1029 q 403 1167 363 1128 q 500 1206 443 1206 q 579 1182 544 1206 l 721 1297 q 757 1311 739 1311 q 790 1297 776 1311 q 804 1263 804 1282 q 772 1217 804 1232 l 618 1140 q 638 1071 638 1108 q 614 996 638 1029 q 551 947 590 963 l 951 46 m 500 1143 q 451 1122 471 1143 q 432 1071 432 1101 q 451 1021 432 1042 q 500 1000 471 1000 q 549 1021 529 1000 q 569 1071 569 1042 q 550 1122 569 1101 q 500 1143 531 1143 m 738 336 l 501 874 l 264 336 l 738 336 z "},"Ã":{"ha":1000,"x_min":46,"x_max":956,"o":"m 951 46 q 956 29 956 38 q 943 3 956 14 q 914 -7 931 -7 q 892 0 903 -7 q 876 19 882 7 l 771 261 l 232 261 l 125 19 q 86 -7 113 -7 q 58 3 69 -7 q 46 31 46 14 q 49 46 46 40 l 454 957 q 500 988 467 988 q 528 979 515 988 q 547 957 542 971 l 951 46 m 738 336 l 501 874 l 264 336 l 738 336 m 596 1101 q 547 1110 572 1101 q 485 1136 522 1119 q 462 1147 481 1139 q 428 1160 443 1156 q 404 1164 414 1164 q 365 1153 379 1164 q 339 1125 351 1143 q 326 1110 333 1117 q 313 1104 319 1104 q 294 1113 301 1104 q 286 1133 286 1121 q 301 1180 286 1156 q 342 1220 315 1204 q 404 1236 369 1236 q 453 1227 428 1236 q 515 1201 478 1218 q 538 1190 519 1199 q 572 1178 557 1182 q 596 1174 586 1174 q 636 1185 622 1174 q 661 1214 650 1196 q 674 1228 667 1222 q 688 1235 681 1235 q 706 1226 699 1235 q 714 1206 714 1217 q 699 1159 714 1183 q 658 1118 685 1135 q 596 1101 631 1101 z "},"Æ":{"ha":1374,"x_min":19,"x_max":1308,"o":"m 1269 75 q 1298 65 1288 75 q 1308 38 1308 56 q 1298 10 1308 19 q 1269 0 1288 0 l 838 0 q 792 43 801 0 l 746 261 l 247 261 l 101 19 q 56 -7 85 -7 q 30 1 40 -7 q 19 24 19 10 q 26 46 19 36 l 583 957 q 633 979 599 979 l 1269 979 q 1298 969 1288 979 q 1308 942 1308 960 q 1298 914 1308 924 q 1269 904 1288 904 l 688 904 l 765 535 l 1242 535 q 1270 525 1260 535 q 1281 497 1281 515 q 1270 469 1281 479 q 1242 460 1260 460 l 782 460 l 864 75 l 1269 75 m 729 336 l 615 872 l 293 336 l 729 336 z "},"Ǽ":{"ha":1374,"x_min":19,"x_max":1308,"o":"m 1269 75 q 1298 65 1288 75 q 1308 38 1308 56 q 1298 10 1308 19 q 1269 0 1288 0 l 838 0 q 792 43 801 0 l 746 261 l 247 261 l 101 19 q 56 -7 85 -7 q 30 1 40 -7 q 19 24 19 10 q 26 46 19 36 l 583 957 q 633 979 599 979 l 1269 979 q 1298 969 1288 979 q 1308 942 1308 960 q 1298 914 1308 924 q 1269 904 1288 904 l 688 904 l 765 535 l 1242 535 q 1270 525 1260 535 q 1281 497 1281 515 q 1270 469 1281 479 q 1242 460 1260 460 l 782 460 l 864 75 l 1269 75 m 729 336 l 615 872 l 293 336 l 729 336 m 707 1061 q 690 1056 700 1056 q 673 1063 681 1056 q 665 1079 665 1069 q 674 1097 665 1089 l 817 1257 q 858 1278 836 1278 q 889 1266 876 1278 q 901 1236 901 1254 q 875 1193 901 1214 l 707 1061 z "},"B":{"ha":931,"x_min":126,"x_max":840,"o":"m 663 501 q 794 419 747 481 q 840 265 840 357 q 756 68 840 136 q 518 0 672 0 l 172 0 q 140 13 153 0 q 126 43 126 25 l 126 936 q 140 967 126 954 q 172 979 153 979 l 504 979 q 736 913 654 979 q 818 722 818 846 q 777 586 818 643 q 663 501 736 529 m 211 535 l 492 535 q 671 583 610 535 q 732 724 732 632 q 492 906 732 906 l 211 906 l 211 535 m 513 74 q 695 120 636 74 q 754 263 754 167 q 513 460 754 460 l 211 460 l 211 74 l 513 74 z "},"C":{"ha":940,"x_min":89,"x_max":872,"o":"m 533 -11 q 297 49 397 -11 q 142 223 196 110 q 89 490 89 336 q 142 757 89 644 q 297 930 196 869 q 533 990 397 990 q 710 959 626 990 q 853 869 794 928 q 872 829 872 851 q 863 803 872 814 q 843 792 854 792 q 811 806 829 792 q 675 890 736 867 q 532 914 614 914 q 272 803 364 914 q 179 490 179 692 q 272 176 179 288 q 532 65 364 65 q 675 89 614 65 q 811 174 736 113 q 843 188 832 188 q 863 176 854 188 q 872 150 872 165 q 853 110 872 128 q 710 20 794 51 q 533 -11 626 -11 z "},"Ć":{"ha":940,"x_min":89,"x_max":872,"o":"m 533 -11 q 297 49 397 -11 q 142 223 196 110 q 89 490 89 336 q 142 757 89 644 q 297 930 196 869 q 533 990 397 990 q 710 959 626 990 q 853 869 794 928 q 872 829 872 851 q 863 803 872 814 q 843 792 854 792 q 811 806 829 792 q 675 890 736 867 q 532 914 614 914 q 272 803 364 914 q 179 490 179 692 q 272 176 179 288 q 532 65 364 65 q 675 89 614 65 q 811 174 736 113 q 843 188 832 188 q 863 176 854 188 q 872 150 872 165 q 853 110 872 128 q 710 20 794 51 q 533 -11 626 -11 m 550 1061 q 533 1056 543 1056 q 516 1063 524 1056 q 508 1079 508 1069 q 517 1097 508 1089 l 660 1257 q 701 1278 679 1278 q 732 1266 719 1278 q 744 1236 744 1254 q 718 1193 744 1214 l 550 1061 z "},"Č":{"ha":940,"x_min":89,"x_max":872,"o":"m 533 -11 q 297 49 397 -11 q 142 223 196 110 q 89 490 89 336 q 142 757 89 644 q 297 930 196 869 q 533 990 397 990 q 710 959 626 990 q 853 869 794 928 q 872 829 872 851 q 863 803 872 814 q 843 792 854 792 q 811 806 829 792 q 675 890 736 867 q 532 914 614 914 q 272 803 364 914 q 179 490 179 692 q 272 176 179 288 q 532 65 364 65 q 675 89 614 65 q 811 174 736 113 q 843 188 832 188 q 863 176 854 188 q 872 150 872 165 q 853 110 872 128 q 710 20 794 51 q 533 -11 626 -11 m 533 1056 q 489 1076 510 1056 l 361 1214 q 349 1243 349 1226 q 359 1267 349 1257 q 383 1278 369 1278 q 411 1265 400 1278 l 533 1125 l 656 1265 q 683 1279 668 1279 q 708 1269 697 1279 q 718 1243 718 1258 q 706 1214 718 1229 l 578 1076 q 533 1056 558 1056 z "},"Ç":{"ha":940,"x_min":89,"x_max":872,"o":"m 843 188 q 863 176 854 188 q 872 150 872 165 q 853 110 872 128 q 719 23 799 54 q 553 -11 640 -8 l 547 -62 q 585 -57 569 -57 q 657 -81 626 -57 q 688 -153 688 -106 q 646 -234 688 -203 q 531 -265 604 -265 q 436 -250 476 -265 q 414 -219 414 -240 q 422 -201 414 -208 q 443 -193 431 -193 q 456 -194 451 -193 q 533 -206 494 -206 q 596 -192 575 -206 q 617 -153 617 -178 q 605 -123 617 -133 q 572 -112 593 -112 q 531 -119 556 -112 q 500 -126 507 -126 q 481 -119 490 -126 q 474 -100 472 -111 l 483 -8 q 272 65 361 1 q 136 237 183 128 q 89 490 89 346 q 142 757 89 644 q 297 930 196 869 q 533 990 397 990 q 710 959 626 990 q 853 869 794 928 q 872 829 872 851 q 863 803 872 814 q 843 792 854 792 q 811 806 829 792 q 675 890 736 867 q 532 914 614 914 q 272 803 364 914 q 179 490 179 692 q 272 176 179 288 q 532 65 364 65 q 675 89 614 65 q 811 174 736 113 q 843 188 832 188 z "},"Ḉ":{"ha":940,"x_min":89,"x_max":872,"o":"m 550 1061 q 533 1056 543 1056 q 516 1063 524 1056 q 508 1079 508 1069 q 517 1097 508 1089 l 660 1257 q 701 1278 679 1278 q 732 1266 719 1278 q 744 1236 744 1254 q 718 1193 744 1214 l 550 1061 m 843 188 q 863 176 854 188 q 872 150 872 165 q 853 110 872 128 q 719 23 799 54 q 553 -11 640 -8 l 547 -62 q 585 -57 569 -57 q 657 -81 626 -57 q 688 -153 688 -106 q 646 -234 688 -203 q 531 -265 604 -265 q 436 -250 476 -265 q 414 -219 414 -240 q 422 -201 414 -208 q 443 -193 431 -193 q 456 -194 451 -193 q 533 -206 494 -206 q 596 -192 575 -206 q 617 -153 617 -178 q 605 -123 617 -133 q 572 -112 593 -112 q 531 -119 556 -112 q 500 -126 507 -126 q 481 -119 490 -126 q 474 -100 472 -111 l 483 -8 q 272 65 361 1 q 136 237 183 128 q 89 490 89 346 q 142 757 89 644 q 297 930 196 869 q 533 990 397 990 q 710 959 626 990 q 853 869 794 928 q 872 829 872 851 q 863 803 872 814 q 843 792 854 792 q 811 806 829 792 q 675 890 736 867 q 532 914 614 914 q 272 803 364 914 q 179 490 179 692 q 272 176 179 288 q 532 65 364 65 q 675 89 614 65 q 811 174 736 113 q 843 188 832 188 z "},"Ĉ":{"ha":940,"x_min":89,"x_max":872,"o":"m 533 -11 q 297 49 397 -11 q 142 223 196 110 q 89 490 89 336 q 142 757 89 644 q 297 930 196 869 q 533 990 397 990 q 710 959 626 990 q 853 869 794 928 q 872 829 872 851 q 863 803 872 814 q 843 792 854 792 q 811 806 829 792 q 675 890 736 867 q 532 914 614 914 q 272 803 364 914 q 179 490 179 692 q 272 176 179 288 q 532 65 364 65 q 675 89 614 65 q 811 174 736 113 q 843 188 832 188 q 863 176 854 188 q 872 150 872 165 q 853 110 872 128 q 710 20 794 51 q 533 -11 626 -11 m 411 1068 q 383 1054 399 1054 q 359 1065 369 1054 q 349 1090 349 1075 q 361 1119 349 1106 l 489 1257 q 533 1278 508 1278 q 578 1257 557 1278 l 706 1119 q 718 1090 718 1107 q 708 1066 718 1076 q 683 1056 697 1056 q 656 1068 667 1056 l 533 1210 l 411 1068 z "},"Ċ":{"ha":940,"x_min":89,"x_max":872,"o":"m 533 -11 q 297 49 397 -11 q 142 223 196 110 q 89 490 89 336 q 142 757 89 644 q 297 930 196 869 q 533 990 397 990 q 710 959 626 990 q 853 869 794 928 q 872 829 872 851 q 863 803 872 814 q 843 792 854 792 q 811 806 829 792 q 675 890 736 867 q 532 914 614 914 q 272 803 364 914 q 179 490 179 692 q 272 176 179 288 q 532 65 364 65 q 675 89 614 65 q 811 174 736 113 q 843 188 832 188 q 863 176 854 188 q 872 150 872 165 q 853 110 872 128 q 710 20 794 51 q 533 -11 626 -11 m 533 1108 q 488 1125 506 1108 q 471 1168 471 1142 q 488 1213 471 1196 q 533 1229 506 1229 q 578 1213 561 1229 q 596 1168 596 1196 q 578 1125 596 1142 q 533 1108 561 1108 z "},"D":{"ha":1015,"x_min":126,"x_max":928,"o":"m 172 0 q 140 13 153 0 q 126 43 126 25 l 126 936 q 140 967 126 954 q 172 979 153 979 l 442 979 q 801 853 674 979 q 928 490 928 726 q 801 127 928 254 q 442 0 674 0 l 172 0 m 438 75 q 838 490 838 75 q 438 904 838 904 l 213 904 l 213 75 l 438 75 z "},"Ǆ":{"ha":1806,"x_min":126,"x_max":1763,"o":"m 172 0 q 140 13 153 0 q 126 43 126 25 l 126 936 q 140 967 126 954 q 172 979 153 979 l 442 979 q 801 853 674 979 q 928 490 928 726 q 801 127 928 254 q 442 0 674 0 l 172 0 m 438 75 q 838 490 838 75 q 438 904 838 904 l 213 904 l 213 75 l 438 75 m 1722 74 q 1752 65 1742 74 q 1763 38 1763 56 q 1752 10 1763 19 q 1722 0 1742 0 l 1089 0 q 1058 10 1069 0 q 1047 36 1047 19 q 1060 69 1047 53 l 1640 906 l 1086 906 q 1059 915 1069 906 q 1049 942 1049 925 q 1059 969 1049 960 q 1086 979 1069 979 l 1707 979 q 1738 969 1726 979 q 1749 942 1749 958 q 1738 910 1749 925 l 1156 74 l 1722 74 m 1399 1056 q 1354 1076 1375 1056 l 1226 1214 q 1214 1243 1214 1226 q 1224 1267 1214 1257 q 1249 1278 1235 1278 q 1276 1265 1265 1278 l 1399 1125 l 1521 1265 q 1549 1279 1533 1279 q 1573 1269 1563 1279 q 1583 1243 1583 1258 q 1571 1214 1583 1229 l 1443 1076 q 1399 1056 1424 1056 z "},"Ð":{"ha":1028,"x_min":0,"x_max":939,"o":"m 454 979 q 813 853 686 979 q 939 490 939 726 q 813 127 939 254 q 454 0 686 0 l 185 0 q 152 13 165 0 q 139 43 139 25 l 139 461 l 39 461 q 11 471 22 461 q 0 497 0 481 q 10 523 0 514 q 39 532 21 532 l 139 532 l 139 936 q 152 967 139 954 q 185 979 165 979 l 454 979 m 450 75 q 850 490 850 75 q 450 904 850 904 l 224 904 l 224 532 l 465 532 q 501 497 501 532 q 492 470 501 479 q 465 461 482 461 l 224 461 l 224 75 l 450 75 z "},"Ď":{"ha":1015,"x_min":126,"x_max":928,"o":"m 172 0 q 140 13 153 0 q 126 43 126 25 l 126 936 q 140 967 126 954 q 172 979 153 979 l 442 979 q 801 853 674 979 q 928 490 928 726 q 801 127 928 254 q 442 0 674 0 l 172 0 m 438 75 q 838 490 838 75 q 438 904 838 904 l 213 904 l 213 75 l 438 75 m 507 1056 q 463 1076 483 1056 l 335 1214 q 322 1243 322 1226 q 333 1267 322 1257 q 357 1278 343 1278 q 385 1265 374 1278 l 507 1125 l 629 1265 q 657 1279 642 1279 q 681 1269 671 1279 q 692 1243 692 1258 q 679 1214 692 1229 l 551 1076 q 507 1056 532 1056 z "},"Đ":{"ha":1028,"x_min":0,"x_max":939,"o":"m 454 979 q 813 853 686 979 q 939 490 939 726 q 813 127 939 254 q 454 0 686 0 l 185 0 q 152 13 165 0 q 139 43 139 25 l 139 461 l 39 461 q 11 471 22 461 q 0 497 0 481 q 10 523 0 514 q 39 532 21 532 l 139 532 l 139 936 q 152 967 139 954 q 185 979 165 979 l 454 979 m 450 75 q 850 490 850 75 q 450 904 850 904 l 224 904 l 224 532 l 465 532 q 501 497 501 532 q 492 470 501 479 q 465 461 482 461 l 224 461 l 224 75 l 450 75 z "},"Ḍ":{"ha":1015,"x_min":126,"x_max":928,"o":"m 172 0 q 140 13 153 0 q 126 43 126 25 l 126 936 q 140 967 126 954 q 172 979 153 979 l 442 979 q 801 853 674 979 q 928 490 928 726 q 801 127 928 254 q 442 0 674 0 l 172 0 m 438 75 q 838 490 838 75 q 438 904 838 904 l 213 904 l 213 75 l 438 75 m 508 -254 q 465 -237 482 -254 q 447 -193 447 -221 q 465 -150 447 -167 q 508 -133 482 -133 q 552 -150 535 -133 q 569 -193 569 -167 q 552 -237 569 -221 q 508 -254 535 -254 z "},"Ḏ":{"ha":1015,"x_min":126,"x_max":928,"o":"m 172 0 q 140 13 153 0 q 126 43 126 25 l 126 936 q 140 967 126 954 q 172 979 153 979 l 442 979 q 801 853 674 979 q 928 490 928 726 q 801 127 928 254 q 442 0 674 0 l 172 0 m 438 75 q 838 490 838 75 q 438 904 838 904 l 213 904 l 213 75 l 438 75 m 340 -229 q 308 -219 319 -229 q 296 -194 296 -210 q 308 -167 296 -176 q 340 -158 319 -158 l 676 -158 q 709 -167 697 -158 q 721 -194 721 -176 q 709 -219 721 -210 q 676 -229 697 -229 l 340 -229 z "},"ǅ":{"ha":1708,"x_min":126,"x_max":1656,"o":"m 172 0 q 140 13 153 0 q 126 43 126 25 l 126 936 q 140 967 126 954 q 172 979 153 979 l 442 979 q 801 853 674 979 q 928 490 928 726 q 801 127 928 254 q 442 0 674 0 l 172 0 m 438 75 q 838 490 838 75 q 438 904 838 904 l 213 904 l 213 75 l 438 75 m 1618 69 q 1646 60 1636 69 q 1656 35 1656 50 q 1645 10 1656 19 q 1618 0 1635 0 l 1124 0 q 1091 11 1103 0 q 1079 39 1079 22 q 1093 74 1079 58 l 1529 606 l 1115 606 q 1089 615 1099 606 q 1079 639 1079 624 q 1089 664 1079 654 q 1115 674 1099 674 l 1596 674 q 1629 663 1617 674 q 1642 635 1642 651 q 1628 601 1642 617 l 1192 69 l 1618 69 m 1367 757 q 1342 765 1353 757 q 1321 786 1332 772 l 1190 988 q 1182 1013 1182 1000 q 1193 1038 1182 1028 q 1218 1049 1204 1049 q 1251 1028 1239 1049 l 1367 835 l 1482 1028 q 1514 1049 1494 1049 q 1540 1038 1529 1049 q 1551 1013 1551 1028 q 1543 988 1551 1000 l 1413 786 q 1391 765 1401 772 q 1367 757 1381 757 z "},"E":{"ha":804,"x_min":126,"x_max":739,"o":"m 172 0 q 140 13 153 0 q 126 43 126 25 l 126 936 q 140 967 126 954 q 172 979 153 979 l 700 979 q 728 969 718 979 q 739 942 739 960 q 728 915 739 925 q 700 906 718 906 l 211 906 l 211 535 l 672 535 q 701 525 690 535 q 711 497 711 515 q 701 469 711 479 q 672 460 690 460 l 211 460 l 211 74 l 700 74 q 728 65 718 74 q 739 38 739 56 q 728 10 739 19 q 700 0 718 0 l 172 0 z "},"É":{"ha":804,"x_min":126,"x_max":739,"o":"m 172 0 q 140 13 153 0 q 126 43 126 25 l 126 936 q 140 967 126 954 q 172 979 153 979 l 700 979 q 728 969 718 979 q 739 942 739 960 q 728 915 739 925 q 700 906 718 906 l 211 906 l 211 535 l 672 535 q 701 525 690 535 q 711 497 711 515 q 701 469 711 479 q 672 460 690 460 l 211 460 l 211 74 l 700 74 q 728 65 718 74 q 739 38 739 56 q 728 10 739 19 q 700 0 718 0 l 172 0 m 464 1061 q 447 1056 457 1056 q 430 1063 438 1056 q 422 1079 422 1069 q 431 1097 422 1089 l 574 1257 q 615 1278 593 1278 q 646 1266 633 1278 q 658 1236 658 1254 q 632 1193 658 1214 l 464 1061 z "},"Ĕ":{"ha":804,"x_min":126,"x_max":739,"o":"m 172 0 q 140 13 153 0 q 126 43 126 25 l 126 936 q 140 967 126 954 q 172 979 153 979 l 700 979 q 728 969 718 979 q 739 942 739 960 q 728 915 739 925 q 700 906 718 906 l 211 906 l 211 535 l 672 535 q 701 525 690 535 q 711 497 711 515 q 701 469 711 479 q 672 460 690 460 l 211 460 l 211 74 l 700 74 q 728 65 718 74 q 739 38 739 56 q 728 10 739 19 q 700 0 718 0 l 172 0 m 447 1081 q 324 1111 378 1081 q 239 1203 269 1142 q 233 1224 233 1214 q 243 1247 233 1238 q 267 1256 253 1256 q 304 1232 290 1256 q 365 1169 331 1188 q 447 1150 399 1150 q 530 1169 496 1150 q 590 1232 564 1188 q 628 1256 604 1256 q 651 1247 642 1256 q 661 1224 661 1238 q 656 1203 661 1213 q 573 1111 628 1142 q 447 1081 518 1081 z "},"Ě":{"ha":804,"x_min":126,"x_max":739,"o":"m 172 0 q 140 13 153 0 q 126 43 126 25 l 126 936 q 140 967 126 954 q 172 979 153 979 l 700 979 q 728 969 718 979 q 739 942 739 960 q 728 915 739 925 q 700 906 718 906 l 211 906 l 211 535 l 672 535 q 701 525 690 535 q 711 497 711 515 q 701 469 711 479 q 672 460 690 460 l 211 460 l 211 74 l 700 74 q 728 65 718 74 q 739 38 739 56 q 728 10 739 19 q 700 0 718 0 l 172 0 m 447 1056 q 403 1076 424 1056 l 275 1214 q 263 1243 263 1226 q 273 1267 263 1257 q 297 1278 283 1278 q 325 1265 314 1278 l 447 1125 l 569 1265 q 597 1279 582 1279 q 622 1269 611 1279 q 632 1243 632 1258 q 619 1214 632 1229 l 492 1076 q 447 1056 472 1056 z "},"Ȩ":{"ha":804,"x_min":126,"x_max":739,"o":"m 700 74 q 728 65 718 74 q 739 38 739 56 q 728 10 739 19 q 700 0 718 0 l 469 0 l 463 -62 q 500 -57 485 -57 q 572 -81 542 -57 q 603 -153 603 -106 q 561 -234 603 -203 q 446 -265 519 -265 q 351 -250 392 -265 q 329 -219 329 -240 q 338 -201 329 -208 q 358 -193 346 -193 q 371 -194 367 -193 q 449 -206 410 -206 q 511 -192 490 -206 q 532 -153 532 -178 q 520 -123 532 -133 q 488 -112 508 -112 q 447 -119 471 -112 q 415 -126 422 -126 q 397 -119 406 -126 q 389 -100 388 -111 l 400 0 l 172 0 q 140 13 153 0 q 126 43 126 25 l 126 936 q 140 967 126 954 q 172 979 153 979 l 700 979 q 728 969 718 979 q 739 942 739 960 q 728 915 739 925 q 700 906 718 906 l 211 906 l 211 535 l 672 535 q 701 525 690 535 q 711 497 711 515 q 701 469 711 479 q 672 460 690 460 l 211 460 l 211 74 l 700 74 z "},"Ḝ":{"ha":804,"x_min":126,"x_max":739,"o":"m 447 1081 q 324 1111 378 1081 q 239 1203 269 1142 q 233 1224 233 1214 q 243 1247 233 1238 q 267 1256 253 1256 q 304 1232 290 1256 q 365 1169 331 1188 q 447 1150 399 1150 q 530 1169 496 1150 q 590 1232 564 1188 q 628 1256 604 1256 q 651 1247 642 1256 q 661 1224 661 1238 q 656 1203 661 1213 q 573 1111 628 1142 q 447 1081 518 1081 m 700 74 q 728 65 718 74 q 739 38 739 56 q 728 10 739 19 q 700 0 718 0 l 469 0 l 463 -62 q 500 -57 485 -57 q 572 -81 542 -57 q 603 -153 603 -106 q 561 -234 603 -203 q 446 -265 519 -265 q 351 -250 392 -265 q 329 -219 329 -240 q 338 -201 329 -208 q 358 -193 346 -193 q 371 -194 367 -193 q 449 -206 410 -206 q 511 -192 490 -206 q 532 -153 532 -178 q 520 -123 532 -133 q 488 -112 508 -112 q 447 -119 471 -112 q 415 -126 422 -126 q 397 -119 406 -126 q 389 -100 388 -111 l 400 0 l 172 0 q 140 13 153 0 q 126 43 126 25 l 126 936 q 140 967 126 954 q 172 979 153 979 l 700 979 q 728 969 718 979 q 739 942 739 960 q 728 915 739 925 q 700 906 718 906 l 211 906 l 211 535 l 672 535 q 701 525 690 535 q 711 497 711 515 q 701 469 711 479 q 672 460 690 460 l 211 460 l 211 74 l 700 74 z "},"Ê":{"ha":804,"x_min":126,"x_max":739,"o":"m 172 0 q 140 13 153 0 q 126 43 126 25 l 126 936 q 140 967 126 954 q 172 979 153 979 l 700 979 q 728 969 718 979 q 739 942 739 960 q 728 915 739 925 q 700 906 718 906 l 211 906 l 211 535 l 672 535 q 701 525 690 535 q 711 497 711 515 q 701 469 711 479 q 672 460 690 460 l 211 460 l 211 74 l 700 74 q 728 65 718 74 q 739 38 739 56 q 728 10 739 19 q 700 0 718 0 l 172 0 m 325 1068 q 297 1054 313 1054 q 273 1065 283 1054 q 263 1090 263 1075 q 275 1119 263 1106 l 403 1257 q 447 1278 422 1278 q 492 1257 471 1278 l 619 1119 q 632 1090 632 1107 q 622 1066 632 1076 q 597 1056 611 1056 q 569 1068 581 1056 l 447 1210 l 325 1068 z "},"Ế":{"ha":804,"x_min":126,"x_max":774,"o":"m 172 0 q 140 13 153 0 q 126 43 126 25 l 126 936 q 140 967 126 954 q 172 979 153 979 l 700 979 q 728 969 718 979 q 739 942 739 960 q 728 915 739 925 q 700 906 718 906 l 211 906 l 211 535 l 672 535 q 701 525 690 535 q 711 497 711 515 q 701 469 711 479 q 672 460 690 460 l 211 460 l 211 74 l 700 74 q 728 65 718 74 q 739 38 739 56 q 728 10 739 19 q 700 0 718 0 l 172 0 m 614 1203 q 599 1197 607 1197 q 579 1205 588 1197 q 571 1222 571 1213 q 578 1239 571 1229 l 690 1385 q 732 1408 708 1408 q 761 1397 749 1408 q 774 1368 774 1385 q 750 1325 774 1344 l 614 1203 m 324 1068 q 297 1056 311 1056 q 272 1067 282 1056 q 261 1092 261 1078 q 275 1121 261 1107 l 403 1256 q 447 1276 422 1276 q 492 1256 471 1276 l 619 1121 q 633 1092 633 1107 q 622 1067 633 1078 q 597 1056 611 1056 q 571 1068 583 1056 l 447 1208 l 324 1068 z "},"Ệ":{"ha":804,"x_min":126,"x_max":739,"o":"m 172 0 q 140 13 153 0 q 126 43 126 25 l 126 936 q 140 967 126 954 q 172 979 153 979 l 700 979 q 728 969 718 979 q 739 942 739 960 q 728 915 739 925 q 700 906 718 906 l 211 906 l 211 535 l 672 535 q 701 525 690 535 q 711 497 711 515 q 701 469 711 479 q 672 460 690 460 l 211 460 l 211 74 l 700 74 q 728 65 718 74 q 739 38 739 56 q 728 10 739 19 q 700 0 718 0 l 172 0 m 447 -254 q 403 -237 421 -254 q 386 -193 386 -221 q 403 -150 386 -167 q 447 -133 421 -133 q 491 -150 474 -133 q 508 -193 508 -167 q 491 -237 508 -221 q 447 -254 474 -254 m 325 1068 q 297 1054 313 1054 q 273 1065 283 1054 q 263 1090 263 1075 q 275 1119 263 1106 l 403 1257 q 447 1278 422 1278 q 492 1257 471 1278 l 619 1119 q 632 1090 632 1107 q 622 1066 632 1076 q 597 1056 611 1056 q 569 1068 581 1056 l 447 1210 l 325 1068 z "},"Ề":{"ha":804,"x_min":126,"x_max":739,"o":"m 172 0 q 140 13 153 0 q 126 43 126 25 l 126 936 q 140 967 126 954 q 172 979 153 979 l 700 979 q 728 969 718 979 q 739 942 739 960 q 728 915 739 925 q 700 906 718 906 l 211 906 l 211 535 l 672 535 q 701 525 690 535 q 711 497 711 515 q 701 469 711 479 q 672 460 690 460 l 211 460 l 211 74 l 700 74 q 728 65 718 74 q 739 38 739 56 q 728 10 739 19 q 700 0 718 0 l 172 0 m 485 1325 q 461 1368 461 1344 q 474 1397 461 1385 q 503 1408 486 1408 q 546 1385 528 1408 l 658 1238 q 665 1221 665 1228 q 658 1204 665 1211 q 639 1197 650 1197 q 621 1204 631 1197 l 485 1325 m 324 1068 q 297 1056 311 1056 q 272 1067 282 1056 q 261 1092 261 1078 q 275 1121 261 1107 l 403 1256 q 447 1276 422 1276 q 492 1256 471 1276 l 619 1121 q 633 1092 633 1107 q 622 1067 633 1078 q 597 1056 611 1056 q 571 1068 583 1056 l 447 1208 l 324 1068 z "},"Ể":{"ha":804,"x_min":126,"x_max":739,"o":"m 172 0 q 140 13 153 0 q 126 43 126 25 l 126 936 q 140 967 126 954 q 172 979 153 979 l 700 979 q 728 969 718 979 q 739 942 739 960 q 728 915 739 925 q 700 906 718 906 l 211 906 l 211 535 l 672 535 q 701 525 690 535 q 711 497 711 515 q 701 469 711 479 q 672 460 690 460 l 211 460 l 211 74 l 700 74 q 728 65 718 74 q 739 38 739 56 q 728 10 739 19 q 700 0 718 0 l 172 0 m 624 1219 q 614 1202 622 1208 q 596 1196 606 1196 q 573 1205 582 1196 q 564 1231 564 1214 q 578 1263 564 1251 q 619 1289 592 1275 q 647 1305 638 1299 q 656 1319 656 1311 q 639 1338 656 1332 q 594 1344 622 1344 q 522 1335 561 1344 q 510 1333 518 1333 q 489 1341 497 1333 q 481 1360 481 1349 q 504 1390 481 1379 q 596 1407 546 1407 q 695 1383 658 1407 q 732 1322 732 1360 q 715 1281 732 1294 q 668 1254 699 1268 q 635 1238 646 1244 q 624 1219 625 1231 m 324 1068 q 297 1056 311 1056 q 272 1067 282 1056 q 261 1092 261 1078 q 275 1121 261 1107 l 403 1256 q 447 1276 422 1276 q 492 1256 471 1276 l 619 1121 q 633 1092 633 1107 q 622 1067 633 1078 q 597 1056 611 1056 q 571 1068 583 1056 l 447 1208 l 324 1068 z "},"Ễ":{"ha":804,"x_min":126,"x_max":739,"o":"m 172 0 q 140 13 153 0 q 126 43 126 25 l 126 936 q 140 967 126 954 q 172 979 153 979 l 700 979 q 728 969 718 979 q 739 942 739 960 q 728 915 739 925 q 700 906 718 906 l 211 906 l 211 535 l 672 535 q 701 525 690 535 q 711 497 711 515 q 701 469 711 479 q 672 460 690 460 l 211 460 l 211 74 l 700 74 q 728 65 718 74 q 739 38 739 56 q 728 10 739 19 q 700 0 718 0 l 172 0 m 543 1274 q 494 1283 519 1274 q 432 1308 469 1292 q 409 1319 428 1311 q 376 1332 390 1328 q 351 1336 361 1336 q 313 1326 326 1336 q 286 1297 299 1315 q 274 1283 281 1289 q 260 1276 267 1276 q 241 1285 249 1276 q 233 1306 233 1293 q 248 1351 233 1328 q 290 1391 263 1375 q 351 1407 317 1407 q 400 1398 375 1407 q 463 1372 425 1389 q 485 1361 467 1369 q 519 1349 504 1353 q 543 1344 533 1344 q 582 1355 568 1344 q 608 1383 596 1365 q 621 1398 614 1392 q 635 1404 628 1404 q 653 1396 646 1404 q 661 1376 661 1388 q 647 1330 661 1354 q 605 1290 632 1306 q 543 1274 578 1274 m 324 1068 q 297 1056 311 1056 q 272 1067 282 1056 q 261 1092 261 1078 q 275 1121 261 1107 l 403 1256 q 447 1276 422 1276 q 492 1256 471 1276 l 619 1121 q 633 1092 633 1107 q 622 1067 633 1078 q 597 1056 611 1056 q 571 1068 583 1056 l 447 1208 l 324 1068 z "},"Ȅ":{"ha":804,"x_min":126,"x_max":739,"o":"m 172 0 q 140 13 153 0 q 126 43 126 25 l 126 936 q 140 967 126 954 q 172 979 153 979 l 700 979 q 728 969 718 979 q 739 942 739 960 q 728 915 739 925 q 700 906 718 906 l 211 906 l 211 535 l 672 535 q 701 525 690 535 q 711 497 711 515 q 701 469 711 479 q 672 460 690 460 l 211 460 l 211 74 l 700 74 q 728 65 718 74 q 739 38 739 56 q 728 10 739 19 q 700 0 718 0 l 172 0 m 242 1207 q 228 1243 228 1225 q 238 1269 228 1258 q 263 1279 247 1279 q 285 1271 274 1279 q 304 1247 296 1263 l 385 1088 q 388 1075 388 1083 q 382 1060 388 1065 q 368 1054 376 1054 q 349 1065 357 1054 l 242 1207 m 401 1207 q 388 1243 388 1225 q 397 1269 388 1258 q 422 1279 407 1279 q 444 1271 433 1279 q 464 1247 456 1263 l 544 1088 q 547 1075 547 1083 q 542 1060 547 1065 q 528 1054 536 1054 q 508 1065 517 1054 l 401 1207 z "},"Ë":{"ha":804,"x_min":126,"x_max":739,"o":"m 172 0 q 140 13 153 0 q 126 43 126 25 l 126 936 q 140 967 126 954 q 172 979 153 979 l 700 979 q 728 969 718 979 q 739 942 739 960 q 728 915 739 925 q 700 906 718 906 l 211 906 l 211 535 l 672 535 q 701 525 690 535 q 711 497 711 515 q 701 469 711 479 q 672 460 690 460 l 211 460 l 211 74 l 700 74 q 728 65 718 74 q 739 38 739 56 q 728 10 739 19 q 700 0 718 0 l 172 0 m 332 1111 q 290 1127 307 1111 q 274 1168 274 1143 q 290 1209 274 1193 q 332 1225 307 1225 q 374 1209 357 1225 q 392 1168 392 1193 q 374 1127 392 1143 q 332 1111 357 1111 m 563 1111 q 520 1127 538 1111 q 503 1168 503 1143 q 520 1209 503 1193 q 563 1225 538 1225 q 604 1209 588 1225 q 621 1168 621 1193 q 604 1127 621 1143 q 563 1111 588 1111 z "},"Ė":{"ha":804,"x_min":126,"x_max":739,"o":"m 172 0 q 140 13 153 0 q 126 43 126 25 l 126 936 q 140 967 126 954 q 172 979 153 979 l 700 979 q 728 969 718 979 q 739 942 739 960 q 728 915 739 925 q 700 906 718 906 l 211 906 l 211 535 l 672 535 q 701 525 690 535 q 711 497 711 515 q 701 469 711 479 q 672 460 690 460 l 211 460 l 211 74 l 700 74 q 728 65 718 74 q 739 38 739 56 q 728 10 739 19 q 700 0 718 0 l 172 0 m 447 1108 q 402 1125 419 1108 q 385 1168 385 1142 q 402 1213 385 1196 q 447 1229 419 1229 q 492 1213 475 1229 q 510 1168 510 1196 q 492 1125 510 1142 q 447 1108 475 1108 z "},"Ẹ":{"ha":804,"x_min":126,"x_max":739,"o":"m 172 0 q 140 13 153 0 q 126 43 126 25 l 126 936 q 140 967 126 954 q 172 979 153 979 l 700 979 q 728 969 718 979 q 739 942 739 960 q 728 915 739 925 q 700 906 718 906 l 211 906 l 211 535 l 672 535 q 701 525 690 535 q 711 497 711 515 q 701 469 711 479 q 672 460 690 460 l 211 460 l 211 74 l 700 74 q 728 65 718 74 q 739 38 739 56 q 728 10 739 19 q 700 0 718 0 l 172 0 m 447 -254 q 403 -237 421 -254 q 386 -193 386 -221 q 403 -150 386 -167 q 447 -133 421 -133 q 491 -150 474 -133 q 508 -193 508 -167 q 491 -237 508 -221 q 447 -254 474 -254 z "},"È":{"ha":804,"x_min":126,"x_max":739,"o":"m 172 0 q 140 13 153 0 q 126 43 126 25 l 126 936 q 140 967 126 954 q 172 979 153 979 l 700 979 q 728 969 718 979 q 739 942 739 960 q 728 915 739 925 q 700 906 718 906 l 211 906 l 211 535 l 672 535 q 701 525 690 535 q 711 497 711 515 q 701 469 711 479 q 672 460 690 460 l 211 460 l 211 74 l 700 74 q 728 65 718 74 q 739 38 739 56 q 728 10 739 19 q 700 0 718 0 l 172 0 m 263 1193 q 236 1238 236 1214 q 249 1266 236 1254 q 279 1278 261 1278 q 321 1257 301 1278 l 464 1097 q 472 1079 472 1089 q 465 1063 472 1069 q 447 1056 457 1056 q 431 1061 438 1056 l 263 1193 z "},"Ẻ":{"ha":804,"x_min":126,"x_max":739,"o":"m 172 0 q 140 13 153 0 q 126 43 126 25 l 126 936 q 140 967 126 954 q 172 979 153 979 l 700 979 q 728 969 718 979 q 739 942 739 960 q 728 915 739 925 q 700 906 718 906 l 211 906 l 211 535 l 672 535 q 701 525 690 535 q 711 497 711 515 q 701 469 711 479 q 672 460 690 460 l 211 460 l 211 74 l 700 74 q 728 65 718 74 q 739 38 739 56 q 728 10 739 19 q 700 0 718 0 l 172 0 m 482 1079 q 472 1062 481 1068 q 451 1056 463 1056 q 427 1065 438 1056 q 417 1089 417 1074 q 431 1126 417 1113 q 472 1153 444 1139 q 501 1172 492 1164 q 510 1189 510 1179 q 494 1208 510 1201 q 450 1215 478 1215 q 378 1204 415 1215 q 367 1203 374 1203 q 345 1211 353 1203 q 338 1231 338 1219 q 360 1261 338 1251 q 451 1278 401 1278 q 551 1253 515 1278 q 588 1189 588 1229 q 572 1147 588 1161 q 526 1118 556 1132 q 494 1101 506 1110 q 482 1079 483 1092 z "},"Ȇ":{"ha":804,"x_min":126,"x_max":739,"o":"m 172 0 q 140 13 153 0 q 126 43 126 25 l 126 936 q 140 967 126 954 q 172 979 153 979 l 700 979 q 728 969 718 979 q 739 942 739 960 q 728 915 739 925 q 700 906 718 906 l 211 906 l 211 535 l 672 535 q 701 525 690 535 q 711 497 711 515 q 701 469 711 479 q 672 460 690 460 l 211 460 l 211 74 l 700 74 q 728 65 718 74 q 739 38 739 56 q 728 10 739 19 q 700 0 718 0 l 172 0 m 304 1104 q 265 1081 290 1081 q 243 1089 253 1081 q 233 1111 233 1097 q 239 1133 233 1122 q 322 1224 267 1193 q 447 1256 378 1256 q 571 1224 517 1256 q 656 1133 625 1193 q 661 1111 661 1122 q 651 1089 661 1097 q 629 1081 642 1081 q 590 1104 604 1081 q 529 1167 564 1147 q 447 1186 494 1186 q 365 1167 400 1186 q 304 1104 331 1147 z "},"Ē":{"ha":804,"x_min":126,"x_max":739,"o":"m 172 0 q 140 13 153 0 q 126 43 126 25 l 126 936 q 140 967 126 954 q 172 979 153 979 l 700 979 q 728 969 718 979 q 739 942 739 960 q 728 915 739 925 q 700 906 718 906 l 211 906 l 211 535 l 672 535 q 701 525 690 535 q 711 497 711 515 q 701 469 711 479 q 672 460 690 460 l 211 460 l 211 74 l 700 74 q 728 65 718 74 q 739 38 739 56 q 728 10 739 19 q 700 0 718 0 l 172 0 m 279 1132 q 247 1142 258 1132 q 235 1168 235 1151 q 247 1195 235 1186 q 279 1204 258 1204 l 615 1204 q 648 1195 636 1204 q 660 1168 660 1186 q 648 1142 660 1151 q 615 1132 636 1132 l 279 1132 z "},"Ḗ":{"ha":804,"x_min":126,"x_max":739,"o":"m 172 0 q 140 13 153 0 q 126 43 126 25 l 126 936 q 140 967 126 954 q 172 979 153 979 l 700 979 q 728 969 718 979 q 739 942 739 960 q 728 915 739 925 q 700 906 718 906 l 211 906 l 211 535 l 672 535 q 701 525 690 535 q 711 497 711 515 q 701 469 711 479 q 672 460 690 460 l 211 460 l 211 74 l 700 74 q 728 65 718 74 q 739 38 739 56 q 728 10 739 19 q 700 0 718 0 l 172 0 m 279 1132 q 247 1142 258 1132 q 235 1168 235 1151 q 247 1195 235 1186 q 279 1204 258 1204 l 615 1204 q 648 1195 636 1204 q 660 1168 660 1186 q 648 1142 660 1151 q 615 1132 636 1132 l 279 1132 m 464 1283 q 447 1278 457 1278 q 430 1285 438 1278 q 422 1301 422 1292 q 431 1319 422 1311 l 574 1479 q 615 1500 593 1500 q 646 1488 633 1500 q 658 1458 658 1476 q 632 1415 658 1436 l 464 1283 z "},"Ḕ":{"ha":804,"x_min":126,"x_max":739,"o":"m 172 0 q 140 13 153 0 q 126 43 126 25 l 126 936 q 140 967 126 954 q 172 979 153 979 l 700 979 q 728 969 718 979 q 739 942 739 960 q 728 915 739 925 q 700 906 718 906 l 211 906 l 211 535 l 672 535 q 701 525 690 535 q 711 497 711 515 q 701 469 711 479 q 672 460 690 460 l 211 460 l 211 74 l 700 74 q 728 65 718 74 q 739 38 739 56 q 728 10 739 19 q 700 0 718 0 l 172 0 m 279 1132 q 247 1142 258 1132 q 235 1168 235 1151 q 247 1195 235 1186 q 279 1204 258 1204 l 615 1204 q 648 1195 636 1204 q 660 1168 660 1186 q 648 1142 660 1151 q 615 1132 636 1132 l 279 1132 m 263 1415 q 236 1460 236 1436 q 249 1488 236 1476 q 279 1500 261 1500 q 321 1479 301 1500 l 464 1319 q 472 1301 472 1311 q 465 1285 472 1292 q 447 1278 457 1278 q 431 1283 438 1278 l 263 1415 z "},"Ę":{"ha":804,"x_min":126,"x_max":779,"o":"m 739 -185 q 756 -181 750 -181 q 773 -188 767 -181 q 779 -208 779 -196 q 761 -242 779 -232 q 663 -265 718 -265 q 548 -225 592 -265 q 504 -122 504 -185 q 560 0 504 -47 l 172 0 q 140 13 153 0 q 126 43 126 25 l 126 936 q 140 967 126 954 q 172 979 153 979 l 700 979 q 728 969 718 979 q 739 942 739 960 q 728 915 739 924 q 700 906 718 906 l 211 906 l 211 535 l 672 535 q 701 525 690 535 q 711 497 711 515 q 701 469 711 479 q 672 460 690 460 l 211 460 l 211 74 l 700 74 q 728 65 718 74 q 739 38 739 56 q 703 0 739 4 q 610 -35 640 -4 q 579 -112 579 -65 q 604 -179 579 -156 q 672 -203 629 -203 q 739 -185 701 -203 z "},"Ẽ":{"ha":804,"x_min":126,"x_max":739,"o":"m 172 0 q 140 13 153 0 q 126 43 126 25 l 126 936 q 140 967 126 954 q 172 979 153 979 l 700 979 q 728 969 718 979 q 739 942 739 960 q 728 915 739 925 q 700 906 718 906 l 211 906 l 211 535 l 672 535 q 701 525 690 535 q 711 497 711 515 q 701 469 711 479 q 672 460 690 460 l 211 460 l 211 74 l 700 74 q 728 65 718 74 q 739 38 739 56 q 728 10 739 19 q 700 0 718 0 l 172 0 m 543 1101 q 494 1110 519 1101 q 432 1136 469 1119 q 409 1147 428 1139 q 376 1160 390 1156 q 351 1164 361 1164 q 313 1153 326 1164 q 286 1125 299 1143 q 274 1110 281 1117 q 260 1104 267 1104 q 241 1113 249 1104 q 233 1133 233 1121 q 248 1180 233 1156 q 290 1220 263 1204 q 351 1236 317 1236 q 400 1227 375 1236 q 463 1201 425 1218 q 485 1190 467 1199 q 519 1178 504 1182 q 543 1174 533 1174 q 583 1185 569 1174 q 608 1214 597 1196 q 621 1228 614 1222 q 635 1235 628 1235 q 653 1226 646 1235 q 661 1206 661 1217 q 647 1159 661 1183 q 605 1118 632 1135 q 543 1101 578 1101 z "},"F":{"ha":768,"x_min":126,"x_max":725,"o":"m 169 -7 q 138 6 150 -7 q 126 38 126 18 l 126 936 q 140 967 126 954 q 172 979 153 979 l 686 979 q 715 969 704 979 q 725 942 725 960 q 715 915 725 924 q 686 906 704 906 l 213 906 l 213 535 l 658 535 q 687 525 676 535 q 697 497 697 515 q 687 469 697 479 q 658 460 676 460 l 213 460 l 213 38 q 201 5 213 17 q 169 -7 190 -7 z "},"G":{"ha":999,"x_min":89,"x_max":883,"o":"m 846 501 q 873 491 863 501 q 883 464 883 481 l 883 96 q 851 46 883 60 q 713 4 794 19 q 549 -11 632 -11 q 302 48 406 -11 q 144 220 199 107 q 89 490 89 333 q 143 757 89 644 q 299 930 197 869 q 539 990 400 990 q 721 959 636 990 q 860 869 806 928 q 878 829 878 851 q 869 803 878 814 q 849 792 861 792 q 818 806 838 792 q 682 890 744 867 q 539 914 619 914 q 273 803 367 914 q 179 490 179 693 q 274 174 179 283 q 549 64 368 64 q 685 76 618 64 q 806 110 753 88 l 806 429 l 581 429 q 551 439 561 429 q 540 465 540 449 q 551 492 540 482 q 581 501 561 501 l 846 501 z "},"Ğ":{"ha":999,"x_min":89,"x_max":883,"o":"m 846 501 q 873 491 863 501 q 883 464 883 481 l 883 96 q 851 46 883 60 q 713 4 794 19 q 549 -11 632 -11 q 302 48 406 -11 q 144 220 199 107 q 89 490 89 333 q 143 757 89 644 q 299 930 197 869 q 539 990 400 990 q 721 959 636 990 q 860 869 806 928 q 878 829 878 851 q 869 803 878 814 q 849 792 861 792 q 818 806 838 792 q 682 890 744 867 q 539 914 619 914 q 273 803 367 914 q 179 490 179 693 q 274 174 179 283 q 549 64 368 64 q 685 76 618 64 q 806 110 753 88 l 806 429 l 581 429 q 551 439 561 429 q 540 465 540 449 q 551 492 540 482 q 581 501 561 501 l 846 501 m 539 1081 q 415 1111 469 1081 q 331 1203 361 1142 q 325 1224 325 1214 q 335 1247 325 1238 q 358 1256 344 1256 q 396 1232 382 1256 q 456 1169 422 1188 q 539 1150 490 1150 q 622 1169 588 1150 q 682 1232 656 1188 q 719 1256 696 1256 q 743 1247 733 1256 q 753 1224 753 1238 q 747 1203 753 1213 q 665 1111 719 1142 q 539 1081 610 1081 z "},"Ǧ":{"ha":999,"x_min":89,"x_max":883,"o":"m 846 501 q 873 491 863 501 q 883 464 883 481 l 883 96 q 851 46 883 60 q 713 4 794 19 q 549 -11 632 -11 q 302 48 406 -11 q 144 220 199 107 q 89 490 89 333 q 143 757 89 644 q 299 930 197 869 q 539 990 400 990 q 721 959 636 990 q 860 869 806 928 q 878 829 878 851 q 869 803 878 814 q 849 792 861 792 q 818 806 838 792 q 682 890 744 867 q 539 914 619 914 q 273 803 367 914 q 179 490 179 693 q 274 174 179 283 q 549 64 368 64 q 685 76 618 64 q 806 110 753 88 l 806 429 l 581 429 q 551 439 561 429 q 540 465 540 449 q 551 492 540 482 q 581 501 561 501 l 846 501 m 539 1056 q 494 1076 515 1056 l 367 1214 q 354 1243 354 1226 q 365 1267 354 1257 q 389 1278 375 1278 q 417 1265 406 1278 l 539 1125 l 661 1265 q 689 1279 674 1279 q 713 1269 703 1279 q 724 1243 724 1258 q 711 1214 724 1229 l 583 1076 q 539 1056 564 1056 z "},"Ĝ":{"ha":999,"x_min":89,"x_max":883,"o":"m 846 501 q 873 491 863 501 q 883 464 883 481 l 883 96 q 851 46 883 60 q 713 4 794 19 q 549 -11 632 -11 q 302 48 406 -11 q 144 220 199 107 q 89 490 89 333 q 143 757 89 644 q 299 930 197 869 q 539 990 400 990 q 721 959 636 990 q 860 869 806 928 q 878 829 878 851 q 869 803 878 814 q 849 792 861 792 q 818 806 838 792 q 682 890 744 867 q 539 914 619 914 q 273 803 367 914 q 179 490 179 693 q 274 174 179 283 q 549 64 368 64 q 685 76 618 64 q 806 110 753 88 l 806 429 l 581 429 q 551 439 561 429 q 540 465 540 449 q 551 492 540 482 q 581 501 561 501 l 846 501 m 417 1068 q 389 1054 404 1054 q 365 1065 375 1054 q 354 1090 354 1075 q 367 1119 354 1106 l 494 1257 q 539 1278 514 1278 q 583 1257 563 1278 l 711 1119 q 724 1090 724 1107 q 713 1066 724 1076 q 689 1056 703 1056 q 661 1068 672 1056 l 539 1210 l 417 1068 z "},"Ģ":{"ha":999,"x_min":89,"x_max":883,"o":"m 846 501 q 873 491 863 501 q 883 464 883 481 l 883 96 q 851 46 883 60 q 713 4 794 19 q 549 -11 632 -11 q 302 48 406 -11 q 144 220 199 107 q 89 490 89 333 q 143 757 89 644 q 299 930 197 869 q 539 990 400 990 q 721 959 636 990 q 860 869 806 928 q 878 829 878 851 q 869 803 878 814 q 849 792 861 792 q 818 806 838 792 q 682 890 744 867 q 539 914 619 914 q 273 803 367 914 q 179 490 179 693 q 274 174 179 283 q 549 64 368 64 q 685 76 618 64 q 806 110 753 88 l 806 429 l 581 429 q 551 439 561 429 q 540 465 540 449 q 551 492 540 482 q 581 501 561 501 l 846 501 m 549 -96 q 617 -182 617 -96 q 557 -336 617 -271 q 526 -351 542 -351 q 508 -344 515 -351 q 500 -326 500 -337 q 510 -304 500 -315 q 553 -212 549 -258 q 508 -197 525 -212 q 490 -153 490 -181 q 507 -112 490 -128 q 549 -96 524 -96 z "},"Ġ":{"ha":999,"x_min":89,"x_max":883,"o":"m 846 501 q 873 491 863 501 q 883 464 883 481 l 883 96 q 851 46 883 60 q 713 4 794 19 q 549 -11 632 -11 q 302 48 406 -11 q 144 220 199 107 q 89 490 89 333 q 143 757 89 644 q 299 930 197 869 q 539 990 400 990 q 721 959 636 990 q 860 869 806 928 q 878 829 878 851 q 869 803 878 814 q 849 792 861 792 q 818 806 838 792 q 682 890 744 867 q 539 914 619 914 q 273 803 367 914 q 179 490 179 693 q 274 174 179 283 q 549 64 368 64 q 685 76 618 64 q 806 110 753 88 l 806 429 l 581 429 q 551 439 561 429 q 540 465 540 449 q 551 492 540 482 q 581 501 561 501 l 846 501 m 539 1108 q 494 1125 511 1108 q 476 1168 476 1142 q 494 1213 476 1196 q 539 1229 511 1229 q 584 1213 567 1229 q 601 1168 601 1196 q 584 1125 601 1142 q 539 1108 567 1108 z "},"Ḡ":{"ha":999,"x_min":89,"x_max":883,"o":"m 846 501 q 873 491 863 501 q 883 464 883 481 l 883 96 q 851 46 883 60 q 713 4 794 19 q 549 -11 632 -11 q 302 48 406 -11 q 144 220 199 107 q 89 490 89 333 q 143 757 89 644 q 299 930 197 869 q 539 990 400 990 q 721 959 636 990 q 860 869 806 928 q 878 829 878 851 q 869 803 878 814 q 849 792 861 792 q 818 806 838 792 q 682 890 744 867 q 539 914 619 914 q 273 803 367 914 q 179 490 179 693 q 274 174 179 283 q 549 64 368 64 q 685 76 618 64 q 806 110 753 88 l 806 429 l 581 429 q 551 439 561 429 q 540 465 540 449 q 551 492 540 482 q 581 501 561 501 l 846 501 m 371 1132 q 338 1142 350 1132 q 326 1168 326 1151 q 338 1195 326 1186 q 371 1204 350 1204 l 707 1204 q 740 1195 728 1204 q 751 1168 751 1186 q 740 1142 751 1151 q 707 1132 728 1132 l 371 1132 z "},"H":{"ha":1047,"x_min":126,"x_max":921,"o":"m 878 986 q 910 974 899 986 q 921 942 921 963 l 921 38 q 910 5 921 17 q 878 -7 899 -7 q 847 6 858 -7 q 836 38 836 18 l 836 460 l 211 460 l 211 38 q 200 6 211 18 q 169 -7 189 -7 q 138 6 150 -7 q 126 38 126 18 l 126 942 q 138 974 126 961 q 169 986 150 986 q 200 974 189 986 q 211 942 211 961 l 211 535 l 836 535 l 836 942 q 847 974 836 961 q 878 986 858 986 z "},"Ħ":{"ha":1072,"x_min":0,"x_max":1072,"o":"m 1035 799 q 1063 789 1053 799 q 1072 763 1072 779 q 1063 737 1072 746 q 1035 728 1053 728 l 933 728 l 933 38 q 922 6 933 18 q 890 -7 910 -7 q 859 6 871 -7 q 847 38 847 18 l 847 460 l 224 460 l 224 38 q 212 6 224 18 q 182 -7 200 -7 q 151 6 163 -7 q 139 38 139 18 l 139 728 l 39 728 q 11 737 22 728 q 0 763 0 746 q 11 789 0 779 q 39 799 22 799 l 139 799 l 139 942 q 151 974 139 961 q 182 986 163 986 q 212 974 200 986 q 224 942 224 961 l 224 799 l 847 799 l 847 942 q 859 974 847 961 q 890 986 871 986 q 922 974 910 986 q 933 942 933 961 l 933 799 l 1035 799 m 847 728 l 224 728 l 224 535 l 847 535 l 847 728 z "},"Ḫ":{"ha":1047,"x_min":126,"x_max":921,"o":"m 878 986 q 910 974 899 986 q 921 942 921 963 l 921 38 q 910 5 921 17 q 878 -7 899 -7 q 847 6 858 -7 q 836 38 836 18 l 836 460 l 211 460 l 211 38 q 200 6 211 18 q 169 -7 189 -7 q 138 6 150 -7 q 126 38 126 18 l 126 942 q 138 974 126 961 q 169 986 150 986 q 200 974 189 986 q 211 942 211 961 l 211 535 l 836 535 l 836 942 q 847 974 836 961 q 878 986 858 986 m 525 -287 q 401 -253 456 -287 q 317 -151 346 -218 q 313 -131 313 -142 q 323 -106 313 -115 q 347 -96 333 -96 q 386 -124 372 -96 q 525 -215 431 -215 q 664 -124 619 -215 q 703 -96 678 -96 q 727 -106 717 -96 q 738 -132 738 -115 q 733 -151 738 -142 q 651 -252 707 -217 q 525 -287 594 -287 z "},"Ĥ":{"ha":1047,"x_min":126,"x_max":921,"o":"m 878 986 q 910 974 899 986 q 921 942 921 963 l 921 38 q 910 5 921 17 q 878 -7 899 -7 q 847 6 858 -7 q 836 38 836 18 l 836 460 l 211 460 l 211 38 q 200 6 211 18 q 169 -7 189 -7 q 138 6 150 -7 q 126 38 126 18 l 126 942 q 138 974 126 961 q 169 986 150 986 q 200 974 189 986 q 211 942 211 961 l 211 535 l 836 535 l 836 942 q 847 974 836 961 q 878 986 858 986 m 401 1068 q 374 1054 389 1054 q 349 1065 360 1054 q 339 1090 339 1075 q 351 1119 339 1106 l 479 1257 q 524 1278 499 1278 q 568 1257 547 1278 l 696 1119 q 708 1090 708 1107 q 698 1066 708 1076 q 674 1056 688 1056 q 646 1068 657 1056 l 524 1210 l 401 1068 z "},"Ḥ":{"ha":1047,"x_min":126,"x_max":921,"o":"m 878 986 q 910 974 899 986 q 921 942 921 963 l 921 38 q 910 5 921 17 q 878 -7 899 -7 q 847 6 858 -7 q 836 38 836 18 l 836 460 l 211 460 l 211 38 q 200 6 211 18 q 169 -7 189 -7 q 138 6 150 -7 q 126 38 126 18 l 126 942 q 138 974 126 961 q 169 986 150 986 q 200 974 189 986 q 211 942 211 961 l 211 535 l 836 535 l 836 942 q 847 974 836 961 q 878 986 858 986 m 525 -254 q 481 -237 499 -254 q 464 -193 464 -221 q 481 -150 464 -167 q 525 -133 499 -133 q 569 -150 551 -133 q 586 -193 586 -167 q 569 -237 586 -221 q 525 -254 551 -254 z "},"I":{"ha":339,"x_min":126,"x_max":213,"o":"m 169 -7 q 138 6 150 -7 q 126 38 126 18 l 126 942 q 138 974 126 961 q 169 986 150 986 q 201 974 189 986 q 213 942 213 961 l 213 38 q 201 6 213 18 q 169 -7 189 -7 z "},"Í":{"ha":339,"x_min":126,"x_max":381,"o":"m 169 -7 q 138 6 150 -7 q 126 38 126 18 l 126 942 q 138 974 126 961 q 169 986 150 986 q 201 974 189 986 q 213 942 213 961 l 213 38 q 201 6 213 18 q 169 -7 189 -7 m 186 1061 q 169 1056 179 1056 q 152 1063 160 1056 q 144 1079 144 1069 q 153 1097 144 1089 l 296 1257 q 338 1278 315 1278 q 368 1266 356 1278 q 381 1236 381 1254 q 354 1193 381 1214 l 186 1061 z "},"Ĭ":{"ha":339,"x_min":-44,"x_max":383,"o":"m 169 -7 q 138 6 150 -7 q 126 38 126 18 l 126 942 q 138 974 126 961 q 169 986 150 986 q 201 974 189 986 q 213 942 213 961 l 213 38 q 201 6 213 18 q 169 -7 189 -7 m 169 1081 q 46 1111 100 1081 q -39 1203 -8 1142 q -44 1224 -44 1214 q -35 1247 -44 1238 q -11 1256 -25 1256 q 26 1232 13 1256 q 87 1169 53 1188 q 169 1150 121 1150 q 252 1169 218 1150 q 313 1232 286 1188 q 350 1256 326 1256 q 374 1247 364 1256 q 383 1224 383 1238 q 378 1203 383 1213 q 295 1111 350 1142 q 169 1081 240 1081 z "},"Î":{"ha":339,"x_min":-15,"x_max":354,"o":"m 169 -7 q 138 6 150 -7 q 126 38 126 18 l 126 942 q 138 974 126 961 q 169 986 150 986 q 201 974 189 986 q 213 942 213 961 l 213 38 q 201 6 213 18 q 169 -7 189 -7 m 47 1068 q 19 1054 35 1054 q -5 1065 6 1054 q -15 1090 -15 1075 q -3 1119 -15 1106 l 125 1257 q 169 1278 144 1278 q 214 1257 193 1278 l 342 1119 q 354 1090 354 1107 q 344 1066 354 1076 q 319 1056 333 1056 q 292 1068 303 1056 l 169 1210 l 47 1068 z "},"Ȉ":{"ha":339,"x_min":-50,"x_max":269,"o":"m 169 -7 q 138 6 150 -7 q 126 38 126 18 l 126 942 q 138 974 126 961 q 169 986 150 986 q 201 974 189 986 q 213 942 213 961 l 213 38 q 201 6 213 18 q 169 -7 189 -7 m -36 1207 q -50 1243 -50 1225 q -40 1269 -50 1258 q -15 1279 -31 1279 q 7 1271 -4 1279 q 26 1247 18 1263 l 107 1088 q 110 1075 110 1083 q 104 1060 110 1065 q 90 1054 99 1054 q 71 1065 79 1054 l -36 1207 m 124 1207 q 110 1243 110 1225 q 119 1269 110 1258 q 144 1279 129 1279 q 167 1271 156 1279 q 186 1247 178 1263 l 267 1088 q 269 1075 269 1083 q 264 1060 269 1065 q 250 1054 258 1054 q 231 1065 239 1054 l 124 1207 z "},"Ï":{"ha":339,"x_min":-4,"x_max":343,"o":"m 169 -7 q 138 6 150 -7 q 126 38 126 18 l 126 942 q 138 974 126 961 q 169 986 150 986 q 201 974 189 986 q 213 942 213 961 l 213 38 q 201 6 213 18 q 169 -7 189 -7 m 54 1111 q 13 1127 29 1111 q -4 1168 -4 1143 q 13 1209 -4 1193 q 54 1225 29 1225 q 97 1209 79 1225 q 114 1168 114 1193 q 97 1127 114 1143 q 54 1111 79 1111 m 285 1111 q 242 1127 260 1111 q 225 1168 225 1143 q 242 1209 225 1193 q 285 1225 260 1225 q 326 1209 310 1225 q 343 1168 343 1193 q 326 1127 343 1143 q 285 1111 310 1111 z "},"Ḯ":{"ha":339,"x_min":-4,"x_max":381,"o":"m 169 -7 q 138 6 150 -7 q 126 38 126 18 l 126 942 q 138 974 126 961 q 169 986 150 986 q 201 974 189 986 q 213 942 213 961 l 213 38 q 201 6 213 18 q 169 -7 189 -7 m 54 1111 q 13 1127 29 1111 q -4 1168 -4 1143 q 13 1209 -4 1193 q 54 1225 29 1225 q 97 1209 79 1225 q 114 1168 114 1193 q 97 1127 114 1143 q 54 1111 79 1111 m 285 1111 q 242 1127 260 1111 q 225 1168 225 1143 q 242 1209 225 1193 q 285 1225 260 1225 q 326 1209 310 1225 q 343 1168 343 1193 q 326 1127 343 1143 q 285 1111 310 1111 m 186 1283 q 169 1278 179 1278 q 152 1285 160 1278 q 144 1301 144 1292 q 153 1319 144 1311 l 296 1479 q 338 1500 315 1500 q 368 1488 356 1500 q 381 1458 381 1476 q 354 1415 381 1436 l 186 1283 z "},"İ":{"ha":339,"x_min":107,"x_max":232,"o":"m 169 -7 q 138 6 150 -7 q 126 38 126 18 l 126 942 q 138 974 126 961 q 169 986 150 986 q 201 974 189 986 q 213 942 213 961 l 213 38 q 201 6 213 18 q 169 -7 189 -7 m 169 1108 q 124 1125 142 1108 q 107 1168 107 1142 q 124 1213 107 1196 q 169 1229 142 1229 q 215 1213 197 1229 q 232 1168 232 1196 q 215 1125 232 1142 q 169 1108 197 1108 z "},"Ị":{"ha":339,"x_min":108,"x_max":231,"o":"m 169 -7 q 138 6 150 -7 q 126 38 126 18 l 126 942 q 138 974 126 961 q 169 986 150 986 q 201 974 189 986 q 213 942 213 961 l 213 38 q 201 6 213 18 q 169 -7 189 -7 m 169 -254 q 126 -237 143 -254 q 108 -193 108 -221 q 126 -150 108 -167 q 169 -133 143 -133 q 213 -150 196 -133 q 231 -193 231 -167 q 213 -237 231 -221 q 169 -254 196 -254 z "},"Ì":{"ha":339,"x_min":-42,"x_max":213,"o":"m 169 -7 q 138 6 150 -7 q 126 38 126 18 l 126 942 q 138 974 126 961 q 169 986 150 986 q 201 974 189 986 q 213 942 213 961 l 213 38 q 201 6 213 18 q 169 -7 189 -7 m -15 1193 q -42 1238 -42 1214 q -29 1266 -42 1254 q 1 1278 -17 1278 q 43 1257 24 1278 l 186 1097 q 194 1079 194 1089 q 187 1063 194 1069 q 169 1056 179 1056 q 153 1061 160 1056 l -15 1193 z "},"Ỉ":{"ha":339,"x_min":60,"x_max":310,"o":"m 169 -7 q 138 6 150 -7 q 126 38 126 18 l 126 942 q 138 974 126 961 q 169 986 150 986 q 201 974 189 986 q 213 942 213 961 l 213 38 q 201 6 213 18 q 169 -7 189 -7 m 204 1079 q 194 1062 203 1068 q 174 1056 185 1056 q 149 1065 160 1056 q 139 1089 139 1074 q 153 1126 139 1113 q 194 1153 167 1139 q 223 1172 214 1164 q 232 1189 232 1179 q 216 1208 232 1201 q 172 1215 200 1215 q 100 1204 138 1215 q 89 1203 96 1203 q 67 1211 75 1203 q 60 1231 60 1219 q 82 1261 60 1251 q 174 1278 124 1278 q 274 1253 238 1278 q 310 1189 310 1229 q 294 1147 310 1161 q 249 1118 278 1132 q 217 1101 228 1110 q 204 1079 206 1092 z "},"Ȋ":{"ha":339,"x_min":-44,"x_max":383,"o":"m 169 -7 q 138 6 150 -7 q 126 38 126 18 l 126 942 q 138 974 126 961 q 169 986 150 986 q 201 974 189 986 q 213 942 213 961 l 213 38 q 201 6 213 18 q 169 -7 189 -7 m 26 1104 q -12 1081 13 1081 q -35 1089 -25 1081 q -44 1111 -44 1097 q -39 1133 -44 1122 q 44 1224 -11 1193 q 169 1256 100 1256 q 293 1224 239 1256 q 378 1133 347 1193 q 383 1111 383 1122 q 374 1089 383 1097 q 351 1081 364 1081 q 313 1104 326 1081 q 251 1167 286 1147 q 169 1186 217 1186 q 88 1167 122 1186 q 26 1104 53 1147 z "},"Ī":{"ha":339,"x_min":-43,"x_max":382,"o":"m 169 -7 q 138 6 150 -7 q 126 38 126 18 l 126 942 q 138 974 126 961 q 169 986 150 986 q 201 974 189 986 q 213 942 213 961 l 213 38 q 201 6 213 18 q 169 -7 189 -7 m 1 1132 q -31 1142 -19 1132 q -43 1168 -43 1151 q -31 1195 -43 1186 q 1 1204 -19 1204 l 338 1204 q 370 1195 358 1204 q 382 1168 382 1186 q 370 1142 382 1151 q 338 1132 358 1132 l 1 1132 z "},"Į":{"ha":339,"x_min":6,"x_max":281,"o":"m 239 -185 q 256 -181 250 -181 q 274 -189 267 -181 q 281 -208 281 -197 q 261 -242 281 -232 q 164 -265 219 -265 q 49 -225 93 -265 q 6 -122 6 -185 q 37 -27 6 -69 q 126 38 68 15 l 126 942 q 138 974 126 961 q 169 986 150 986 q 201 974 189 986 q 213 942 213 961 l 213 38 q 204 12 213 22 q 183 -1 196 1 q 106 -40 132 -11 q 79 -112 79 -69 q 104 -179 79 -156 q 172 -203 129 -203 q 239 -185 203 -203 z "},"Ĩ":{"ha":339,"x_min":-44,"x_max":383,"o":"m 169 -7 q 138 6 150 -7 q 126 38 126 18 l 126 942 q 138 974 126 961 q 169 986 150 986 q 201 974 189 986 q 213 942 213 961 l 213 38 q 201 6 213 18 q 169 -7 189 -7 m 265 1101 q 217 1110 242 1101 q 154 1136 192 1119 q 131 1147 150 1139 q 98 1160 113 1156 q 74 1164 83 1164 q 35 1153 49 1164 q 8 1125 21 1143 q -4 1110 3 1117 q -18 1104 -11 1104 q -37 1113 -29 1104 q -44 1133 -44 1121 q -30 1180 -44 1156 q 12 1220 -15 1204 q 74 1236 39 1236 q 122 1227 97 1236 q 185 1201 147 1218 q 208 1190 189 1199 q 241 1178 226 1182 q 265 1174 256 1174 q 306 1185 292 1174 q 331 1214 319 1196 q 343 1228 336 1222 q 357 1235 350 1235 q 376 1226 368 1235 q 383 1206 383 1217 q 369 1159 383 1183 q 327 1118 354 1135 q 265 1101 300 1101 z "},"J":{"ha":432,"x_min":-12,"x_max":306,"o":"m 40 -7 q 1 1 14 -8 q -12 29 -12 11 q 28 65 -12 64 l 68 68 q 183 116 146 74 q 219 256 219 158 l 219 942 q 233 974 219 961 q 263 986 246 986 q 294 974 283 986 q 306 942 306 963 l 306 253 q 251 65 306 126 q 82 -4 196 3 l 40 -7 z "},"Ĵ":{"ha":432,"x_min":-12,"x_max":447,"o":"m 40 -7 q 1 1 14 -8 q -12 29 -12 11 q 28 65 -12 64 l 68 68 q 183 116 146 74 q 219 256 219 158 l 219 942 q 233 974 219 961 q 263 986 246 986 q 294 974 283 986 q 306 942 306 963 l 306 253 q 251 65 306 126 q 82 -4 196 3 l 40 -7 m 140 1068 q 113 1054 128 1054 q 88 1065 99 1054 q 78 1090 78 1075 q 90 1119 78 1106 l 218 1257 q 263 1278 238 1278 q 307 1257 286 1278 l 435 1119 q 447 1090 447 1107 q 437 1066 447 1076 q 413 1056 426 1056 q 385 1068 396 1056 l 263 1210 l 140 1068 z "},"K":{"ha":851,"x_min":126,"x_max":822,"o":"m 807 64 q 822 33 822 50 q 810 6 822 18 q 783 -6 799 -6 q 757 6 771 -6 l 213 468 l 213 38 q 201 6 213 18 q 169 -7 189 -7 q 138 6 150 -7 q 126 38 126 18 l 126 942 q 138 974 126 961 q 169 986 150 986 q 201 974 189 986 q 213 942 213 961 l 213 524 l 729 974 q 756 985 740 985 q 783 973 771 985 q 796 946 796 961 q 781 915 796 929 l 297 500 l 807 64 z "},"Ķ":{"ha":851,"x_min":126,"x_max":822,"o":"m 807 64 q 822 33 822 50 q 810 6 822 18 q 783 -6 799 -6 q 757 6 771 -6 l 213 468 l 213 38 q 201 6 213 18 q 169 -7 189 -7 q 138 6 150 -7 q 126 38 126 18 l 126 942 q 138 974 126 961 q 169 986 150 986 q 201 974 189 986 q 213 942 213 961 l 213 524 l 729 974 q 756 985 740 985 q 783 973 771 985 q 796 946 796 961 q 781 915 796 929 l 297 500 l 807 64 m 429 -96 q 497 -182 497 -96 q 438 -336 497 -271 q 407 -351 422 -351 q 388 -344 396 -351 q 381 -326 381 -337 q 390 -304 381 -315 q 433 -212 429 -258 q 388 -197 406 -212 q 371 -153 371 -181 q 388 -112 371 -128 q 429 -96 404 -96 z "},"L":{"ha":740,"x_min":126,"x_max":726,"o":"m 171 0 q 140 11 153 0 q 126 39 126 22 l 126 942 q 138 974 126 961 q 169 986 150 986 q 201 974 190 986 q 213 942 213 963 l 213 75 l 688 75 q 716 65 706 75 q 726 38 726 56 q 716 10 726 19 q 688 0 706 0 l 171 0 z "},"Ǉ":{"ha":1171,"x_min":126,"x_max":1043,"o":"m 171 0 q 140 11 153 0 q 126 39 126 22 l 126 942 q 138 974 126 961 q 169 986 150 986 q 201 974 190 986 q 213 942 213 963 l 213 75 l 646 75 q 674 65 664 75 q 685 38 685 56 q 674 10 685 19 q 646 0 664 0 l 171 0 m 778 -7 q 739 1 753 -8 q 725 29 725 11 q 735 54 725 44 q 767 65 746 64 l 807 68 q 922 116 885 74 q 958 256 958 158 l 958 942 q 971 974 958 961 q 1001 986 983 986 q 1033 974 1022 986 q 1043 942 1043 963 l 1043 253 q 988 65 1043 126 q 821 -4 933 3 l 778 -7 z "},"Ĺ":{"ha":740,"x_min":126,"x_max":726,"o":"m 171 0 q 140 11 153 0 q 126 39 126 22 l 126 942 q 138 974 126 961 q 169 986 150 986 q 201 974 190 986 q 213 942 213 963 l 213 75 l 688 75 q 716 65 706 75 q 726 38 726 56 q 716 10 726 19 q 688 0 706 0 l 171 0 m 186 1061 q 169 1056 179 1056 q 152 1063 160 1056 q 144 1079 144 1069 q 153 1097 144 1089 l 296 1257 q 338 1278 315 1278 q 368 1266 356 1278 q 381 1236 381 1254 q 354 1193 381 1214 l 186 1061 z "},"Ľ":{"ha":740,"x_min":126,"x_max":726,"o":"m 171 0 q 140 11 153 0 q 126 39 126 22 l 126 942 q 138 974 126 961 q 169 986 150 986 q 201 974 190 986 q 213 942 213 963 l 213 75 l 688 75 q 716 65 706 75 q 726 38 726 56 q 716 10 726 19 q 688 0 706 0 l 171 0 m 381 732 q 372 715 379 721 q 356 710 364 710 q 336 717 344 710 q 328 736 328 724 l 328 940 q 340 975 328 963 q 369 988 353 988 q 402 972 389 988 q 411 932 415 957 l 381 732 z "},"Ļ":{"ha":740,"x_min":126,"x_max":726,"o":"m 171 0 q 140 11 153 0 q 126 39 126 22 l 126 942 q 138 974 126 961 q 169 986 150 986 q 201 974 190 986 q 213 942 213 963 l 213 75 l 688 75 q 716 65 706 75 q 726 38 726 56 q 716 10 726 19 q 688 0 706 0 l 171 0 m 426 -96 q 494 -182 494 -96 q 435 -336 494 -271 q 404 -351 419 -351 q 385 -344 393 -351 q 378 -326 378 -337 q 388 -304 378 -315 q 431 -212 426 -258 q 385 -197 403 -212 q 368 -153 368 -181 q 385 -112 368 -128 q 426 -96 401 -96 z "},"Ŀ":{"ha":740,"x_min":126,"x_max":726,"o":"m 171 0 q 140 11 153 0 q 126 39 126 22 l 126 942 q 138 974 126 961 q 169 986 150 986 q 201 974 190 986 q 213 942 213 963 l 213 75 l 688 75 q 716 65 706 75 q 726 38 726 56 q 716 10 726 19 q 688 0 706 0 l 171 0 m 469 431 q 424 447 442 431 q 407 490 407 464 q 424 535 407 518 q 469 551 442 551 q 515 535 497 551 q 532 490 532 518 q 515 447 532 464 q 469 431 497 431 z "},"Ḷ":{"ha":740,"x_min":126,"x_max":726,"o":"m 171 0 q 140 11 153 0 q 126 39 126 22 l 126 942 q 138 974 126 961 q 169 986 150 986 q 201 974 190 986 q 213 942 213 963 l 213 75 l 688 75 q 716 65 706 75 q 726 38 726 56 q 716 10 726 19 q 688 0 706 0 l 171 0 m 426 -254 q 383 -237 400 -254 q 365 -193 365 -221 q 383 -150 365 -167 q 426 -133 400 -133 q 470 -150 453 -133 q 488 -193 488 -167 q 470 -237 488 -221 q 426 -254 453 -254 z "},"ǈ":{"ha":1049,"x_min":126,"x_max":957,"o":"m 171 0 q 140 11 153 0 q 126 39 126 22 l 126 942 q 138 974 126 961 q 169 986 150 986 q 201 974 190 986 q 213 942 213 963 l 213 75 l 688 75 q 716 65 706 75 q 726 38 726 56 q 716 10 726 19 q 688 0 706 0 l 171 0 m 692 -253 q 638 -219 638 -257 q 678 -183 638 -187 l 715 -181 q 818 -140 785 -176 q 851 -17 851 -103 l 851 644 q 863 676 851 665 q 894 688 875 688 q 925 676 914 688 q 936 644 936 665 l 936 -12 q 886 -187 936 -131 q 729 -250 836 -243 l 692 -253 m 894 844 q 849 861 867 844 q 832 904 832 878 q 849 949 832 932 q 894 965 867 965 q 940 949 922 965 q 957 904 957 932 q 940 861 957 878 q 894 844 922 844 z "},"Ḻ":{"ha":740,"x_min":126,"x_max":726,"o":"m 171 0 q 140 11 153 0 q 126 39 126 22 l 126 942 q 138 974 126 961 q 169 986 150 986 q 201 974 190 986 q 213 942 213 963 l 213 75 l 688 75 q 716 65 706 75 q 726 38 726 56 q 716 10 726 19 q 688 0 706 0 l 171 0 m 258 -229 q 226 -219 238 -229 q 214 -194 214 -210 q 226 -167 214 -176 q 258 -158 238 -158 l 594 -158 q 627 -167 615 -158 q 639 -194 639 -176 q 627 -219 639 -210 q 594 -229 615 -229 l 258 -229 z "},"Ł":{"ha":753,"x_min":0,"x_max":738,"o":"m 700 75 q 727 65 717 75 q 738 38 738 56 q 727 10 738 19 q 700 0 717 0 l 182 0 q 152 11 165 0 q 139 39 139 22 l 139 429 l 57 382 q 35 375 46 375 q 10 386 19 375 q 0 413 0 397 q 21 446 0 435 l 139 514 l 139 942 q 150 974 139 963 q 182 986 161 986 q 213 974 203 986 q 224 942 224 963 l 224 563 l 440 686 q 460 692 450 692 q 485 681 474 692 q 496 656 496 669 q 476 625 496 636 l 224 479 l 224 75 l 700 75 z "},"M":{"ha":1167,"x_min":126,"x_max":1040,"o":"m 996 986 q 1028 974 1017 986 q 1040 942 1040 961 l 1040 38 q 1029 6 1040 18 q 999 -7 1018 -7 q 969 5 979 -7 q 960 38 960 17 l 960 808 l 631 172 q 585 140 614 140 q 539 172 556 140 l 207 803 l 207 38 q 197 5 207 17 q 168 -7 188 -7 q 137 5 147 -7 q 126 38 126 17 l 126 942 q 138 974 126 961 q 171 986 150 986 q 213 954 196 986 l 586 238 l 954 954 q 996 986 971 986 z "},"Ṃ":{"ha":1167,"x_min":126,"x_max":1040,"o":"m 996 986 q 1028 974 1017 986 q 1040 942 1040 961 l 1040 38 q 1029 6 1040 18 q 999 -7 1018 -7 q 969 5 979 -7 q 960 38 960 17 l 960 808 l 631 172 q 585 140 614 140 q 539 172 556 140 l 207 803 l 207 38 q 197 5 207 17 q 168 -7 188 -7 q 137 5 147 -7 q 126 38 126 17 l 126 942 q 138 974 126 961 q 171 986 150 986 q 213 954 196 986 l 586 238 l 954 954 q 996 986 971 986 m 583 -254 q 540 -237 557 -254 q 522 -193 522 -221 q 540 -150 522 -167 q 583 -133 557 -133 q 627 -150 610 -133 q 644 -193 644 -167 q 627 -237 644 -221 q 583 -254 610 -254 z "},"N":{"ha":1021,"x_min":126,"x_max":894,"o":"m 854 986 q 884 974 874 986 q 894 942 894 963 l 894 38 q 883 6 894 18 q 853 -7 872 -7 q 815 14 832 -7 l 207 835 l 207 38 q 196 6 207 18 q 167 -7 185 -7 q 136 5 146 -7 q 126 38 126 17 l 126 942 q 138 974 126 961 q 171 986 150 986 q 207 965 193 986 l 814 146 l 814 942 q 825 974 814 961 q 854 986 836 986 z "},"Ǌ":{"ha":1453,"x_min":126,"x_max":1326,"o":"m 854 986 q 884 974 874 986 q 894 942 894 963 l 894 38 q 883 6 894 18 q 853 -7 872 -7 q 815 14 832 -7 l 207 835 l 207 38 q 196 6 207 18 q 167 -7 185 -7 q 136 5 146 -7 q 126 38 126 17 l 126 942 q 138 974 126 961 q 171 986 150 986 q 207 965 193 986 l 814 146 l 814 942 q 825 974 814 961 q 854 986 836 986 m 1061 -7 q 1022 1 1035 -8 q 1008 29 1008 11 q 1049 65 1008 64 l 1089 68 q 1203 116 1167 74 q 1240 256 1240 158 l 1240 942 q 1253 974 1240 961 q 1283 986 1267 986 q 1315 974 1304 986 q 1326 942 1326 963 l 1326 253 q 1272 65 1326 126 q 1103 -4 1217 3 l 1061 -7 z "},"Ń":{"ha":1021,"x_min":126,"x_max":894,"o":"m 854 986 q 884 974 874 986 q 894 942 894 963 l 894 38 q 883 6 894 18 q 853 -7 872 -7 q 815 14 832 -7 l 207 835 l 207 38 q 196 6 207 18 q 167 -7 185 -7 q 136 5 146 -7 q 126 38 126 17 l 126 942 q 138 974 126 961 q 171 986 150 986 q 207 965 193 986 l 814 146 l 814 942 q 825 974 814 961 q 854 986 836 986 m 528 1061 q 511 1056 521 1056 q 494 1063 501 1056 q 486 1079 486 1069 q 494 1097 486 1089 l 638 1257 q 679 1278 657 1278 q 710 1266 697 1278 q 722 1236 722 1254 q 696 1193 722 1214 l 528 1061 z "},"Ň":{"ha":1021,"x_min":126,"x_max":894,"o":"m 854 986 q 884 974 874 986 q 894 942 894 963 l 894 38 q 883 6 894 18 q 853 -7 872 -7 q 815 14 832 -7 l 207 835 l 207 38 q 196 6 207 18 q 167 -7 185 -7 q 136 5 146 -7 q 126 38 126 17 l 126 942 q 138 974 126 961 q 171 986 150 986 q 207 965 193 986 l 814 146 l 814 942 q 825 974 814 961 q 854 986 836 986 m 511 1056 q 467 1076 488 1056 l 339 1214 q 326 1243 326 1226 q 337 1267 326 1257 q 361 1278 347 1278 q 389 1265 378 1278 l 511 1125 l 633 1265 q 661 1279 646 1279 q 685 1269 675 1279 q 696 1243 696 1258 q 683 1214 696 1229 l 556 1076 q 511 1056 536 1056 z "},"Ņ":{"ha":1021,"x_min":126,"x_max":894,"o":"m 854 986 q 884 974 874 986 q 894 942 894 963 l 894 38 q 883 6 894 18 q 853 -7 872 -7 q 815 14 832 -7 l 207 835 l 207 38 q 196 6 207 18 q 167 -7 185 -7 q 136 5 146 -7 q 126 38 126 17 l 126 942 q 138 974 126 961 q 171 986 150 986 q 207 965 193 986 l 814 146 l 814 942 q 825 974 814 961 q 854 986 836 986 m 511 -96 q 579 -182 579 -96 q 519 -336 579 -271 q 489 -351 504 -351 q 470 -344 478 -351 q 463 -326 463 -337 q 472 -304 463 -315 q 515 -212 511 -258 q 470 -197 488 -212 q 453 -153 453 -181 q 469 -112 453 -128 q 511 -96 486 -96 z "},"Ṅ":{"ha":1021,"x_min":126,"x_max":894,"o":"m 854 986 q 884 974 874 986 q 894 942 894 963 l 894 38 q 883 6 894 18 q 853 -7 872 -7 q 815 14 832 -7 l 207 835 l 207 38 q 196 6 207 18 q 167 -7 185 -7 q 136 5 146 -7 q 126 38 126 17 l 126 942 q 138 974 126 961 q 171 986 150 986 q 207 965 193 986 l 814 146 l 814 942 q 825 974 814 961 q 854 986 836 986 m 511 1108 q 466 1125 483 1108 q 449 1168 449 1142 q 466 1213 449 1196 q 511 1229 483 1229 q 556 1213 539 1229 q 574 1168 574 1196 q 556 1125 574 1142 q 511 1108 539 1108 z "},"Ṇ":{"ha":1021,"x_min":126,"x_max":894,"o":"m 854 986 q 884 974 874 986 q 894 942 894 963 l 894 38 q 883 6 894 18 q 853 -7 872 -7 q 815 14 832 -7 l 207 835 l 207 38 q 196 6 207 18 q 167 -7 185 -7 q 136 5 146 -7 q 126 38 126 17 l 126 942 q 138 974 126 961 q 171 986 150 986 q 207 965 193 986 l 814 146 l 814 942 q 825 974 814 961 q 854 986 836 986 m 511 -254 q 467 -237 485 -254 q 450 -193 450 -221 q 467 -150 450 -167 q 511 -133 485 -133 q 555 -150 538 -133 q 572 -193 572 -167 q 555 -237 572 -221 q 511 -254 538 -254 z "},"Ŋ":{"ha":1021,"x_min":126,"x_max":894,"o":"m 854 986 q 884 974 874 986 q 894 942 894 963 l 894 3 q 840 -185 894 -124 q 671 -254 785 -247 l 629 -257 q 590 -249 603 -258 q 576 -221 576 -239 q 587 -197 576 -207 q 617 -185 597 -186 l 657 -182 q 775 -134 736 -176 q 814 4 814 -92 l 814 17 l 207 835 l 207 38 q 196 6 207 18 q 167 -7 185 -7 q 136 5 146 -7 q 126 38 126 17 l 126 942 q 138 974 126 961 q 171 986 150 986 q 207 965 194 986 l 814 146 l 814 942 q 825 974 814 961 q 854 986 836 986 z "},"ǋ":{"ha":1329,"x_min":126,"x_max":1238,"o":"m 854 986 q 884 974 874 986 q 894 942 894 963 l 894 38 q 883 6 894 18 q 853 -7 872 -7 q 815 14 832 -7 l 207 835 l 207 38 q 196 6 207 18 q 167 -7 185 -7 q 136 5 146 -7 q 126 38 126 17 l 126 942 q 138 974 126 961 q 171 986 150 986 q 207 965 193 986 l 814 146 l 814 942 q 825 974 814 961 q 854 986 836 986 m 972 -253 q 918 -219 918 -257 q 958 -183 918 -187 l 996 -181 q 1099 -140 1065 -176 q 1132 -17 1132 -103 l 1132 644 q 1144 676 1132 665 q 1175 688 1156 688 q 1206 676 1194 688 q 1217 644 1217 665 l 1217 -12 q 1167 -187 1217 -131 q 1010 -250 1117 -243 l 972 -253 m 1175 844 q 1130 861 1147 844 q 1113 904 1113 878 q 1130 949 1113 932 q 1175 965 1147 965 q 1220 949 1203 965 q 1238 904 1238 932 q 1220 861 1238 878 q 1175 844 1203 844 z "},"Ṉ":{"ha":1021,"x_min":126,"x_max":894,"o":"m 854 986 q 884 974 874 986 q 894 942 894 963 l 894 38 q 883 6 894 18 q 853 -7 872 -7 q 815 14 832 -7 l 207 835 l 207 38 q 196 6 207 18 q 167 -7 185 -7 q 136 5 146 -7 q 126 38 126 17 l 126 942 q 138 974 126 961 q 171 986 150 986 q 207 965 193 986 l 814 146 l 814 942 q 825 974 814 961 q 854 986 836 986 m 343 -229 q 310 -219 322 -229 q 299 -194 299 -210 q 310 -167 299 -176 q 343 -158 322 -158 l 679 -158 q 712 -167 700 -158 q 724 -194 724 -176 q 712 -219 724 -210 q 679 -229 700 -229 l 343 -229 z "},"Ñ":{"ha":1021,"x_min":126,"x_max":894,"o":"m 854 986 q 884 974 874 986 q 894 942 894 963 l 894 38 q 883 6 894 18 q 853 -7 872 -7 q 815 14 832 -7 l 207 835 l 207 38 q 196 6 207 18 q 167 -7 185 -7 q 136 5 146 -7 q 126 38 126 17 l 126 942 q 138 974 126 961 q 171 986 150 986 q 207 965 193 986 l 814 146 l 814 942 q 825 974 814 961 q 854 986 836 986 m 607 1101 q 558 1110 583 1101 q 496 1136 533 1119 q 473 1147 492 1139 q 440 1160 454 1156 q 415 1164 425 1164 q 376 1153 390 1164 q 350 1125 363 1143 q 338 1110 344 1117 q 324 1104 331 1104 q 305 1113 313 1104 q 297 1133 297 1121 q 312 1180 297 1156 q 353 1220 326 1204 q 415 1236 381 1236 q 464 1227 439 1236 q 526 1201 489 1218 q 549 1190 531 1199 q 583 1178 568 1182 q 607 1174 597 1174 q 647 1185 633 1174 q 672 1214 661 1196 q 685 1228 678 1222 q 699 1235 692 1235 q 717 1226 710 1235 q 725 1206 725 1217 q 710 1159 725 1183 q 669 1118 696 1135 q 607 1101 642 1101 z "},"O":{"ha":1051,"x_min":89,"x_max":963,"o":"m 525 -11 q 293 49 392 -11 q 142 223 194 110 q 89 489 89 336 q 142 756 89 643 q 292 930 194 869 q 525 990 390 990 q 758 930 660 990 q 910 757 857 869 q 963 490 963 644 q 910 223 963 336 q 758 49 857 110 q 525 -11 660 -11 m 525 65 q 782 176 690 65 q 874 490 874 288 q 783 803 874 693 q 525 914 692 914 q 269 803 360 914 q 178 490 178 692 q 269 177 178 289 q 525 65 360 65 z "},"Ó":{"ha":1051,"x_min":89,"x_max":963,"o":"m 525 -11 q 293 49 392 -11 q 142 223 194 110 q 89 489 89 336 q 142 756 89 643 q 292 930 194 869 q 525 990 390 990 q 758 930 660 990 q 910 757 857 869 q 963 490 963 644 q 910 223 963 336 q 758 49 857 110 q 525 -11 660 -11 m 525 65 q 782 176 690 65 q 874 490 874 288 q 783 803 874 693 q 525 914 692 914 q 269 803 360 914 q 178 490 178 692 q 269 177 178 289 q 525 65 360 65 m 542 1061 q 525 1056 535 1056 q 508 1063 515 1056 q 500 1079 500 1069 q 508 1097 500 1089 l 651 1257 q 693 1278 671 1278 q 724 1266 711 1278 q 736 1236 736 1254 q 710 1193 736 1214 l 542 1061 z "},"Ŏ":{"ha":1051,"x_min":89,"x_max":963,"o":"m 525 -11 q 293 49 392 -11 q 142 223 194 110 q 89 489 89 336 q 142 756 89 643 q 292 930 194 869 q 525 990 390 990 q 758 930 660 990 q 910 757 857 869 q 963 490 963 644 q 910 223 963 336 q 758 49 857 110 q 525 -11 660 -11 m 525 65 q 782 176 690 65 q 874 490 874 288 q 783 803 874 693 q 525 914 692 914 q 269 803 360 914 q 178 490 178 692 q 269 177 178 289 q 525 65 360 65 m 525 1081 q 401 1111 456 1081 q 317 1203 347 1142 q 311 1224 311 1214 q 321 1247 311 1238 q 344 1256 331 1256 q 382 1232 368 1256 q 442 1169 408 1188 q 525 1150 476 1150 q 608 1169 574 1150 q 668 1232 642 1188 q 706 1256 682 1256 q 729 1247 719 1256 q 739 1224 739 1238 q 733 1203 739 1213 q 651 1111 706 1142 q 525 1081 596 1081 z "},"Ô":{"ha":1051,"x_min":89,"x_max":963,"o":"m 525 -11 q 293 49 392 -11 q 142 223 194 110 q 89 489 89 336 q 142 756 89 643 q 292 930 194 869 q 525 990 390 990 q 758 930 660 990 q 910 757 857 869 q 963 490 963 644 q 910 223 963 336 q 758 49 857 110 q 525 -11 660 -11 m 525 65 q 782 176 690 65 q 874 490 874 288 q 783 803 874 693 q 525 914 692 914 q 269 803 360 914 q 178 490 178 692 q 269 177 178 289 q 525 65 360 65 m 403 1068 q 375 1054 390 1054 q 351 1065 361 1054 q 340 1090 340 1075 q 353 1119 340 1106 l 481 1257 q 525 1278 500 1278 q 569 1257 549 1278 l 697 1119 q 710 1090 710 1107 q 699 1066 710 1076 q 675 1056 689 1056 q 647 1068 658 1056 l 525 1210 l 403 1068 z "},"Ố":{"ha":1051,"x_min":89,"x_max":963,"o":"m 525 -11 q 293 49 392 -11 q 142 223 194 110 q 89 489 89 336 q 142 756 89 643 q 292 930 194 869 q 525 990 390 990 q 758 930 660 990 q 910 757 857 869 q 963 490 963 644 q 910 223 963 336 q 758 49 857 110 q 525 -11 660 -11 m 525 65 q 782 176 690 65 q 874 490 874 288 q 783 803 874 693 q 525 914 692 914 q 269 803 360 914 q 178 490 178 692 q 269 177 178 289 q 525 65 360 65 m 692 1203 q 676 1197 685 1197 q 657 1205 665 1197 q 649 1222 649 1213 q 656 1239 649 1229 l 768 1385 q 810 1408 786 1408 q 839 1397 826 1408 q 851 1368 851 1385 q 828 1325 851 1344 l 692 1203 m 401 1068 q 375 1056 389 1056 q 349 1067 360 1056 q 339 1092 339 1078 q 353 1121 339 1107 l 481 1256 q 525 1276 500 1276 q 569 1256 549 1276 l 697 1121 q 711 1092 711 1107 q 700 1067 711 1078 q 675 1056 689 1056 q 649 1068 661 1056 l 525 1208 l 401 1068 z "},"Ộ":{"ha":1051,"x_min":89,"x_max":963,"o":"m 525 -11 q 293 49 392 -11 q 142 223 194 110 q 89 489 89 336 q 142 756 89 643 q 292 930 194 869 q 525 990 390 990 q 758 930 660 990 q 910 757 857 869 q 963 490 963 644 q 910 223 963 336 q 758 49 857 110 q 525 -11 660 -11 m 525 65 q 782 176 690 65 q 874 490 874 288 q 783 803 874 693 q 525 914 692 914 q 269 803 360 914 q 178 490 178 692 q 269 177 178 289 q 525 65 360 65 m 525 -254 q 481 -237 499 -254 q 464 -193 464 -221 q 481 -150 464 -167 q 525 -133 499 -133 q 569 -150 551 -133 q 586 -193 586 -167 q 569 -237 586 -221 q 525 -254 551 -254 m 403 1068 q 375 1054 390 1054 q 351 1065 361 1054 q 340 1090 340 1075 q 353 1119 340 1106 l 481 1257 q 525 1278 500 1278 q 569 1257 549 1278 l 697 1119 q 710 1090 710 1107 q 699 1066 710 1076 q 675 1056 689 1056 q 647 1068 658 1056 l 525 1210 l 403 1068 z "},"Ồ":{"ha":1051,"x_min":89,"x_max":963,"o":"m 525 -11 q 293 49 392 -11 q 142 223 194 110 q 89 489 89 336 q 142 756 89 643 q 292 930 194 869 q 525 990 390 990 q 758 930 660 990 q 910 757 857 869 q 963 490 963 644 q 910 223 963 336 q 758 49 857 110 q 525 -11 660 -11 m 525 65 q 782 176 690 65 q 874 490 874 288 q 783 803 874 693 q 525 914 692 914 q 269 803 360 914 q 178 490 178 692 q 269 177 178 289 q 525 65 360 65 m 563 1325 q 539 1368 539 1344 q 551 1397 539 1385 q 581 1408 564 1408 q 624 1385 606 1408 l 736 1238 q 743 1221 743 1228 q 735 1204 743 1211 q 717 1197 728 1197 q 699 1204 708 1197 l 563 1325 m 401 1068 q 375 1056 389 1056 q 349 1067 360 1056 q 339 1092 339 1078 q 353 1121 339 1107 l 481 1256 q 525 1276 500 1276 q 569 1256 549 1276 l 697 1121 q 711 1092 711 1107 q 700 1067 711 1078 q 675 1056 689 1056 q 649 1068 661 1056 l 525 1208 l 401 1068 z "},"Ổ":{"ha":1051,"x_min":89,"x_max":963,"o":"m 525 -11 q 293 49 392 -11 q 142 223 194 110 q 89 489 89 336 q 142 756 89 643 q 292 930 194 869 q 525 990 390 990 q 758 930 660 990 q 910 757 857 869 q 963 490 963 644 q 910 223 963 336 q 758 49 857 110 q 525 -11 660 -11 m 525 65 q 782 176 690 65 q 874 490 874 288 q 783 803 874 693 q 525 914 692 914 q 269 803 360 914 q 178 490 178 692 q 269 177 178 289 q 525 65 360 65 m 701 1219 q 692 1202 700 1208 q 674 1196 683 1196 q 651 1205 660 1196 q 642 1231 642 1214 q 656 1263 642 1251 q 697 1289 669 1275 q 724 1305 715 1299 q 733 1319 733 1311 q 717 1338 733 1332 q 672 1344 700 1344 q 600 1335 639 1344 q 588 1333 596 1333 q 567 1341 575 1333 q 558 1360 558 1349 q 582 1390 558 1379 q 674 1407 624 1407 q 773 1383 736 1407 q 810 1322 810 1360 q 793 1281 810 1294 q 746 1254 776 1268 q 713 1238 724 1244 q 701 1219 703 1231 m 401 1068 q 375 1056 389 1056 q 349 1067 360 1056 q 339 1092 339 1078 q 353 1121 339 1107 l 481 1256 q 525 1276 500 1276 q 569 1256 549 1276 l 697 1121 q 711 1092 711 1107 q 700 1067 711 1078 q 675 1056 689 1056 q 649 1068 661 1056 l 525 1208 l 401 1068 z "},"Ỗ":{"ha":1051,"x_min":89,"x_max":963,"o":"m 525 -11 q 293 49 392 -11 q 142 223 194 110 q 89 489 89 336 q 142 756 89 643 q 292 930 194 869 q 525 990 390 990 q 758 930 660 990 q 910 757 857 869 q 963 490 963 644 q 910 223 963 336 q 758 49 857 110 q 525 -11 660 -11 m 525 65 q 782 176 690 65 q 874 490 874 288 q 783 803 874 693 q 525 914 692 914 q 269 803 360 914 q 178 490 178 692 q 269 177 178 289 q 525 65 360 65 m 621 1274 q 572 1283 597 1274 q 510 1308 547 1292 q 487 1319 506 1311 q 453 1332 468 1328 q 429 1336 439 1336 q 390 1326 404 1336 q 364 1297 376 1315 q 351 1283 358 1289 q 338 1276 344 1276 q 319 1285 326 1276 q 311 1306 311 1293 q 326 1351 311 1328 q 367 1391 340 1375 q 429 1407 394 1407 q 478 1398 453 1407 q 540 1372 503 1389 q 563 1361 544 1369 q 597 1349 582 1353 q 621 1344 611 1344 q 660 1355 646 1344 q 686 1383 674 1365 q 699 1398 692 1392 q 713 1404 706 1404 q 731 1396 724 1404 q 739 1376 739 1388 q 724 1330 739 1354 q 683 1290 710 1306 q 621 1274 656 1274 m 401 1068 q 375 1056 389 1056 q 349 1067 360 1056 q 339 1092 339 1078 q 353 1121 339 1107 l 481 1256 q 525 1276 500 1276 q 569 1256 549 1276 l 697 1121 q 711 1092 711 1107 q 700 1067 711 1078 q 675 1056 689 1056 q 649 1068 661 1056 l 525 1208 l 401 1068 z "},"Ȍ":{"ha":1051,"x_min":89,"x_max":963,"o":"m 525 -11 q 293 49 392 -11 q 142 223 194 110 q 89 489 89 336 q 142 756 89 643 q 292 930 194 869 q 525 990 390 990 q 758 930 660 990 q 910 757 857 869 q 963 490 963 644 q 910 223 963 336 q 758 49 857 110 q 525 -11 660 -11 m 525 65 q 782 176 690 65 q 874 490 874 288 q 783 803 874 693 q 525 914 692 914 q 269 803 360 914 q 178 490 178 692 q 269 177 178 289 q 525 65 360 65 m 319 1207 q 306 1243 306 1225 q 315 1269 306 1258 q 340 1279 325 1279 q 363 1271 351 1279 q 382 1247 374 1263 l 463 1088 q 465 1075 465 1083 q 460 1060 465 1065 q 446 1054 454 1054 q 426 1065 435 1054 l 319 1207 m 479 1207 q 465 1243 465 1225 q 475 1269 465 1258 q 500 1279 485 1279 q 522 1271 511 1279 q 542 1247 533 1263 l 622 1088 q 625 1075 625 1083 q 619 1060 625 1065 q 606 1054 614 1054 q 586 1065 594 1054 l 479 1207 z "},"Ö":{"ha":1051,"x_min":89,"x_max":963,"o":"m 525 -11 q 293 49 392 -11 q 142 223 194 110 q 89 489 89 336 q 142 756 89 643 q 292 930 194 869 q 525 990 390 990 q 758 930 660 990 q 910 757 857 869 q 963 490 963 644 q 910 223 963 336 q 758 49 857 110 q 525 -11 660 -11 m 525 65 q 782 176 690 65 q 874 490 874 288 q 783 803 874 693 q 525 914 692 914 q 269 803 360 914 q 178 490 178 692 q 269 177 178 289 q 525 65 360 65 m 410 1111 q 368 1127 385 1111 q 351 1168 351 1143 q 368 1209 351 1193 q 410 1225 385 1225 q 452 1209 435 1225 q 469 1168 469 1193 q 452 1127 469 1143 q 410 1111 435 1111 m 640 1111 q 598 1127 615 1111 q 581 1168 581 1143 q 598 1209 581 1193 q 640 1225 615 1225 q 682 1209 665 1225 q 699 1168 699 1193 q 682 1127 699 1143 q 640 1111 665 1111 z "},"Ȫ":{"ha":1051,"x_min":89,"x_max":963,"o":"m 525 -11 q 293 49 392 -11 q 142 223 194 110 q 89 489 89 336 q 142 756 89 643 q 292 930 194 869 q 525 990 390 990 q 758 930 660 990 q 910 757 857 869 q 963 490 963 644 q 910 223 963 336 q 758 49 857 110 q 525 -11 660 -11 m 525 65 q 782 176 690 65 q 874 490 874 288 q 783 803 874 693 q 525 914 692 914 q 269 803 360 914 q 178 490 178 692 q 269 177 178 289 q 525 65 360 65 m 410 1111 q 368 1127 385 1111 q 351 1168 351 1143 q 368 1209 351 1193 q 410 1225 385 1225 q 452 1209 435 1225 q 469 1168 469 1193 q 452 1127 469 1143 q 410 1111 435 1111 m 640 1111 q 598 1127 615 1111 q 581 1168 581 1143 q 598 1209 581 1193 q 640 1225 615 1225 q 682 1209 665 1225 q 699 1168 699 1193 q 682 1127 699 1143 q 640 1111 665 1111 m 357 1354 q 324 1364 336 1354 q 313 1390 313 1374 q 324 1417 313 1408 q 357 1426 336 1426 l 693 1426 q 726 1417 714 1426 q 738 1390 738 1408 q 726 1364 738 1374 q 693 1354 714 1354 l 357 1354 z "},"Ȱ":{"ha":1051,"x_min":89,"x_max":963,"o":"m 525 -11 q 293 49 392 -11 q 142 223 194 110 q 89 489 89 336 q 142 756 89 643 q 292 930 194 869 q 525 990 390 990 q 758 930 660 990 q 910 757 857 869 q 963 490 963 644 q 910 223 963 336 q 758 49 857 110 q 525 -11 660 -11 m 525 65 q 782 176 690 65 q 874 490 874 288 q 783 803 874 693 q 525 914 692 914 q 269 803 360 914 q 178 490 178 692 q 269 177 178 289 q 525 65 360 65 m 525 1108 q 480 1125 497 1108 q 463 1168 463 1142 q 480 1213 463 1196 q 525 1229 497 1229 q 570 1213 553 1229 q 588 1168 588 1196 q 570 1125 588 1142 q 525 1108 553 1108 m 357 1354 q 324 1364 336 1354 q 313 1390 313 1374 q 324 1417 313 1408 q 357 1426 336 1426 l 693 1426 q 726 1417 714 1426 q 738 1390 738 1408 q 726 1364 738 1374 q 693 1354 714 1354 l 357 1354 z "},"Ọ":{"ha":1051,"x_min":89,"x_max":963,"o":"m 525 -11 q 293 49 392 -11 q 142 223 194 110 q 89 489 89 336 q 142 756 89 643 q 292 930 194 869 q 525 990 390 990 q 758 930 660 990 q 910 757 857 869 q 963 490 963 644 q 910 223 963 336 q 758 49 857 110 q 525 -11 660 -11 m 525 65 q 782 176 690 65 q 874 490 874 288 q 783 803 874 693 q 525 914 692 914 q 269 803 360 914 q 178 490 178 692 q 269 177 178 289 q 525 65 360 65 m 525 -254 q 481 -237 499 -254 q 464 -193 464 -221 q 481 -150 464 -167 q 525 -133 499 -133 q 569 -150 551 -133 q 586 -193 586 -167 q 569 -237 586 -221 q 525 -254 551 -254 z "},"Ò":{"ha":1051,"x_min":89,"x_max":963,"o":"m 525 -11 q 293 49 392 -11 q 142 223 194 110 q 89 489 89 336 q 142 756 89 643 q 292 930 194 869 q 525 990 390 990 q 758 930 660 990 q 910 757 857 869 q 963 490 963 644 q 910 223 963 336 q 758 49 857 110 q 525 -11 660 -11 m 525 65 q 782 176 690 65 q 874 490 874 288 q 783 803 874 693 q 525 914 692 914 q 269 803 360 914 q 178 490 178 692 q 269 177 178 289 q 525 65 360 65 m 340 1193 q 314 1238 314 1214 q 326 1266 314 1254 q 357 1278 339 1278 q 399 1257 379 1278 l 542 1097 q 550 1079 550 1089 q 542 1063 550 1069 q 525 1056 535 1056 q 508 1061 515 1056 l 340 1193 z "},"Ỏ":{"ha":1051,"x_min":89,"x_max":963,"o":"m 525 -11 q 293 49 392 -11 q 142 223 194 110 q 89 489 89 336 q 142 756 89 643 q 292 930 194 869 q 525 990 390 990 q 758 930 660 990 q 910 757 857 869 q 963 490 963 644 q 910 223 963 336 q 758 49 857 110 q 525 -11 660 -11 m 525 65 q 782 176 690 65 q 874 490 874 288 q 783 803 874 693 q 525 914 692 914 q 269 803 360 914 q 178 490 178 692 q 269 177 178 289 q 525 65 360 65 m 560 1079 q 549 1062 558 1068 q 529 1056 540 1056 q 505 1065 515 1056 q 494 1089 494 1074 q 508 1126 494 1113 q 550 1153 522 1139 q 578 1172 569 1164 q 588 1189 588 1179 q 572 1208 588 1201 q 528 1215 556 1215 q 456 1204 493 1215 q 444 1203 451 1203 q 423 1211 431 1203 q 415 1231 415 1219 q 438 1261 415 1251 q 529 1278 479 1278 q 629 1253 593 1278 q 665 1189 665 1229 q 649 1147 665 1161 q 604 1118 633 1132 q 572 1101 583 1110 q 560 1079 561 1092 z "},"Ơ":{"ha":1051,"x_min":89,"x_max":963,"o":"m 771 919 q 914 749 865 858 q 963 490 963 639 q 910 223 963 336 q 758 49 857 110 q 525 -11 660 -11 q 293 49 392 -11 q 142 223 194 110 q 89 489 89 336 q 142 756 89 643 q 294 930 194 869 q 531 990 393 990 q 638 985 568 990 q 725 979 701 979 q 818 992 785 979 q 866 1037 851 1006 q 883 1126 881 1068 q 925 1176 888 1176 q 963 1119 963 1176 q 912 978 963 1031 q 771 919 861 925 m 525 65 q 782 176 690 65 q 874 490 874 288 q 783 803 874 693 q 525 914 692 914 q 269 803 360 914 q 178 490 178 692 q 269 177 178 289 q 525 65 360 65 z "},"Ớ":{"ha":1051,"x_min":89,"x_max":963,"o":"m 771 919 q 914 749 865 858 q 963 490 963 639 q 910 223 963 336 q 758 49 857 110 q 525 -11 660 -11 q 293 49 392 -11 q 142 223 194 110 q 89 489 89 336 q 142 756 89 643 q 294 930 194 869 q 531 990 393 990 q 638 985 568 990 q 725 979 701 979 q 818 992 785 979 q 866 1037 851 1006 q 883 1126 881 1068 q 925 1176 888 1176 q 963 1119 963 1176 q 912 978 963 1031 q 771 919 861 925 m 525 65 q 782 176 690 65 q 874 490 874 288 q 783 803 874 693 q 525 914 692 914 q 269 803 360 914 q 178 490 178 692 q 269 177 178 289 q 525 65 360 65 m 542 1061 q 525 1056 535 1056 q 508 1063 515 1056 q 500 1079 500 1069 q 508 1097 500 1089 l 651 1257 q 693 1278 671 1278 q 724 1266 711 1278 q 736 1236 736 1254 q 710 1193 736 1214 l 542 1061 z "},"Ợ":{"ha":1051,"x_min":89,"x_max":963,"o":"m 771 919 q 914 749 865 858 q 963 490 963 639 q 910 223 963 336 q 758 49 857 110 q 525 -11 660 -11 q 293 49 392 -11 q 142 223 194 110 q 89 489 89 336 q 142 756 89 643 q 294 930 194 869 q 531 990 393 990 q 638 985 568 990 q 725 979 701 979 q 818 992 785 979 q 866 1037 851 1006 q 883 1126 881 1068 q 925 1176 888 1176 q 963 1119 963 1176 q 912 978 963 1031 q 771 919 861 925 m 525 65 q 782 176 690 65 q 874 490 874 288 q 783 803 874 693 q 525 914 692 914 q 269 803 360 914 q 178 490 178 692 q 269 177 178 289 q 525 65 360 65 m 526 -254 q 483 -237 500 -254 q 465 -193 465 -221 q 483 -150 465 -167 q 526 -133 500 -133 q 570 -150 553 -133 q 588 -193 588 -167 q 570 -237 588 -221 q 526 -254 553 -254 z "},"Ờ":{"ha":1051,"x_min":89,"x_max":963,"o":"m 771 919 q 914 749 865 858 q 963 490 963 639 q 910 223 963 336 q 758 49 857 110 q 525 -11 660 -11 q 293 49 392 -11 q 142 223 194 110 q 89 489 89 336 q 142 756 89 643 q 294 930 194 869 q 531 990 393 990 q 638 985 568 990 q 725 979 701 979 q 818 992 785 979 q 866 1037 851 1006 q 883 1126 881 1068 q 925 1176 888 1176 q 963 1119 963 1176 q 912 978 963 1031 q 771 919 861 925 m 525 65 q 782 176 690 65 q 874 490 874 288 q 783 803 874 693 q 525 914 692 914 q 269 803 360 914 q 178 490 178 692 q 269 177 178 289 q 525 65 360 65 m 340 1193 q 314 1238 314 1214 q 326 1266 314 1254 q 357 1278 339 1278 q 399 1257 379 1278 l 542 1097 q 550 1079 550 1089 q 542 1063 550 1069 q 525 1056 535 1056 q 508 1061 515 1056 l 340 1193 z "},"Ở":{"ha":1051,"x_min":89,"x_max":963,"o":"m 771 919 q 914 749 865 858 q 963 490 963 639 q 910 223 963 336 q 758 49 857 110 q 525 -11 660 -11 q 293 49 392 -11 q 142 223 194 110 q 89 489 89 336 q 142 756 89 643 q 294 930 194 869 q 531 990 393 990 q 638 985 568 990 q 725 979 701 979 q 818 992 785 979 q 866 1037 851 1006 q 883 1126 881 1068 q 925 1176 888 1176 q 963 1119 963 1176 q 912 978 963 1031 q 771 919 861 925 m 525 65 q 782 176 690 65 q 874 490 874 288 q 783 803 874 693 q 525 914 692 914 q 269 803 360 914 q 178 490 178 692 q 269 177 178 289 q 525 65 360 65 m 560 1079 q 549 1062 558 1068 q 529 1056 540 1056 q 505 1065 515 1056 q 494 1089 494 1074 q 508 1126 494 1113 q 550 1153 522 1139 q 578 1172 569 1164 q 588 1189 588 1179 q 572 1208 588 1201 q 528 1215 556 1215 q 456 1204 493 1215 q 444 1203 451 1203 q 423 1211 431 1203 q 415 1231 415 1219 q 438 1261 415 1251 q 529 1278 479 1278 q 629 1253 593 1278 q 665 1189 665 1229 q 649 1147 665 1161 q 604 1118 633 1132 q 572 1101 583 1110 q 560 1079 561 1092 z "},"Ỡ":{"ha":1051,"x_min":89,"x_max":963,"o":"m 771 919 q 914 749 865 858 q 963 490 963 639 q 910 223 963 336 q 758 49 857 110 q 525 -11 660 -11 q 293 49 392 -11 q 142 223 194 110 q 89 489 89 336 q 142 756 89 643 q 294 930 194 869 q 531 990 393 990 q 638 985 568 990 q 725 979 701 979 q 818 992 785 979 q 866 1037 851 1006 q 883 1126 881 1068 q 925 1176 888 1176 q 963 1119 963 1176 q 912 978 963 1031 q 771 919 861 925 m 525 65 q 782 176 690 65 q 874 490 874 288 q 783 803 874 693 q 525 914 692 914 q 269 803 360 914 q 178 490 178 692 q 269 177 178 289 q 525 65 360 65 m 621 1101 q 572 1110 597 1101 q 510 1136 547 1119 q 487 1147 506 1139 q 453 1160 468 1156 q 429 1164 439 1164 q 390 1153 404 1164 q 364 1125 376 1143 q 351 1110 358 1117 q 338 1104 344 1104 q 319 1113 326 1104 q 311 1133 311 1121 q 326 1180 311 1156 q 367 1220 340 1204 q 429 1236 394 1236 q 478 1227 453 1236 q 540 1201 503 1218 q 563 1190 544 1199 q 597 1178 582 1182 q 621 1174 611 1174 q 661 1185 647 1174 q 686 1214 675 1196 q 699 1228 692 1222 q 713 1235 706 1235 q 731 1226 724 1235 q 739 1206 739 1217 q 724 1159 739 1183 q 683 1118 710 1135 q 621 1101 656 1101 z "},"Ő":{"ha":1051,"x_min":89,"x_max":963,"o":"m 525 -11 q 293 49 392 -11 q 142 223 194 110 q 89 489 89 336 q 142 756 89 643 q 292 930 194 869 q 525 990 390 990 q 758 930 660 990 q 910 757 857 869 q 963 490 963 644 q 910 223 963 336 q 758 49 857 110 q 525 -11 660 -11 m 525 65 q 782 176 690 65 q 874 490 874 288 q 783 803 874 693 q 525 914 692 914 q 269 803 360 914 q 178 490 178 692 q 269 177 178 289 q 525 65 360 65 m 464 1065 q 444 1054 456 1054 q 431 1060 436 1054 q 425 1075 425 1065 q 428 1088 425 1083 l 508 1247 q 528 1271 517 1263 q 550 1279 539 1279 q 574 1269 564 1279 q 585 1242 585 1258 q 571 1207 585 1225 l 464 1065 m 624 1065 q 604 1054 615 1054 q 590 1060 596 1054 q 585 1075 585 1065 q 588 1088 585 1083 l 668 1247 q 688 1271 676 1263 q 710 1279 699 1279 q 734 1269 724 1279 q 744 1242 744 1258 q 731 1207 744 1225 l 624 1065 z "},"Ȏ":{"ha":1051,"x_min":89,"x_max":963,"o":"m 525 -11 q 293 49 392 -11 q 142 223 194 110 q 89 489 89 336 q 142 756 89 643 q 292 930 194 869 q 525 990 390 990 q 758 930 660 990 q 910 757 857 869 q 963 490 963 644 q 910 223 963 336 q 758 49 857 110 q 525 -11 660 -11 m 525 65 q 782 176 690 65 q 874 490 874 288 q 783 803 874 693 q 525 914 692 914 q 269 803 360 914 q 178 490 178 692 q 269 177 178 289 q 525 65 360 65 m 382 1104 q 343 1081 368 1081 q 321 1089 331 1081 q 311 1111 311 1097 q 317 1133 311 1122 q 400 1224 344 1193 q 525 1256 456 1256 q 649 1224 594 1256 q 733 1133 703 1193 q 739 1111 739 1122 q 729 1089 739 1097 q 707 1081 719 1081 q 668 1104 682 1081 q 607 1167 642 1147 q 525 1186 572 1186 q 443 1167 478 1186 q 382 1104 408 1147 z "},"Ō":{"ha":1051,"x_min":89,"x_max":963,"o":"m 525 -11 q 293 49 392 -11 q 142 223 194 110 q 89 489 89 336 q 142 756 89 643 q 292 930 194 869 q 525 990 390 990 q 758 930 660 990 q 910 757 857 869 q 963 490 963 644 q 910 223 963 336 q 758 49 857 110 q 525 -11 660 -11 m 525 65 q 782 176 690 65 q 874 490 874 288 q 783 803 874 693 q 525 914 692 914 q 269 803 360 914 q 178 490 178 692 q 269 177 178 289 q 525 65 360 65 m 357 1132 q 324 1142 336 1132 q 313 1168 313 1151 q 324 1195 313 1186 q 357 1204 336 1204 l 693 1204 q 726 1195 714 1204 q 738 1168 738 1186 q 726 1142 738 1151 q 693 1132 714 1132 l 357 1132 z "},"Ṓ":{"ha":1051,"x_min":89,"x_max":963,"o":"m 525 -11 q 293 49 392 -11 q 142 223 194 110 q 89 489 89 336 q 142 756 89 643 q 292 930 194 869 q 525 990 390 990 q 758 930 660 990 q 910 757 857 869 q 963 490 963 644 q 910 223 963 336 q 758 49 857 110 q 525 -11 660 -11 m 525 65 q 782 176 690 65 q 874 490 874 288 q 783 803 874 693 q 525 914 692 914 q 269 803 360 914 q 178 490 178 692 q 269 177 178 289 q 525 65 360 65 m 357 1132 q 324 1142 336 1132 q 313 1168 313 1151 q 324 1195 313 1186 q 357 1204 336 1204 l 693 1204 q 726 1195 714 1204 q 738 1168 738 1186 q 726 1142 738 1151 q 693 1132 714 1132 l 357 1132 m 542 1283 q 525 1278 535 1278 q 508 1285 515 1278 q 500 1301 500 1292 q 508 1319 500 1311 l 651 1479 q 693 1500 671 1500 q 724 1488 711 1500 q 736 1458 736 1476 q 710 1415 736 1436 l 542 1283 z "},"Ṑ":{"ha":1051,"x_min":89,"x_max":963,"o":"m 525 -11 q 293 49 392 -11 q 142 223 194 110 q 89 489 89 336 q 142 756 89 643 q 292 930 194 869 q 525 990 390 990 q 758 930 660 990 q 910 757 857 869 q 963 490 963 644 q 910 223 963 336 q 758 49 857 110 q 525 -11 660 -11 m 525 65 q 782 176 690 65 q 874 490 874 288 q 783 803 874 693 q 525 914 692 914 q 269 803 360 914 q 178 490 178 692 q 269 177 178 289 q 525 65 360 65 m 357 1132 q 324 1142 336 1132 q 313 1168 313 1151 q 324 1195 313 1186 q 357 1204 336 1204 l 693 1204 q 726 1195 714 1204 q 738 1168 738 1186 q 726 1142 738 1151 q 693 1132 714 1132 l 357 1132 m 340 1415 q 314 1460 314 1436 q 326 1488 314 1476 q 357 1500 339 1500 q 399 1479 379 1500 l 542 1319 q 550 1301 550 1311 q 542 1285 550 1292 q 525 1278 535 1278 q 508 1283 515 1278 l 340 1415 z "},"Ǫ":{"ha":1051,"x_min":89,"x_max":963,"o":"m 657 6 q 547 -112 547 -25 q 572 -178 547 -154 q 640 -203 597 -203 q 707 -185 668 -203 q 722 -181 715 -181 q 742 -189 735 -181 q 749 -210 749 -197 q 729 -242 749 -231 q 631 -265 682 -265 q 517 -226 561 -265 q 472 -122 472 -186 q 518 -11 472 -60 q 291 51 388 -10 q 142 225 194 113 q 89 489 89 338 q 142 756 89 643 q 292 930 194 869 q 525 990 390 990 q 758 930 660 990 q 910 757 857 869 q 963 490 963 644 q 883 172 963 299 q 657 6 803 46 m 178 490 q 269 177 178 289 q 525 65 360 65 q 782 176 690 65 q 874 490 874 288 q 783 803 874 693 q 525 914 692 914 q 269 803 360 914 q 178 490 178 692 z "},"Ø":{"ha":1051,"x_min":89,"x_max":963,"o":"m 804 897 q 922 728 881 832 q 963 490 963 625 q 910 223 963 336 q 758 49 857 110 q 525 -11 660 -11 q 306 42 400 -11 l 265 -28 q 233 -49 254 -49 q 208 -39 219 -49 q 197 -14 197 -29 q 204 8 197 -6 l 247 83 q 130 251 171 147 q 89 489 89 354 q 142 756 89 643 q 292 930 194 869 q 525 990 390 990 q 746 938 651 990 l 788 1008 q 818 1028 799 1028 q 844 1017 833 1028 q 856 993 856 1007 q 849 972 856 983 l 804 897 m 178 490 q 289 154 178 265 l 707 869 q 525 914 629 914 q 269 803 360 914 q 178 490 178 692 m 525 65 q 782 176 690 65 q 874 490 874 288 q 763 825 874 717 l 346 110 q 525 65 422 65 z "},"Ǿ":{"ha":1051,"x_min":89,"x_max":963,"o":"m 804 897 q 922 728 881 832 q 963 490 963 625 q 910 223 963 336 q 758 49 857 110 q 525 -11 660 -11 q 306 42 400 -11 l 265 -28 q 233 -49 254 -49 q 208 -39 219 -49 q 197 -14 197 -29 q 204 8 197 -6 l 247 83 q 130 251 171 147 q 89 489 89 354 q 142 756 89 643 q 292 930 194 869 q 525 990 390 990 q 746 938 651 990 l 788 1008 q 818 1028 799 1028 q 844 1017 833 1028 q 856 993 856 1007 q 849 972 856 983 l 804 897 m 178 490 q 289 154 178 265 l 707 869 q 525 914 629 914 q 269 803 360 914 q 178 490 178 692 m 525 65 q 782 176 690 65 q 874 490 874 288 q 763 825 874 717 l 346 110 q 525 65 422 65 m 542 1061 q 525 1056 535 1056 q 508 1063 515 1056 q 500 1079 500 1069 q 508 1097 500 1089 l 651 1257 q 693 1278 671 1278 q 724 1266 711 1278 q 736 1236 736 1254 q 710 1193 736 1214 l 542 1061 z "},"Õ":{"ha":1051,"x_min":89,"x_max":963,"o":"m 525 -11 q 293 49 392 -11 q 142 223 194 110 q 89 489 89 336 q 142 756 89 643 q 292 930 194 869 q 525 990 390 990 q 758 930 660 990 q 910 757 857 869 q 963 490 963 644 q 910 223 963 336 q 758 49 857 110 q 525 -11 660 -11 m 525 65 q 782 176 690 65 q 874 490 874 288 q 783 803 874 693 q 525 914 692 914 q 269 803 360 914 q 178 490 178 692 q 269 177 178 289 q 525 65 360 65 m 621 1101 q 572 1110 597 1101 q 510 1136 547 1119 q 487 1147 506 1139 q 453 1160 468 1156 q 429 1164 439 1164 q 390 1153 404 1164 q 364 1125 376 1143 q 351 1110 358 1117 q 338 1104 344 1104 q 319 1113 326 1104 q 311 1133 311 1121 q 326 1180 311 1156 q 367 1220 340 1204 q 429 1236 394 1236 q 478 1227 453 1236 q 540 1201 503 1218 q 563 1190 544 1199 q 597 1178 582 1182 q 621 1174 611 1174 q 661 1185 647 1174 q 686 1214 675 1196 q 699 1228 692 1222 q 713 1235 706 1235 q 731 1226 724 1235 q 739 1206 739 1217 q 724 1159 739 1183 q 683 1118 710 1135 q 621 1101 656 1101 z "},"Ṍ":{"ha":1051,"x_min":89,"x_max":963,"o":"m 525 -11 q 293 49 392 -11 q 142 223 194 110 q 89 489 89 336 q 142 756 89 643 q 292 930 194 869 q 525 990 390 990 q 758 930 660 990 q 910 757 857 869 q 963 490 963 644 q 910 223 963 336 q 758 49 857 110 q 525 -11 660 -11 m 525 65 q 782 176 690 65 q 874 490 874 288 q 783 803 874 693 q 525 914 692 914 q 269 803 360 914 q 178 490 178 692 q 269 177 178 289 q 525 65 360 65 m 621 1101 q 572 1110 597 1101 q 510 1136 547 1119 q 487 1147 506 1139 q 453 1160 468 1156 q 429 1164 439 1164 q 390 1153 404 1164 q 364 1125 376 1143 q 351 1110 358 1117 q 338 1104 344 1104 q 319 1113 326 1104 q 311 1133 311 1121 q 326 1180 311 1156 q 367 1220 340 1204 q 429 1236 394 1236 q 478 1227 453 1236 q 540 1201 503 1218 q 563 1190 544 1199 q 597 1178 582 1182 q 621 1174 611 1174 q 661 1185 647 1174 q 686 1214 675 1196 q 699 1228 692 1222 q 713 1235 706 1235 q 731 1226 724 1235 q 739 1206 739 1217 q 724 1159 739 1183 q 683 1118 710 1135 q 621 1101 656 1101 m 542 1283 q 525 1278 535 1278 q 508 1285 515 1278 q 500 1301 500 1292 q 508 1319 500 1311 l 651 1479 q 693 1500 671 1500 q 724 1488 711 1500 q 736 1458 736 1476 q 710 1415 736 1436 l 542 1283 z "},"Ṏ":{"ha":1051,"x_min":89,"x_max":963,"o":"m 525 -11 q 293 49 392 -11 q 142 223 194 110 q 89 489 89 336 q 142 756 89 643 q 292 930 194 869 q 525 990 390 990 q 758 930 660 990 q 910 757 857 869 q 963 490 963 644 q 910 223 963 336 q 758 49 857 110 q 525 -11 660 -11 m 525 65 q 782 176 690 65 q 874 490 874 288 q 783 803 874 693 q 525 914 692 914 q 269 803 360 914 q 178 490 178 692 q 269 177 178 289 q 525 65 360 65 m 621 1101 q 572 1110 597 1101 q 510 1136 547 1119 q 487 1147 506 1139 q 453 1160 468 1156 q 429 1164 439 1164 q 390 1153 404 1164 q 364 1125 376 1143 q 351 1110 358 1117 q 338 1104 344 1104 q 319 1113 326 1104 q 311 1133 311 1121 q 326 1180 311 1156 q 367 1220 340 1204 q 429 1236 394 1236 q 478 1227 453 1236 q 540 1201 503 1218 q 563 1190 544 1199 q 597 1178 582 1182 q 621 1174 611 1174 q 661 1185 647 1174 q 686 1214 675 1196 q 699 1228 692 1222 q 713 1235 706 1235 q 731 1226 724 1235 q 739 1206 739 1217 q 724 1159 739 1183 q 683 1118 710 1135 q 621 1101 656 1101 m 410 1333 q 368 1349 385 1333 q 351 1390 351 1365 q 368 1431 351 1415 q 410 1447 385 1447 q 452 1431 435 1447 q 469 1390 469 1415 q 452 1349 469 1365 q 410 1333 435 1333 m 640 1333 q 598 1349 615 1333 q 581 1390 581 1365 q 598 1431 581 1415 q 640 1447 615 1447 q 682 1431 665 1447 q 699 1390 699 1415 q 682 1349 699 1365 q 640 1333 665 1333 z "},"Ȭ":{"ha":1051,"x_min":89,"x_max":963,"o":"m 525 -11 q 293 49 392 -11 q 142 223 194 110 q 89 489 89 336 q 142 756 89 643 q 292 930 194 869 q 525 990 390 990 q 758 930 660 990 q 910 757 857 869 q 963 490 963 644 q 910 223 963 336 q 758 49 857 110 q 525 -11 660 -11 m 525 65 q 782 176 690 65 q 874 490 874 288 q 783 803 874 693 q 525 914 692 914 q 269 803 360 914 q 178 490 178 692 q 269 177 178 289 q 525 65 360 65 m 621 1101 q 572 1110 597 1101 q 510 1136 547 1119 q 487 1147 506 1139 q 453 1160 468 1156 q 429 1164 439 1164 q 390 1153 404 1164 q 364 1125 376 1143 q 351 1110 358 1117 q 338 1104 344 1104 q 319 1113 326 1104 q 311 1133 311 1121 q 326 1180 311 1156 q 367 1220 340 1204 q 429 1236 394 1236 q 478 1227 453 1236 q 540 1201 503 1218 q 563 1190 544 1199 q 597 1178 582 1182 q 621 1174 611 1174 q 661 1185 647 1174 q 686 1214 675 1196 q 699 1228 692 1222 q 713 1235 706 1235 q 731 1226 724 1235 q 739 1206 739 1217 q 724 1159 739 1183 q 683 1118 710 1135 q 621 1101 656 1101 m 357 1354 q 324 1364 336 1354 q 313 1390 313 1374 q 324 1417 313 1408 q 357 1426 336 1426 l 693 1426 q 726 1417 714 1426 q 738 1390 738 1408 q 726 1364 738 1374 q 693 1354 714 1354 l 357 1354 z "},"Œ":{"ha":1453,"x_min":89,"x_max":1388,"o":"m 574 0 q 215 127 342 0 q 89 490 89 254 q 215 853 89 726 q 574 979 342 979 l 1347 979 q 1377 969 1367 979 q 1388 942 1388 960 q 1377 915 1388 924 q 1349 906 1367 906 l 858 906 l 858 535 l 1321 535 q 1349 525 1339 535 q 1360 497 1360 515 q 1349 469 1360 479 q 1321 460 1339 460 l 858 460 l 858 74 l 1349 74 q 1377 65 1367 74 q 1388 38 1388 56 q 1377 10 1388 19 q 1349 0 1367 0 l 574 0 m 775 74 l 775 906 l 578 906 q 276 799 374 906 q 178 490 178 692 q 276 181 178 289 q 578 74 375 74 l 775 74 z "},"P":{"ha":886,"x_min":126,"x_max":818,"o":"m 169 -7 q 138 5 150 -7 q 126 38 126 17 l 126 936 q 140 967 126 954 q 172 979 153 979 l 497 979 q 734 906 650 979 q 818 697 818 832 q 733 487 818 561 q 497 413 649 413 l 213 413 l 213 38 q 201 5 213 17 q 169 -7 189 -7 m 492 486 q 732 697 732 486 q 492 906 732 906 l 213 906 l 213 486 l 492 486 z "},"Þ":{"ha":886,"x_min":126,"x_max":818,"o":"m 510 758 q 738 691 658 758 q 818 500 818 624 q 737 306 818 375 q 510 238 656 238 l 211 238 l 211 38 q 200 5 211 17 q 169 -7 189 -7 q 138 5 150 -7 q 126 38 126 17 l 126 942 q 138 974 126 963 q 169 986 150 986 q 200 974 189 986 q 211 942 211 963 l 211 758 l 510 758 m 504 311 q 676 358 619 311 q 732 500 732 404 q 676 640 732 594 q 504 685 619 685 l 211 685 l 211 311 l 504 311 z "},"Q":{"ha":1051,"x_min":89,"x_max":963,"o":"m 850 -200 q 857 -222 857 -214 q 846 -246 857 -236 q 819 -256 835 -256 q 771 -225 790 -256 l 692 -96 q 525 -11 639 -11 q 294 49 393 -11 q 142 223 196 110 q 89 489 89 336 q 142 756 89 643 q 293 930 194 869 q 525 990 392 990 q 758 930 660 990 q 910 757 857 869 q 963 490 963 644 q 888 183 963 308 q 678 13 813 57 q 731 -21 707 3 q 779 -86 754 -44 l 850 -200 m 178 490 q 269 177 178 289 q 525 65 360 65 q 782 176 690 65 q 874 490 874 288 q 783 803 874 693 q 525 914 692 914 q 269 803 360 914 q 178 490 178 692 z "},"R":{"ha":947,"x_min":126,"x_max":867,"o":"m 858 51 q 867 28 867 39 q 855 2 867 13 q 828 -8 843 -8 q 790 14 804 -8 l 603 314 q 520 401 563 378 q 403 425 478 425 l 213 425 l 213 38 q 201 5 213 17 q 169 -7 189 -7 q 138 5 150 -7 q 126 38 126 17 l 126 936 q 140 967 126 954 q 172 979 153 979 l 518 979 q 756 909 672 979 q 839 704 839 839 q 768 517 839 586 q 568 436 697 447 q 629 399 601 425 q 686 328 657 374 l 858 51 m 513 499 q 754 706 754 499 q 694 856 754 807 q 513 906 635 906 l 211 906 l 211 499 l 513 499 z "},"Ŕ":{"ha":947,"x_min":126,"x_max":867,"o":"m 858 51 q 867 28 867 39 q 855 2 867 13 q 828 -8 843 -8 q 790 14 804 -8 l 603 314 q 520 401 563 378 q 403 425 478 425 l 213 425 l 213 38 q 201 5 213 17 q 169 -7 189 -7 q 138 5 150 -7 q 126 38 126 17 l 126 936 q 140 967 126 954 q 172 979 153 979 l 518 979 q 756 909 672 979 q 839 704 839 839 q 768 517 839 586 q 568 436 697 447 q 629 399 601 425 q 686 328 657 374 l 858 51 m 513 499 q 754 706 754 499 q 694 856 754 807 q 513 906 635 906 l 211 906 l 211 499 l 513 499 m 485 1061 q 468 1056 478 1056 q 451 1063 458 1056 q 443 1079 443 1069 q 451 1097 443 1089 l 594 1257 q 636 1278 614 1278 q 667 1266 654 1278 q 679 1236 679 1254 q 653 1193 679 1214 l 485 1061 z "},"Ř":{"ha":947,"x_min":126,"x_max":867,"o":"m 858 51 q 867 28 867 39 q 855 2 867 13 q 828 -8 843 -8 q 790 14 804 -8 l 603 314 q 520 401 563 378 q 403 425 478 425 l 213 425 l 213 38 q 201 5 213 17 q 169 -7 189 -7 q 138 5 150 -7 q 126 38 126 17 l 126 936 q 140 967 126 954 q 172 979 153 979 l 518 979 q 756 909 672 979 q 839 704 839 839 q 768 517 839 586 q 568 436 697 447 q 629 399 601 425 q 686 328 657 374 l 858 51 m 513 499 q 754 706 754 499 q 694 856 754 807 q 513 906 635 906 l 211 906 l 211 499 l 513 499 m 468 1056 q 424 1076 444 1056 l 296 1214 q 283 1243 283 1226 q 294 1267 283 1257 q 318 1278 304 1278 q 346 1265 335 1278 l 468 1125 l 590 1265 q 618 1279 603 1279 q 642 1269 632 1279 q 653 1243 653 1258 q 640 1214 653 1229 l 513 1076 q 468 1056 493 1056 z "},"Ŗ":{"ha":947,"x_min":126,"x_max":867,"o":"m 858 51 q 867 28 867 39 q 855 2 867 13 q 828 -8 843 -8 q 790 14 804 -8 l 603 314 q 520 401 563 378 q 403 425 478 425 l 213 425 l 213 38 q 201 5 213 17 q 169 -7 189 -7 q 138 5 150 -7 q 126 38 126 17 l 126 936 q 140 967 126 954 q 172 979 153 979 l 518 979 q 756 909 672 979 q 839 704 839 839 q 768 517 839 586 q 568 436 697 447 q 629 399 601 425 q 686 328 657 374 l 858 51 m 513 499 q 754 706 754 499 q 694 856 754 807 q 513 906 635 906 l 211 906 l 211 499 l 513 499 m 468 -96 q 536 -182 536 -96 q 476 -336 536 -271 q 446 -351 461 -351 q 427 -344 435 -351 q 419 -326 419 -337 q 429 -304 419 -315 q 472 -212 468 -258 q 427 -197 444 -212 q 410 -153 410 -181 q 426 -112 410 -128 q 468 -96 443 -96 z "},"Ȑ":{"ha":947,"x_min":126,"x_max":867,"o":"m 858 51 q 867 28 867 39 q 855 2 867 13 q 828 -8 843 -8 q 790 14 804 -8 l 603 314 q 520 401 563 378 q 403 425 478 425 l 213 425 l 213 38 q 201 5 213 17 q 169 -7 189 -7 q 138 5 150 -7 q 126 38 126 17 l 126 936 q 140 967 126 954 q 172 979 153 979 l 518 979 q 756 909 672 979 q 839 704 839 839 q 768 517 839 586 q 568 436 697 447 q 629 399 601 425 q 686 328 657 374 l 858 51 m 513 499 q 754 706 754 499 q 694 856 754 807 q 513 906 635 906 l 211 906 l 211 499 l 513 499 m 263 1207 q 249 1243 249 1225 q 258 1269 249 1258 q 283 1279 268 1279 q 306 1271 294 1279 q 325 1247 317 1263 l 406 1088 q 408 1075 408 1083 q 403 1060 408 1065 q 389 1054 397 1054 q 369 1065 378 1054 l 263 1207 m 422 1207 q 408 1243 408 1225 q 418 1269 408 1258 q 443 1279 428 1279 q 465 1271 454 1279 q 485 1247 476 1263 l 565 1088 q 568 1075 568 1083 q 563 1060 568 1065 q 549 1054 557 1054 q 529 1065 538 1054 l 422 1207 z "},"Ṛ":{"ha":947,"x_min":126,"x_max":867,"o":"m 858 51 q 867 28 867 39 q 855 2 867 13 q 828 -8 843 -8 q 790 14 804 -8 l 603 314 q 520 401 563 378 q 403 425 478 425 l 213 425 l 213 38 q 201 5 213 17 q 169 -7 189 -7 q 138 5 150 -7 q 126 38 126 17 l 126 936 q 140 967 126 954 q 172 979 153 979 l 518 979 q 756 909 672 979 q 839 704 839 839 q 768 517 839 586 q 568 436 697 447 q 629 399 601 425 q 686 328 657 374 l 858 51 m 513 499 q 754 706 754 499 q 694 856 754 807 q 513 906 635 906 l 211 906 l 211 499 l 513 499 m 468 -254 q 424 -237 442 -254 q 407 -193 407 -221 q 424 -150 407 -167 q 468 -133 442 -133 q 512 -150 494 -133 q 529 -193 529 -167 q 512 -237 529 -221 q 468 -254 494 -254 z "},"Ȓ":{"ha":947,"x_min":126,"x_max":867,"o":"m 858 51 q 867 28 867 39 q 855 2 867 13 q 828 -8 843 -8 q 790 14 804 -8 l 603 314 q 520 401 563 378 q 403 425 478 425 l 213 425 l 213 38 q 201 5 213 17 q 169 -7 189 -7 q 138 5 150 -7 q 126 38 126 17 l 126 936 q 140 967 126 954 q 172 979 153 979 l 518 979 q 756 909 672 979 q 839 704 839 839 q 768 517 839 586 q 568 436 697 447 q 629 399 601 425 q 686 328 657 374 l 858 51 m 513 499 q 754 706 754 499 q 694 856 754 807 q 513 906 635 906 l 211 906 l 211 499 l 513 499 m 325 1104 q 286 1081 311 1081 q 264 1089 274 1081 q 254 1111 254 1097 q 260 1133 254 1122 q 343 1224 288 1193 q 468 1256 399 1256 q 592 1224 538 1256 q 676 1133 646 1193 q 682 1111 682 1122 q 672 1089 682 1097 q 650 1081 663 1081 q 611 1104 625 1081 q 550 1167 585 1147 q 468 1186 515 1186 q 386 1167 421 1186 q 325 1104 351 1147 z "},"Ṟ":{"ha":947,"x_min":126,"x_max":867,"o":"m 858 51 q 867 28 867 39 q 855 2 867 13 q 828 -8 843 -8 q 790 14 804 -8 l 603 314 q 520 401 563 378 q 403 425 478 425 l 213 425 l 213 38 q 201 5 213 17 q 169 -7 189 -7 q 138 5 150 -7 q 126 38 126 17 l 126 936 q 140 967 126 954 q 172 979 153 979 l 518 979 q 756 909 672 979 q 839 704 839 839 q 768 517 839 586 q 568 436 697 447 q 629 399 601 425 q 686 328 657 374 l 858 51 m 513 499 q 754 706 754 499 q 694 856 754 807 q 513 906 635 906 l 211 906 l 211 499 l 513 499 m 300 -229 q 267 -219 279 -229 q 256 -194 256 -210 q 267 -167 256 -176 q 300 -158 279 -158 l 636 -158 q 669 -167 657 -158 q 681 -194 681 -176 q 669 -219 681 -210 q 636 -229 657 -229 l 300 -229 z "},"S":{"ha":843,"x_min":63,"x_max":778,"o":"m 428 -11 q 230 22 325 -11 q 81 110 135 54 q 63 150 63 125 q 72 176 63 165 q 92 188 81 188 q 124 174 106 188 q 428 65 254 65 q 623 116 554 65 q 692 260 692 167 q 658 347 692 314 q 574 399 625 381 q 436 438 522 418 q 252 489 322 463 q 133 569 182 515 q 85 713 85 622 q 128 858 85 794 q 251 956 172 921 q 433 990 331 990 q 614 959 529 990 q 754 869 699 928 q 772 829 772 851 q 763 803 772 814 q 743 792 754 792 q 711 806 729 792 q 576 890 636 867 q 433 914 515 914 q 240 861 310 914 q 171 714 171 808 q 201 622 171 657 q 281 565 232 586 q 408 525 331 544 l 444 517 q 622 465 557 489 q 733 392 688 442 q 778 260 778 343 q 734 119 778 181 q 610 23 690 57 q 428 -11 531 -11 z "},"Ś":{"ha":843,"x_min":63,"x_max":778,"o":"m 428 -11 q 230 22 325 -11 q 81 110 135 54 q 63 150 63 125 q 72 176 63 165 q 92 188 81 188 q 124 174 106 188 q 428 65 254 65 q 623 116 554 65 q 692 260 692 167 q 658 347 692 314 q 574 399 625 381 q 436 438 522 418 q 252 489 322 463 q 133 569 182 515 q 85 713 85 622 q 128 858 85 794 q 251 956 172 921 q 433 990 331 990 q 614 959 529 990 q 754 869 699 928 q 772 829 772 851 q 763 803 772 814 q 743 792 754 792 q 711 806 729 792 q 576 890 636 867 q 433 914 515 914 q 240 861 310 914 q 171 714 171 808 q 201 622 171 657 q 281 565 232 586 q 408 525 331 544 l 444 517 q 622 465 557 489 q 733 392 688 442 q 778 260 778 343 q 734 119 778 181 q 610 23 690 57 q 428 -11 531 -11 m 439 1061 q 422 1056 432 1056 q 405 1063 413 1056 q 397 1079 397 1069 q 406 1097 397 1089 l 549 1257 q 590 1278 568 1278 q 621 1266 608 1278 q 633 1236 633 1254 q 607 1193 633 1214 l 439 1061 z "},"Ṥ":{"ha":843,"x_min":63,"x_max":778,"o":"m 428 -11 q 230 22 325 -11 q 81 110 135 54 q 63 150 63 125 q 72 176 63 165 q 92 188 81 188 q 124 174 106 188 q 428 65 254 65 q 623 116 554 65 q 692 260 692 167 q 658 347 692 314 q 574 399 625 381 q 436 438 522 418 q 252 489 322 463 q 133 569 182 515 q 85 713 85 622 q 128 858 85 794 q 251 956 172 921 q 433 990 331 990 q 614 959 529 990 q 754 869 699 928 q 772 829 772 851 q 763 803 772 814 q 743 792 754 792 q 711 806 729 792 q 576 890 636 867 q 433 914 515 914 q 240 861 310 914 q 171 714 171 808 q 201 622 171 657 q 281 565 232 586 q 408 525 331 544 l 444 517 q 622 465 557 489 q 733 392 688 442 q 778 260 778 343 q 734 119 778 181 q 610 23 690 57 q 428 -11 531 -11 m 442 1061 q 425 1056 435 1056 q 408 1063 415 1056 q 400 1079 400 1069 q 408 1097 400 1089 l 551 1257 q 593 1278 571 1278 q 624 1266 611 1278 q 636 1236 636 1254 q 610 1193 636 1214 l 442 1061 m 269 1158 q 224 1175 242 1158 q 207 1218 207 1192 q 224 1263 207 1246 q 269 1279 242 1279 q 315 1263 297 1279 q 332 1218 332 1246 q 315 1175 332 1192 q 269 1158 297 1158 z "},"Š":{"ha":843,"x_min":63,"x_max":778,"o":"m 428 -11 q 230 22 325 -11 q 81 110 135 54 q 63 150 63 125 q 72 176 63 165 q 92 188 81 188 q 124 174 106 188 q 428 65 254 65 q 623 116 554 65 q 692 260 692 167 q 658 347 692 314 q 574 399 625 381 q 436 438 522 418 q 252 489 322 463 q 133 569 182 515 q 85 713 85 622 q 128 858 85 794 q 251 956 172 921 q 433 990 331 990 q 614 959 529 990 q 754 869 699 928 q 772 829 772 851 q 763 803 772 814 q 743 792 754 792 q 711 806 729 792 q 576 890 636 867 q 433 914 515 914 q 240 861 310 914 q 171 714 171 808 q 201 622 171 657 q 281 565 232 586 q 408 525 331 544 l 444 517 q 622 465 557 489 q 733 392 688 442 q 778 260 778 343 q 734 119 778 181 q 610 23 690 57 q 428 -11 531 -11 m 422 1056 q 378 1076 399 1056 l 250 1214 q 238 1243 238 1226 q 248 1267 238 1257 q 272 1278 258 1278 q 300 1265 289 1278 l 422 1125 l 544 1265 q 572 1279 557 1279 q 597 1269 586 1279 q 607 1243 607 1258 q 594 1214 607 1229 l 467 1076 q 422 1056 447 1056 z "},"Ṧ":{"ha":843,"x_min":63,"x_max":778,"o":"m 428 -11 q 230 22 325 -11 q 81 110 135 54 q 63 150 63 125 q 72 176 63 165 q 92 188 81 188 q 124 174 106 188 q 428 65 254 65 q 623 116 554 65 q 692 260 692 167 q 658 347 692 314 q 574 399 625 381 q 436 438 522 418 q 252 489 322 463 q 133 569 182 515 q 85 713 85 622 q 128 858 85 794 q 251 956 172 921 q 433 990 331 990 q 614 959 529 990 q 754 869 699 928 q 772 829 772 851 q 763 803 772 814 q 743 792 754 792 q 711 806 729 792 q 576 890 636 867 q 433 914 515 914 q 240 861 310 914 q 171 714 171 808 q 201 622 171 657 q 281 565 232 586 q 408 525 331 544 l 444 517 q 622 465 557 489 q 733 392 688 442 q 778 260 778 343 q 734 119 778 181 q 610 23 690 57 q 428 -11 531 -11 m 422 1056 q 378 1076 399 1056 l 250 1214 q 238 1243 238 1226 q 248 1267 238 1257 q 272 1278 258 1278 q 300 1265 289 1278 l 422 1125 l 544 1265 q 572 1279 557 1279 q 597 1269 586 1279 q 607 1243 607 1258 q 594 1214 607 1229 l 467 1076 q 422 1056 447 1056 m 422 1331 q 377 1347 394 1331 q 360 1390 360 1364 q 377 1435 360 1418 q 422 1451 394 1451 q 467 1435 450 1451 q 485 1390 485 1418 q 467 1347 485 1364 q 422 1331 450 1331 z "},"Ş":{"ha":843,"x_min":63,"x_max":778,"o":"m 778 260 q 737 123 778 183 q 621 27 696 63 q 449 -11 546 -8 l 443 -62 q 481 -57 465 -57 q 553 -81 522 -57 q 583 -153 583 -106 q 542 -234 583 -203 q 426 -265 500 -265 q 332 -250 372 -265 q 310 -219 310 -240 q 318 -201 310 -208 q 339 -193 326 -193 q 351 -194 347 -193 q 429 -206 390 -206 q 492 -192 471 -206 q 513 -153 513 -178 q 501 -123 513 -133 q 468 -112 489 -112 q 427 -119 451 -112 q 396 -126 403 -126 q 377 -119 386 -126 q 369 -100 368 -111 l 379 -10 q 208 29 288 -3 q 81 110 129 61 q 63 150 63 125 q 72 176 63 165 q 92 188 81 188 q 124 174 106 188 q 428 65 254 65 q 623 116 554 65 q 692 260 692 167 q 658 347 692 314 q 574 399 625 381 q 436 438 522 418 q 252 489 322 463 q 133 569 182 515 q 85 713 85 622 q 128 858 85 794 q 251 956 172 921 q 433 990 331 990 q 614 959 529 990 q 754 869 699 928 q 772 829 772 851 q 763 803 772 814 q 743 792 754 792 q 711 806 729 792 q 576 890 636 867 q 433 914 515 914 q 240 861 310 914 q 171 714 171 808 q 201 622 171 657 q 281 565 232 586 q 408 525 331 544 l 444 517 q 622 465 557 489 q 733 392 688 442 q 778 260 778 343 z "},"Ŝ":{"ha":843,"x_min":63,"x_max":778,"o":"m 428 -11 q 230 22 325 -11 q 81 110 135 54 q 63 150 63 125 q 72 176 63 165 q 92 188 81 188 q 124 174 106 188 q 428 65 254 65 q 623 116 554 65 q 692 260 692 167 q 658 347 692 314 q 574 399 625 381 q 436 438 522 418 q 252 489 322 463 q 133 569 182 515 q 85 713 85 622 q 128 858 85 794 q 251 956 172 921 q 433 990 331 990 q 614 959 529 990 q 754 869 699 928 q 772 829 772 851 q 763 803 772 814 q 743 792 754 792 q 711 806 729 792 q 576 890 636 867 q 433 914 515 914 q 240 861 310 914 q 171 714 171 808 q 201 622 171 657 q 281 565 232 586 q 408 525 331 544 l 444 517 q 622 465 557 489 q 733 392 688 442 q 778 260 778 343 q 734 119 778 181 q 610 23 690 57 q 428 -11 531 -11 m 300 1068 q 272 1054 288 1054 q 248 1065 258 1054 q 238 1090 238 1075 q 250 1119 238 1106 l 378 1257 q 422 1278 397 1278 q 467 1257 446 1278 l 594 1119 q 607 1090 607 1107 q 597 1066 607 1076 q 572 1056 586 1056 q 544 1068 556 1056 l 422 1210 l 300 1068 z "},"Ș":{"ha":843,"x_min":63,"x_max":778,"o":"m 428 -11 q 230 22 325 -11 q 81 110 135 54 q 63 150 63 125 q 72 176 63 165 q 92 188 81 188 q 124 174 106 188 q 428 65 254 65 q 623 116 554 65 q 692 260 692 167 q 658 347 692 314 q 574 399 625 381 q 436 438 522 418 q 252 489 322 463 q 133 569 182 515 q 85 713 85 622 q 128 858 85 794 q 251 956 172 921 q 433 990 331 990 q 614 959 529 990 q 754 869 699 928 q 772 829 772 851 q 763 803 772 814 q 743 792 754 792 q 711 806 729 792 q 576 890 636 867 q 433 914 515 914 q 240 861 310 914 q 171 714 171 808 q 201 622 171 657 q 281 565 232 586 q 408 525 331 544 l 444 517 q 622 465 557 489 q 733 392 688 442 q 778 260 778 343 q 734 119 778 181 q 610 23 690 57 q 428 -11 531 -11 m 428 -96 q 496 -182 496 -96 q 436 -336 496 -271 q 406 -351 421 -351 q 387 -344 394 -351 q 379 -326 379 -337 q 389 -304 379 -315 q 432 -212 428 -258 q 387 -197 404 -212 q 369 -153 369 -181 q 386 -112 369 -128 q 428 -96 403 -96 z "},"Ṡ":{"ha":843,"x_min":63,"x_max":778,"o":"m 428 -11 q 230 22 325 -11 q 81 110 135 54 q 63 150 63 125 q 72 176 63 165 q 92 188 81 188 q 124 174 106 188 q 428 65 254 65 q 623 116 554 65 q 692 260 692 167 q 658 347 692 314 q 574 399 625 381 q 436 438 522 418 q 252 489 322 463 q 133 569 182 515 q 85 713 85 622 q 128 858 85 794 q 251 956 172 921 q 433 990 331 990 q 614 959 529 990 q 754 869 699 928 q 772 829 772 851 q 763 803 772 814 q 743 792 754 792 q 711 806 729 792 q 576 890 636 867 q 433 914 515 914 q 240 861 310 914 q 171 714 171 808 q 201 622 171 657 q 281 565 232 586 q 408 525 331 544 l 444 517 q 622 465 557 489 q 733 392 688 442 q 778 260 778 343 q 734 119 778 181 q 610 23 690 57 q 428 -11 531 -11 m 422 1108 q 377 1125 394 1108 q 360 1168 360 1142 q 377 1213 360 1196 q 422 1229 394 1229 q 467 1213 450 1229 q 485 1168 485 1196 q 467 1125 485 1142 q 422 1108 450 1108 z "},"Ṣ":{"ha":843,"x_min":63,"x_max":778,"o":"m 428 -11 q 230 22 325 -11 q 81 110 135 54 q 63 150 63 125 q 72 176 63 165 q 92 188 81 188 q 124 174 106 188 q 428 65 254 65 q 623 116 554 65 q 692 260 692 167 q 658 347 692 314 q 574 399 625 381 q 436 438 522 418 q 252 489 322 463 q 133 569 182 515 q 85 713 85 622 q 128 858 85 794 q 251 956 172 921 q 433 990 331 990 q 614 959 529 990 q 754 869 699 928 q 772 829 772 851 q 763 803 772 814 q 743 792 754 792 q 711 806 729 792 q 576 890 636 867 q 433 914 515 914 q 240 861 310 914 q 171 714 171 808 q 201 622 171 657 q 281 565 232 586 q 408 525 331 544 l 444 517 q 622 465 557 489 q 733 392 688 442 q 778 260 778 343 q 734 119 778 181 q 610 23 690 57 q 428 -11 531 -11 m 428 -254 q 384 -237 401 -254 q 367 -193 367 -221 q 384 -150 367 -167 q 428 -133 401 -133 q 472 -150 454 -133 q 489 -193 489 -167 q 472 -237 489 -221 q 428 -254 454 -254 z "},"Ṩ":{"ha":843,"x_min":63,"x_max":778,"o":"m 428 -11 q 230 22 325 -11 q 81 110 135 54 q 63 150 63 125 q 72 176 63 165 q 92 188 81 188 q 124 174 106 188 q 428 65 254 65 q 623 116 554 65 q 692 260 692 167 q 658 347 692 314 q 574 399 625 381 q 436 438 522 418 q 252 489 322 463 q 133 569 182 515 q 85 713 85 622 q 128 858 85 794 q 251 956 172 921 q 433 990 331 990 q 614 959 529 990 q 754 869 699 928 q 772 829 772 851 q 763 803 772 814 q 743 792 754 792 q 711 806 729 792 q 576 890 636 867 q 433 914 515 914 q 240 861 310 914 q 171 714 171 808 q 201 622 171 657 q 281 565 232 586 q 408 525 331 544 l 444 517 q 622 465 557 489 q 733 392 688 442 q 778 260 778 343 q 734 119 778 181 q 610 23 690 57 q 428 -11 531 -11 m 428 -254 q 384 -237 401 -254 q 367 -193 367 -221 q 384 -150 367 -167 q 428 -133 401 -133 q 472 -150 454 -133 q 489 -193 489 -167 q 472 -237 489 -221 q 428 -254 454 -254 m 422 1108 q 377 1125 394 1108 q 360 1168 360 1142 q 377 1213 360 1196 q 422 1229 394 1229 q 467 1213 450 1229 q 485 1168 485 1196 q 467 1125 485 1142 q 422 1108 450 1108 z "},"ẞ":{"ha":947,"x_min":126,"x_max":857,"o":"m 653 510 q 804 426 751 489 q 857 268 857 364 q 819 124 857 186 q 715 27 782 61 q 558 -7 647 -7 q 442 8 496 -7 q 347 53 388 24 q 311 85 321 72 q 301 114 301 99 q 310 138 301 128 q 331 147 318 147 q 375 126 344 147 q 463 81 419 94 q 553 67 506 67 q 715 120 657 67 q 772 269 772 174 q 710 410 772 363 q 526 458 647 458 l 374 458 q 343 470 354 458 q 332 497 332 482 q 343 524 332 513 q 374 535 354 535 l 479 535 q 647 585 588 535 q 707 728 707 636 q 648 864 707 815 q 482 913 589 913 q 278 844 344 913 q 211 631 211 775 l 211 36 q 200 3 211 15 q 169 -8 189 -8 q 138 3 150 -8 q 126 36 126 15 l 126 640 q 483 989 126 989 q 710 919 626 989 q 793 729 793 850 q 756 594 793 651 q 653 510 719 538 z "},"Ə":{"ha":1021,"x_min":89,"x_max":932,"o":"m 481 990 q 721 930 619 990 q 877 757 822 869 q 932 490 932 644 q 881 224 932 338 q 734 50 829 111 q 511 -11 639 -11 q 288 49 383 -11 q 140 219 192 108 q 89 479 89 331 q 144 535 89 535 l 843 535 q 738 816 832 717 q 481 915 644 915 q 333 892 396 915 q 188 806 269 868 q 156 792 171 792 q 136 803 144 792 q 128 829 128 814 q 146 869 128 856 q 297 960 211 929 q 481 990 383 990 m 511 65 q 750 168 663 65 q 844 458 838 271 l 176 458 q 272 169 183 272 q 511 65 360 65 z "},"T":{"ha":819,"x_min":8,"x_max":811,"o":"m 410 -7 q 379 6 390 -7 q 368 38 368 18 l 368 904 l 47 904 q 19 914 29 904 q 8 942 8 924 q 19 969 8 960 q 47 979 29 979 l 772 979 q 800 969 789 979 q 811 942 811 958 q 800 915 811 925 q 772 904 789 904 l 453 904 l 453 38 q 441 6 453 18 q 410 -7 429 -7 z "},"Ŧ":{"ha":819,"x_min":8,"x_max":811,"o":"m 772 979 q 800 969 789 979 q 811 942 811 958 q 800 915 811 925 q 772 904 789 904 l 453 904 l 453 532 l 625 532 q 661 497 661 532 q 651 470 661 479 q 625 461 642 461 l 453 461 l 453 38 q 441 6 453 18 q 410 -7 429 -7 q 379 6 390 -7 q 368 38 368 18 l 368 461 l 199 461 q 171 471 182 461 q 160 497 160 481 q 170 523 160 514 q 199 532 181 532 l 368 532 l 368 904 l 47 904 q 19 914 29 904 q 8 942 8 924 q 19 969 8 960 q 47 979 29 979 l 772 979 z "},"Ť":{"ha":819,"x_min":8,"x_max":811,"o":"m 410 -7 q 379 6 390 -7 q 368 38 368 18 l 368 904 l 47 904 q 19 914 29 904 q 8 942 8 924 q 19 969 8 960 q 47 979 29 979 l 772 979 q 800 969 789 979 q 811 942 811 958 q 800 915 811 925 q 772 904 789 904 l 453 904 l 453 38 q 441 6 453 18 q 410 -7 429 -7 m 410 1056 q 365 1076 386 1056 l 238 1214 q 225 1243 225 1226 q 235 1267 225 1257 q 260 1278 246 1278 q 288 1265 276 1278 l 410 1125 l 532 1265 q 560 1279 544 1279 q 584 1269 574 1279 q 594 1243 594 1258 q 582 1214 594 1229 l 454 1076 q 410 1056 435 1056 z "},"Ţ":{"ha":819,"x_min":8,"x_max":811,"o":"m 772 979 q 800 969 789 979 q 811 942 811 958 q 800 915 811 925 q 772 904 789 904 l 453 904 l 453 38 q 432 -1 453 10 l 425 -62 q 463 -57 447 -57 q 535 -81 504 -57 q 565 -153 565 -106 q 524 -234 565 -203 q 408 -265 482 -265 q 314 -250 354 -265 q 292 -219 292 -240 q 300 -201 292 -208 q 321 -193 308 -193 q 333 -194 329 -193 q 411 -206 372 -206 q 474 -192 453 -206 q 494 -153 494 -178 q 483 -123 494 -133 q 450 -112 471 -112 q 409 -119 433 -112 q 378 -126 385 -126 q 359 -119 368 -126 q 351 -100 350 -111 l 365 28 l 369 28 q 368 38 368 31 l 368 904 l 47 904 q 19 914 29 904 q 8 942 8 924 q 19 969 8 960 q 47 979 29 979 l 772 979 z "},"Ț":{"ha":819,"x_min":8,"x_max":811,"o":"m 410 -7 q 379 6 390 -7 q 368 38 368 18 l 368 904 l 47 904 q 19 914 29 904 q 8 942 8 924 q 19 969 8 960 q 47 979 29 979 l 772 979 q 800 969 789 979 q 811 942 811 958 q 800 915 811 925 q 772 904 789 904 l 453 904 l 453 38 q 441 6 453 18 q 410 -7 429 -7 m 410 -96 q 478 -182 478 -96 q 418 -336 478 -271 q 388 -351 403 -351 q 369 -344 376 -351 q 361 -326 361 -337 q 371 -304 361 -315 q 414 -212 410 -258 q 369 -197 386 -212 q 351 -153 351 -181 q 368 -112 351 -128 q 410 -96 385 -96 z "},"Ṭ":{"ha":819,"x_min":8,"x_max":811,"o":"m 410 -7 q 379 6 390 -7 q 368 38 368 18 l 368 904 l 47 904 q 19 914 29 904 q 8 942 8 924 q 19 969 8 960 q 47 979 29 979 l 772 979 q 800 969 789 979 q 811 942 811 958 q 800 915 811 925 q 772 904 789 904 l 453 904 l 453 38 q 441 6 453 18 q 410 -7 429 -7 m 410 -254 q 366 -237 383 -254 q 349 -193 349 -221 q 366 -150 349 -167 q 410 -133 383 -133 q 453 -150 436 -133 q 471 -193 471 -167 q 453 -237 471 -221 q 410 -254 436 -254 z "},"Ṯ":{"ha":819,"x_min":8,"x_max":811,"o":"m 410 -7 q 379 6 390 -7 q 368 38 368 18 l 368 904 l 47 904 q 19 914 29 904 q 8 942 8 924 q 19 969 8 960 q 47 979 29 979 l 772 979 q 800 969 789 979 q 811 942 811 958 q 800 915 811 925 q 772 904 789 904 l 453 904 l 453 38 q 441 6 453 18 q 410 -7 429 -7 m 242 -229 q 209 -219 221 -229 q 197 -194 197 -210 q 209 -167 197 -176 q 242 -158 221 -158 l 578 -158 q 610 -167 599 -158 q 622 -194 622 -176 q 610 -219 622 -210 q 578 -229 599 -229 l 242 -229 z "},"U":{"ha":1000,"x_min":119,"x_max":879,"o":"m 500 -11 q 216 88 313 -11 q 119 378 119 186 l 119 942 q 131 974 119 963 q 163 986 143 986 q 194 974 182 986 q 206 942 206 963 l 206 368 q 500 65 206 65 q 720 142 646 65 q 794 368 794 218 l 794 942 q 806 974 794 961 q 838 986 818 986 q 868 974 857 986 q 879 942 879 963 l 879 378 q 783 88 879 186 q 500 -11 686 -11 z "},"Ú":{"ha":1000,"x_min":119,"x_max":879,"o":"m 500 -11 q 216 88 313 -11 q 119 378 119 186 l 119 942 q 131 974 119 963 q 163 986 143 986 q 194 974 182 986 q 206 942 206 963 l 206 368 q 500 65 206 65 q 720 142 646 65 q 794 368 794 218 l 794 942 q 806 974 794 961 q 838 986 818 986 q 868 974 857 986 q 879 942 879 963 l 879 378 q 783 88 879 186 q 500 -11 686 -11 m 517 1061 q 500 1056 510 1056 q 483 1063 490 1056 q 475 1079 475 1069 q 483 1097 475 1089 l 626 1257 q 668 1278 646 1278 q 699 1266 686 1278 q 711 1236 711 1254 q 685 1193 711 1214 l 517 1061 z "},"Ŭ":{"ha":1000,"x_min":119,"x_max":879,"o":"m 500 -11 q 216 88 313 -11 q 119 378 119 186 l 119 942 q 131 974 119 963 q 163 986 143 986 q 194 974 182 986 q 206 942 206 963 l 206 368 q 500 65 206 65 q 720 142 646 65 q 794 368 794 218 l 794 942 q 806 974 794 961 q 838 986 818 986 q 868 974 857 986 q 879 942 879 963 l 879 378 q 783 88 879 186 q 500 -11 686 -11 m 500 1081 q 376 1111 431 1081 q 292 1203 322 1142 q 286 1224 286 1214 q 296 1247 286 1238 q 319 1256 306 1256 q 357 1232 343 1256 q 417 1169 383 1188 q 500 1150 451 1150 q 583 1169 549 1150 q 643 1232 617 1188 q 681 1256 657 1256 q 704 1247 694 1256 q 714 1224 714 1238 q 708 1203 714 1213 q 626 1111 681 1142 q 500 1081 571 1081 z "},"Û":{"ha":1000,"x_min":119,"x_max":879,"o":"m 500 -11 q 216 88 313 -11 q 119 378 119 186 l 119 942 q 131 974 119 963 q 163 986 143 986 q 194 974 182 986 q 206 942 206 963 l 206 368 q 500 65 206 65 q 720 142 646 65 q 794 368 794 218 l 794 942 q 806 974 794 961 q 838 986 818 986 q 868 974 857 986 q 879 942 879 963 l 879 378 q 783 88 879 186 q 500 -11 686 -11 m 378 1068 q 350 1054 365 1054 q 326 1065 336 1054 q 315 1090 315 1075 q 328 1119 315 1106 l 456 1257 q 500 1278 475 1278 q 544 1257 524 1278 l 672 1119 q 685 1090 685 1107 q 674 1066 685 1076 q 650 1056 664 1056 q 622 1068 633 1056 l 500 1210 l 378 1068 z "},"Ȕ":{"ha":1000,"x_min":119,"x_max":879,"o":"m 500 -11 q 216 88 313 -11 q 119 378 119 186 l 119 942 q 131 974 119 963 q 163 986 143 986 q 194 974 182 986 q 206 942 206 963 l 206 368 q 500 65 206 65 q 720 142 646 65 q 794 368 794 218 l 794 942 q 806 974 794 961 q 838 986 818 986 q 868 974 857 986 q 879 942 879 963 l 879 378 q 783 88 879 186 q 500 -11 686 -11 m 294 1207 q 281 1243 281 1225 q 290 1269 281 1258 q 315 1279 300 1279 q 338 1271 326 1279 q 357 1247 349 1263 l 438 1088 q 440 1075 440 1083 q 435 1060 440 1065 q 421 1054 429 1054 q 401 1065 410 1054 l 294 1207 m 454 1207 q 440 1243 440 1225 q 450 1269 440 1258 q 475 1279 460 1279 q 497 1271 486 1279 q 517 1247 508 1263 l 597 1088 q 600 1075 600 1083 q 594 1060 600 1065 q 581 1054 589 1054 q 561 1065 569 1054 l 454 1207 z "},"Ü":{"ha":1000,"x_min":119,"x_max":879,"o":"m 500 -11 q 216 88 313 -11 q 119 378 119 186 l 119 942 q 131 974 119 963 q 163 986 143 986 q 194 974 182 986 q 206 942 206 963 l 206 368 q 500 65 206 65 q 720 142 646 65 q 794 368 794 218 l 794 942 q 806 974 794 961 q 838 986 818 986 q 868 974 857 986 q 879 942 879 963 l 879 378 q 783 88 879 186 q 500 -11 686 -11 m 385 1111 q 343 1127 360 1111 q 326 1168 326 1143 q 343 1209 326 1193 q 385 1225 360 1225 q 427 1209 410 1225 q 444 1168 444 1193 q 427 1127 444 1143 q 385 1111 410 1111 m 615 1111 q 573 1127 590 1111 q 556 1168 556 1143 q 573 1209 556 1193 q 615 1225 590 1225 q 657 1209 640 1225 q 674 1168 674 1193 q 657 1127 674 1143 q 615 1111 640 1111 z "},"Ụ":{"ha":1000,"x_min":119,"x_max":879,"o":"m 500 -11 q 216 88 313 -11 q 119 378 119 186 l 119 942 q 131 974 119 963 q 163 986 143 986 q 194 974 182 986 q 206 942 206 963 l 206 368 q 500 65 206 65 q 720 142 646 65 q 794 368 794 218 l 794 942 q 806 974 794 961 q 838 986 818 986 q 868 974 857 986 q 879 942 879 963 l 879 378 q 783 88 879 186 q 500 -11 686 -11 m 500 -254 q 456 -237 474 -254 q 439 -193 439 -221 q 456 -150 439 -167 q 500 -133 474 -133 q 544 -150 526 -133 q 561 -193 561 -167 q 544 -237 561 -221 q 500 -254 526 -254 z "},"Ù":{"ha":1000,"x_min":119,"x_max":879,"o":"m 500 -11 q 216 88 313 -11 q 119 378 119 186 l 119 942 q 131 974 119 963 q 163 986 143 986 q 194 974 182 986 q 206 942 206 963 l 206 368 q 500 65 206 65 q 720 142 646 65 q 794 368 794 218 l 794 942 q 806 974 794 961 q 838 986 818 986 q 868 974 857 986 q 879 942 879 963 l 879 378 q 783 88 879 186 q 500 -11 686 -11 m 315 1193 q 289 1238 289 1214 q 301 1266 289 1254 q 332 1278 314 1278 q 374 1257 354 1278 l 517 1097 q 525 1079 525 1089 q 517 1063 525 1069 q 500 1056 510 1056 q 483 1061 490 1056 l 315 1193 z "},"Ủ":{"ha":1000,"x_min":119,"x_max":879,"o":"m 500 -11 q 216 88 313 -11 q 119 378 119 186 l 119 942 q 131 974 119 963 q 163 986 143 986 q 194 974 182 986 q 206 942 206 963 l 206 368 q 500 65 206 65 q 720 142 646 65 q 794 368 794 218 l 794 942 q 806 974 794 961 q 838 986 818 986 q 868 974 857 986 q 879 942 879 963 l 879 378 q 783 88 879 186 q 500 -11 686 -11 m 535 1079 q 524 1062 533 1068 q 504 1056 515 1056 q 480 1065 490 1056 q 469 1089 469 1074 q 483 1126 469 1113 q 525 1153 497 1139 q 553 1172 544 1164 q 563 1189 563 1179 q 547 1208 563 1201 q 503 1215 531 1215 q 431 1204 468 1215 q 419 1203 426 1203 q 398 1211 406 1203 q 390 1231 390 1219 q 413 1261 390 1251 q 504 1278 454 1278 q 604 1253 568 1278 q 640 1189 640 1229 q 624 1147 640 1161 q 579 1118 608 1132 q 547 1101 558 1110 q 535 1079 536 1092 z "},"Ư":{"ha":1000,"x_min":119,"x_max":1044,"o":"m 1044 1113 q 999 981 1044 1033 q 879 924 954 929 l 879 378 q 783 88 879 186 q 500 -11 686 -11 q 216 88 313 -11 q 119 378 119 186 l 119 942 q 131 974 119 963 q 163 986 143 986 q 194 974 182 986 q 206 942 206 963 l 206 368 q 500 65 206 65 q 720 142 646 65 q 794 368 794 218 l 794 942 q 806 974 794 961 q 836 986 818 986 q 932 1016 903 986 q 965 1119 961 1046 q 1006 1163 967 1163 q 1044 1113 1044 1163 z "},"Ứ":{"ha":1000,"x_min":119,"x_max":1044,"o":"m 1044 1113 q 999 981 1044 1033 q 879 924 954 929 l 879 378 q 783 88 879 186 q 500 -11 686 -11 q 216 88 313 -11 q 119 378 119 186 l 119 942 q 131 974 119 963 q 163 986 143 986 q 194 974 182 986 q 206 942 206 963 l 206 368 q 500 65 206 65 q 720 142 646 65 q 794 368 794 218 l 794 942 q 806 974 794 961 q 836 986 818 986 q 932 1016 903 986 q 965 1119 961 1046 q 1006 1163 967 1163 q 1044 1113 1044 1163 m 517 1061 q 500 1056 510 1056 q 483 1063 490 1056 q 475 1079 475 1069 q 483 1097 475 1089 l 626 1257 q 668 1278 646 1278 q 699 1266 686 1278 q 711 1236 711 1254 q 685 1193 711 1214 l 517 1061 z "},"Ự":{"ha":1000,"x_min":119,"x_max":1044,"o":"m 1044 1113 q 999 981 1044 1033 q 879 924 954 929 l 879 378 q 783 88 879 186 q 500 -11 686 -11 q 216 88 313 -11 q 119 378 119 186 l 119 942 q 131 974 119 963 q 163 986 143 986 q 194 974 182 986 q 206 942 206 963 l 206 368 q 500 65 206 65 q 720 142 646 65 q 794 368 794 218 l 794 942 q 806 974 794 961 q 836 986 818 986 q 932 1016 903 986 q 965 1119 961 1046 q 1006 1163 967 1163 q 1044 1113 1044 1163 m 500 -254 q 456 -237 474 -254 q 439 -193 439 -221 q 456 -150 439 -167 q 500 -133 474 -133 q 544 -150 526 -133 q 561 -193 561 -167 q 544 -237 561 -221 q 500 -254 526 -254 z "},"Ừ":{"ha":1000,"x_min":119,"x_max":1044,"o":"m 1044 1113 q 999 981 1044 1033 q 879 924 954 929 l 879 378 q 783 88 879 186 q 500 -11 686 -11 q 216 88 313 -11 q 119 378 119 186 l 119 942 q 131 974 119 963 q 163 986 143 986 q 194 974 182 986 q 206 942 206 963 l 206 368 q 500 65 206 65 q 720 142 646 65 q 794 368 794 218 l 794 942 q 806 974 794 961 q 836 986 818 986 q 932 1016 903 986 q 965 1119 961 1046 q 1006 1163 967 1163 q 1044 1113 1044 1163 m 315 1193 q 289 1238 289 1214 q 301 1266 289 1254 q 332 1278 314 1278 q 374 1257 354 1278 l 517 1097 q 525 1079 525 1089 q 517 1063 525 1069 q 500 1056 510 1056 q 483 1061 490 1056 l 315 1193 z "},"Ử":{"ha":1000,"x_min":119,"x_max":1044,"o":"m 1044 1113 q 999 981 1044 1033 q 879 924 954 929 l 879 378 q 783 88 879 186 q 500 -11 686 -11 q 216 88 313 -11 q 119 378 119 186 l 119 942 q 131 974 119 963 q 163 986 143 986 q 194 974 182 986 q 206 942 206 963 l 206 368 q 500 65 206 65 q 720 142 646 65 q 794 368 794 218 l 794 942 q 806 974 794 961 q 836 986 818 986 q 932 1016 903 986 q 965 1119 961 1046 q 1006 1163 967 1163 q 1044 1113 1044 1163 m 535 1079 q 524 1062 533 1068 q 504 1056 515 1056 q 480 1065 490 1056 q 469 1089 469 1074 q 483 1126 469 1113 q 525 1153 497 1139 q 553 1172 544 1164 q 563 1189 563 1179 q 547 1208 563 1201 q 503 1215 531 1215 q 431 1204 468 1215 q 419 1203 426 1203 q 398 1211 406 1203 q 390 1231 390 1219 q 413 1261 390 1251 q 504 1278 454 1278 q 604 1253 568 1278 q 640 1189 640 1229 q 624 1147 640 1161 q 579 1118 608 1132 q 547 1101 558 1110 q 535 1079 536 1092 z "},"Ữ":{"ha":1000,"x_min":119,"x_max":1044,"o":"m 1044 1113 q 999 981 1044 1033 q 879 924 954 929 l 879 378 q 783 88 879 186 q 500 -11 686 -11 q 216 88 313 -11 q 119 378 119 186 l 119 942 q 131 974 119 963 q 163 986 143 986 q 194 974 182 986 q 206 942 206 963 l 206 368 q 500 65 206 65 q 720 142 646 65 q 794 368 794 218 l 794 942 q 806 974 794 961 q 836 986 818 986 q 932 1016 903 986 q 965 1119 961 1046 q 1006 1163 967 1163 q 1044 1113 1044 1163 m 596 1101 q 547 1110 572 1101 q 485 1136 522 1119 q 462 1147 481 1139 q 428 1160 443 1156 q 404 1164 414 1164 q 365 1153 379 1164 q 339 1125 351 1143 q 326 1110 333 1117 q 313 1104 319 1104 q 294 1113 301 1104 q 286 1133 286 1121 q 301 1180 286 1156 q 342 1220 315 1204 q 404 1236 369 1236 q 453 1227 428 1236 q 515 1201 478 1218 q 538 1190 519 1199 q 572 1178 557 1182 q 596 1174 586 1174 q 636 1185 622 1174 q 661 1214 650 1196 q 674 1228 667 1222 q 688 1235 681 1235 q 706 1226 699 1235 q 714 1206 714 1217 q 699 1159 714 1183 q 658 1118 685 1135 q 596 1101 631 1101 z "},"Ű":{"ha":1000,"x_min":119,"x_max":879,"o":"m 500 -11 q 216 88 313 -11 q 119 378 119 186 l 119 942 q 131 974 119 963 q 163 986 143 986 q 194 974 182 986 q 206 942 206 963 l 206 368 q 500 65 206 65 q 720 142 646 65 q 794 368 794 218 l 794 942 q 806 974 794 961 q 838 986 818 986 q 868 974 857 986 q 879 942 879 963 l 879 378 q 783 88 879 186 q 500 -11 686 -11 m 439 1065 q 419 1054 431 1054 q 406 1060 411 1054 q 400 1075 400 1065 q 403 1088 400 1083 l 483 1247 q 503 1271 492 1263 q 525 1279 514 1279 q 549 1269 539 1279 q 560 1242 560 1258 q 546 1207 560 1225 l 439 1065 m 599 1065 q 579 1054 590 1054 q 565 1060 571 1054 q 560 1075 560 1065 q 563 1088 560 1083 l 643 1247 q 663 1271 651 1263 q 685 1279 674 1279 q 709 1269 699 1279 q 719 1242 719 1258 q 706 1207 719 1225 l 599 1065 z "},"Ȗ":{"ha":1000,"x_min":119,"x_max":879,"o":"m 500 -11 q 216 88 313 -11 q 119 378 119 186 l 119 942 q 131 974 119 963 q 163 986 143 986 q 194 974 182 986 q 206 942 206 963 l 206 368 q 500 65 206 65 q 720 142 646 65 q 794 368 794 218 l 794 942 q 806 974 794 961 q 838 986 818 986 q 868 974 857 986 q 879 942 879 963 l 879 378 q 783 88 879 186 q 500 -11 686 -11 m 357 1104 q 318 1081 343 1081 q 296 1089 306 1081 q 286 1111 286 1097 q 292 1133 286 1122 q 375 1224 319 1193 q 500 1256 431 1256 q 624 1224 569 1256 q 708 1133 678 1193 q 714 1111 714 1122 q 704 1089 714 1097 q 682 1081 694 1081 q 643 1104 657 1081 q 582 1167 617 1147 q 500 1186 547 1186 q 418 1167 453 1186 q 357 1104 383 1147 z "},"Ū":{"ha":1000,"x_min":119,"x_max":879,"o":"m 500 -11 q 216 88 313 -11 q 119 378 119 186 l 119 942 q 131 974 119 963 q 163 986 143 986 q 194 974 182 986 q 206 942 206 963 l 206 368 q 500 65 206 65 q 720 142 646 65 q 794 368 794 218 l 794 942 q 806 974 794 961 q 838 986 818 986 q 868 974 857 986 q 879 942 879 963 l 879 378 q 783 88 879 186 q 500 -11 686 -11 m 332 1132 q 299 1142 311 1132 q 288 1168 288 1151 q 299 1195 288 1186 q 332 1204 311 1204 l 668 1204 q 701 1195 689 1204 q 713 1168 713 1186 q 701 1142 713 1151 q 668 1132 689 1132 l 332 1132 z "},"Ṻ":{"ha":1000,"x_min":119,"x_max":879,"o":"m 500 -11 q 216 88 313 -11 q 119 378 119 186 l 119 942 q 131 974 119 963 q 163 986 143 986 q 194 974 182 986 q 206 942 206 963 l 206 368 q 500 65 206 65 q 720 142 646 65 q 794 368 794 218 l 794 942 q 806 974 794 961 q 838 986 818 986 q 868 974 857 986 q 879 942 879 963 l 879 378 q 783 88 879 186 q 500 -11 686 -11 m 332 1132 q 299 1142 311 1132 q 288 1168 288 1151 q 299 1195 288 1186 q 332 1204 311 1204 l 668 1204 q 701 1195 689 1204 q 713 1168 713 1186 q 701 1142 713 1151 q 668 1132 689 1132 l 332 1132 m 385 1333 q 343 1349 360 1333 q 326 1390 326 1365 q 343 1431 326 1415 q 385 1447 360 1447 q 427 1431 410 1447 q 444 1390 444 1415 q 427 1349 444 1365 q 385 1333 410 1333 m 615 1333 q 573 1349 590 1333 q 556 1390 556 1365 q 573 1431 556 1415 q 615 1447 590 1447 q 657 1431 640 1447 q 674 1390 674 1415 q 657 1349 674 1365 q 615 1333 640 1333 z "},"Ų":{"ha":1000,"x_min":119,"x_max":879,"o":"m 838 986 q 868 974 857 986 q 879 942 879 963 l 879 378 q 651 10 879 81 q 560 -40 589 -10 q 531 -112 531 -69 q 556 -178 531 -154 q 624 -203 581 -203 q 690 -185 654 -203 q 706 -181 699 -181 q 725 -189 718 -181 q 732 -210 732 -197 q 713 -242 732 -231 q 615 -265 668 -265 q 501 -226 544 -265 q 457 -122 457 -186 q 508 -11 457 -53 l 500 -11 q 216 88 313 -11 q 119 378 119 186 l 119 942 q 131 974 119 963 q 163 986 143 986 q 194 974 182 986 q 206 942 206 963 l 206 368 q 500 65 206 65 q 720 142 646 65 q 794 368 794 218 l 794 942 q 806 974 794 961 q 838 986 818 986 z "},"Ů":{"ha":1000,"x_min":119,"x_max":879,"o":"m 500 -11 q 216 88 313 -11 q 119 378 119 186 l 119 942 q 131 974 119 963 q 163 986 143 986 q 194 974 182 986 q 206 942 206 963 l 206 368 q 500 65 206 65 q 720 142 646 65 q 794 368 794 218 l 794 942 q 806 974 794 961 q 838 986 818 986 q 868 974 857 986 q 879 942 879 963 l 879 378 q 783 88 879 186 q 500 -11 686 -11 m 500 1056 q 403 1094 443 1056 q 363 1190 363 1133 q 403 1285 363 1246 q 500 1325 443 1325 q 597 1285 557 1325 q 638 1190 638 1246 q 597 1094 638 1133 q 500 1056 557 1056 m 500 1118 q 550 1139 531 1118 q 569 1190 569 1160 q 550 1241 569 1221 q 500 1261 531 1261 q 450 1241 469 1261 q 431 1190 431 1221 q 450 1139 431 1160 q 500 1118 469 1118 z "},"Ũ":{"ha":1000,"x_min":119,"x_max":879,"o":"m 500 -11 q 216 88 313 -11 q 119 378 119 186 l 119 942 q 131 974 119 963 q 163 986 143 986 q 194 974 182 986 q 206 942 206 963 l 206 368 q 500 65 206 65 q 720 142 646 65 q 794 368 794 218 l 794 942 q 806 974 794 961 q 838 986 818 986 q 868 974 857 986 q 879 942 879 963 l 879 378 q 783 88 879 186 q 500 -11 686 -11 m 596 1101 q 547 1110 572 1101 q 485 1136 522 1119 q 462 1147 481 1139 q 428 1160 443 1156 q 404 1164 414 1164 q 365 1153 379 1164 q 339 1125 351 1143 q 326 1110 333 1117 q 313 1104 319 1104 q 294 1113 301 1104 q 286 1133 286 1121 q 301 1180 286 1156 q 342 1220 315 1204 q 404 1236 369 1236 q 453 1227 428 1236 q 515 1201 478 1218 q 538 1190 519 1199 q 572 1178 557 1182 q 596 1174 586 1174 q 636 1185 622 1174 q 661 1214 650 1196 q 674 1228 667 1222 q 688 1235 681 1235 q 706 1226 699 1235 q 714 1206 714 1217 q 699 1159 714 1183 q 658 1118 685 1135 q 596 1101 631 1101 z "},"Ṹ":{"ha":1000,"x_min":119,"x_max":879,"o":"m 500 -11 q 216 88 313 -11 q 119 378 119 186 l 119 942 q 131 974 119 963 q 163 986 143 986 q 194 974 182 986 q 206 942 206 963 l 206 368 q 500 65 206 65 q 720 142 646 65 q 794 368 794 218 l 794 942 q 806 974 794 961 q 838 986 818 986 q 868 974 857 986 q 879 942 879 963 l 879 378 q 783 88 879 186 q 500 -11 686 -11 m 596 1101 q 547 1110 572 1101 q 485 1136 522 1119 q 462 1147 481 1139 q 428 1160 443 1156 q 404 1164 414 1164 q 365 1153 379 1164 q 339 1125 351 1143 q 326 1110 333 1117 q 313 1104 319 1104 q 294 1113 301 1104 q 286 1133 286 1121 q 301 1180 286 1156 q 342 1220 315 1204 q 404 1236 369 1236 q 453 1227 428 1236 q 515 1201 478 1218 q 538 1190 519 1199 q 572 1178 557 1182 q 596 1174 586 1174 q 636 1185 622 1174 q 661 1214 650 1196 q 674 1228 667 1222 q 688 1235 681 1235 q 706 1226 699 1235 q 714 1206 714 1217 q 699 1159 714 1183 q 658 1118 685 1135 q 596 1101 631 1101 m 517 1283 q 500 1278 510 1278 q 483 1285 490 1278 q 475 1301 475 1292 q 483 1319 475 1311 l 626 1479 q 668 1500 646 1500 q 699 1488 686 1500 q 711 1458 711 1476 q 685 1415 711 1436 l 517 1283 z "},"V":{"ha":944,"x_min":18,"x_max":928,"o":"m 849 964 q 885 988 858 988 q 915 977 901 988 q 928 951 928 967 q 924 935 928 943 l 519 24 q 501 1 514 10 q 472 -7 488 -7 q 445 1 458 -7 q 425 24 432 8 l 22 935 q 18 950 18 943 q 31 977 18 967 q 61 988 44 988 q 97 964 88 988 l 474 113 l 849 964 z "},"W":{"ha":1522,"x_min":54,"x_max":1469,"o":"m 1390 961 q 1426 988 1400 988 q 1456 976 1443 988 q 1469 949 1469 965 q 1467 935 1469 946 l 1144 24 q 1126 0 1139 8 q 1097 -8 1113 -8 q 1071 0 1083 -8 q 1053 24 1058 8 l 763 846 l 469 24 q 451 0 464 8 q 424 -8 439 -8 q 397 0 410 -8 q 379 24 385 8 l 57 935 q 54 950 54 946 q 67 977 54 967 q 96 988 79 988 q 118 981 108 988 q 133 961 128 974 l 426 119 l 718 950 q 735 975 724 967 q 761 983 747 983 q 789 974 776 983 q 807 949 801 965 l 1097 119 l 1390 961 z "},"Ẃ":{"ha":1522,"x_min":54,"x_max":1469,"o":"m 1390 961 q 1426 988 1400 988 q 1456 976 1443 988 q 1469 949 1469 965 q 1467 935 1469 946 l 1144 24 q 1126 0 1139 8 q 1097 -8 1113 -8 q 1071 0 1083 -8 q 1053 24 1058 8 l 763 846 l 469 24 q 451 0 464 8 q 424 -8 439 -8 q 397 0 410 -8 q 379 24 385 8 l 57 935 q 54 950 54 946 q 67 977 54 967 q 96 988 79 988 q 118 981 108 988 q 133 961 128 974 l 426 119 l 718 950 q 735 975 724 967 q 761 983 747 983 q 789 974 776 983 q 807 949 801 965 l 1097 119 l 1390 961 m 778 1061 q 761 1056 771 1056 q 744 1063 751 1056 q 736 1079 736 1069 q 744 1097 736 1089 l 888 1257 q 929 1278 907 1278 q 960 1266 947 1278 q 972 1236 972 1254 q 946 1193 972 1214 l 778 1061 z "},"Ŵ":{"ha":1522,"x_min":54,"x_max":1469,"o":"m 1390 961 q 1426 988 1400 988 q 1456 976 1443 988 q 1469 949 1469 965 q 1467 935 1469 946 l 1144 24 q 1126 0 1139 8 q 1097 -8 1113 -8 q 1071 0 1083 -8 q 1053 24 1058 8 l 763 846 l 469 24 q 451 0 464 8 q 424 -8 439 -8 q 397 0 410 -8 q 379 24 385 8 l 57 935 q 54 950 54 946 q 67 977 54 967 q 96 988 79 988 q 118 981 108 988 q 133 961 128 974 l 426 119 l 718 950 q 735 975 724 967 q 761 983 747 983 q 789 974 776 983 q 807 949 801 965 l 1097 119 l 1390 961 m 639 1068 q 611 1054 626 1054 q 587 1065 597 1054 q 576 1090 576 1075 q 589 1119 576 1106 l 717 1257 q 761 1278 736 1278 q 806 1257 785 1278 l 933 1119 q 946 1090 946 1107 q 935 1066 946 1076 q 911 1056 925 1056 q 883 1068 894 1056 l 761 1210 l 639 1068 z "},"Ẅ":{"ha":1522,"x_min":54,"x_max":1469,"o":"m 1390 961 q 1426 988 1400 988 q 1456 976 1443 988 q 1469 949 1469 965 q 1467 935 1469 946 l 1144 24 q 1126 0 1139 8 q 1097 -8 1113 -8 q 1071 0 1083 -8 q 1053 24 1058 8 l 763 846 l 469 24 q 451 0 464 8 q 424 -8 439 -8 q 397 0 410 -8 q 379 24 385 8 l 57 935 q 54 950 54 946 q 67 977 54 967 q 96 988 79 988 q 118 981 108 988 q 133 961 128 974 l 426 119 l 718 950 q 735 975 724 967 q 761 983 747 983 q 789 974 776 983 q 807 949 801 965 l 1097 119 l 1390 961 m 646 1111 q 604 1127 621 1111 q 588 1168 588 1143 q 604 1209 588 1193 q 646 1225 621 1225 q 688 1209 671 1225 q 706 1168 706 1193 q 688 1127 706 1143 q 646 1111 671 1111 m 876 1111 q 834 1127 851 1111 q 817 1168 817 1143 q 834 1209 817 1193 q 876 1225 851 1225 q 918 1209 901 1225 q 935 1168 935 1193 q 918 1127 935 1143 q 876 1111 901 1111 z "},"Ẁ":{"ha":1522,"x_min":54,"x_max":1469,"o":"m 1390 961 q 1426 988 1400 988 q 1456 976 1443 988 q 1469 949 1469 965 q 1467 935 1469 946 l 1144 24 q 1126 0 1139 8 q 1097 -8 1113 -8 q 1071 0 1083 -8 q 1053 24 1058 8 l 763 846 l 469 24 q 451 0 464 8 q 424 -8 439 -8 q 397 0 410 -8 q 379 24 385 8 l 57 935 q 54 950 54 946 q 67 977 54 967 q 96 988 79 988 q 118 981 108 988 q 133 961 128 974 l 426 119 l 718 950 q 735 975 724 967 q 761 983 747 983 q 789 974 776 983 q 807 949 801 965 l 1097 119 l 1390 961 m 576 1193 q 550 1238 550 1214 q 563 1266 550 1254 q 593 1278 575 1278 q 635 1257 615 1278 l 778 1097 q 786 1079 786 1089 q 778 1063 786 1069 q 761 1056 771 1056 q 744 1061 751 1056 l 576 1193 z "},"X":{"ha":886,"x_min":38,"x_max":847,"o":"m 838 60 q 847 33 847 49 q 835 6 847 18 q 807 -6 824 -6 q 775 11 788 -6 l 443 439 l 108 11 q 78 -6 94 -6 q 50 6 63 -6 q 38 33 38 18 q 47 60 38 49 l 393 501 l 65 919 q 56 946 56 931 q 67 973 56 961 q 94 985 79 985 q 126 968 114 985 l 443 564 l 758 968 q 790 985 771 985 q 818 973 806 985 q 831 946 831 961 q 821 919 831 931 l 493 501 l 838 60 z "},"Y":{"ha":821,"x_min":11,"x_max":808,"o":"m 740 968 q 771 985 753 985 q 797 974 786 985 q 808 946 808 963 q 799 919 808 931 l 451 472 l 451 38 q 440 6 451 18 q 410 -7 429 -7 q 378 6 390 -7 q 367 38 367 18 l 367 475 l 21 919 q 11 946 11 931 q 22 973 11 961 q 49 985 33 985 q 79 968 67 985 l 410 540 l 740 968 z "},"Ý":{"ha":821,"x_min":11,"x_max":808,"o":"m 740 968 q 771 985 753 985 q 797 974 786 985 q 808 946 808 963 q 799 919 808 931 l 451 472 l 451 38 q 440 6 451 18 q 410 -7 429 -7 q 378 6 390 -7 q 367 38 367 18 l 367 475 l 21 919 q 11 946 11 931 q 22 973 11 961 q 49 985 33 985 q 79 968 67 985 l 410 540 l 740 968 m 426 1061 q 410 1056 419 1056 q 392 1063 400 1056 q 385 1079 385 1069 q 393 1097 385 1089 l 536 1257 q 578 1278 556 1278 q 608 1266 596 1278 q 621 1236 621 1254 q 594 1193 621 1214 l 426 1061 z "},"Ŷ":{"ha":821,"x_min":11,"x_max":808,"o":"m 740 968 q 771 985 753 985 q 797 974 786 985 q 808 946 808 963 q 799 919 808 931 l 451 472 l 451 38 q 440 6 451 18 q 410 -7 429 -7 q 378 6 390 -7 q 367 38 367 18 l 367 475 l 21 919 q 11 946 11 931 q 22 973 11 961 q 49 985 33 985 q 79 968 67 985 l 410 540 l 740 968 m 288 1068 q 260 1054 275 1054 q 235 1065 246 1054 q 225 1090 225 1075 q 238 1119 225 1106 l 365 1257 q 410 1278 385 1278 q 454 1257 433 1278 l 582 1119 q 594 1090 594 1107 q 584 1066 594 1076 q 560 1056 574 1056 q 532 1068 543 1056 l 410 1210 l 288 1068 z "},"Ÿ":{"ha":821,"x_min":11,"x_max":808,"o":"m 740 968 q 771 985 753 985 q 797 974 786 985 q 808 946 808 963 q 799 919 808 931 l 451 472 l 451 38 q 440 6 451 18 q 410 -7 429 -7 q 378 6 390 -7 q 367 38 367 18 l 367 475 l 21 919 q 11 946 11 931 q 22 973 11 961 q 49 985 33 985 q 79 968 67 985 l 410 540 l 740 968 m 294 1111 q 253 1127 269 1111 q 236 1168 236 1143 q 253 1209 236 1193 q 294 1225 269 1225 q 337 1209 319 1225 q 354 1168 354 1193 q 337 1127 354 1143 q 294 1111 319 1111 m 525 1111 q 483 1127 500 1111 q 465 1168 465 1143 q 483 1209 465 1193 q 525 1225 500 1225 q 567 1209 550 1225 q 583 1168 583 1193 q 567 1127 583 1143 q 525 1111 550 1111 z "},"Ẏ":{"ha":821,"x_min":11,"x_max":808,"o":"m 740 968 q 771 985 753 985 q 797 974 786 985 q 808 946 808 963 q 799 919 808 931 l 451 472 l 451 38 q 440 6 451 18 q 410 -7 429 -7 q 378 6 390 -7 q 367 38 367 18 l 367 475 l 21 919 q 11 946 11 931 q 22 973 11 961 q 49 985 33 985 q 79 968 67 985 l 410 540 l 740 968 m 410 1108 q 365 1125 382 1108 q 347 1168 347 1142 q 365 1213 347 1196 q 410 1229 382 1229 q 455 1213 438 1229 q 472 1168 472 1196 q 455 1125 472 1142 q 410 1108 438 1108 z "},"Ỵ":{"ha":821,"x_min":11,"x_max":808,"o":"m 740 968 q 771 985 753 985 q 797 974 786 985 q 808 946 808 963 q 799 919 808 931 l 451 472 l 451 38 q 440 6 451 18 q 410 -7 429 -7 q 378 6 390 -7 q 367 38 367 18 l 367 475 l 21 919 q 11 946 11 931 q 22 973 11 961 q 49 985 33 985 q 79 968 67 985 l 410 540 l 740 968 m 410 -254 q 366 -237 383 -254 q 349 -193 349 -221 q 366 -150 349 -167 q 410 -133 383 -133 q 453 -150 436 -133 q 471 -193 471 -167 q 453 -237 471 -221 q 410 -254 436 -254 z "},"Ỳ":{"ha":821,"x_min":11,"x_max":808,"o":"m 740 968 q 771 985 753 985 q 797 974 786 985 q 808 946 808 963 q 799 919 808 931 l 451 472 l 451 38 q 440 6 451 18 q 410 -7 429 -7 q 378 6 390 -7 q 367 38 367 18 l 367 475 l 21 919 q 11 946 11 931 q 22 973 11 961 q 49 985 33 985 q 79 968 67 985 l 410 540 l 740 968 m 225 1193 q 199 1238 199 1214 q 211 1266 199 1254 q 242 1278 224 1278 q 283 1257 264 1278 l 426 1097 q 435 1079 435 1089 q 427 1063 435 1069 q 410 1056 419 1056 q 393 1061 400 1056 l 225 1193 z "},"Ỷ":{"ha":821,"x_min":11,"x_max":808,"o":"m 740 968 q 771 985 753 985 q 797 974 786 985 q 808 946 808 963 q 799 919 808 931 l 451 472 l 451 38 q 440 6 451 18 q 410 -7 429 -7 q 378 6 390 -7 q 367 38 367 18 l 367 475 l 21 919 q 11 946 11 931 q 22 973 11 961 q 49 985 33 985 q 79 968 67 985 l 410 540 l 740 968 m 444 1079 q 434 1062 443 1068 q 414 1056 425 1056 q 390 1065 400 1056 q 379 1089 379 1074 q 393 1126 379 1113 q 435 1153 407 1139 q 463 1172 454 1164 q 472 1189 472 1179 q 456 1208 472 1201 q 413 1215 440 1215 q 340 1204 378 1215 q 329 1203 336 1203 q 308 1211 315 1203 q 300 1231 300 1219 q 322 1261 300 1251 q 414 1278 364 1278 q 514 1253 478 1278 q 550 1189 550 1229 q 534 1147 550 1161 q 489 1118 518 1132 q 457 1101 468 1110 q 444 1079 446 1092 z "},"Ȳ":{"ha":821,"x_min":11,"x_max":808,"o":"m 740 968 q 771 985 753 985 q 797 974 786 985 q 808 946 808 963 q 799 919 808 931 l 451 472 l 451 38 q 440 6 451 18 q 410 -7 429 -7 q 378 6 390 -7 q 367 38 367 18 l 367 475 l 21 919 q 11 946 11 931 q 22 973 11 961 q 49 985 33 985 q 79 968 67 985 l 410 540 l 740 968 m 242 1132 q 209 1142 221 1132 q 197 1168 197 1151 q 209 1195 197 1186 q 242 1204 221 1204 l 578 1204 q 610 1195 599 1204 q 622 1168 622 1186 q 610 1142 622 1151 q 578 1132 599 1132 l 242 1132 z "},"Ỹ":{"ha":821,"x_min":11,"x_max":808,"o":"m 740 968 q 771 985 753 985 q 797 974 786 985 q 808 946 808 963 q 799 919 808 931 l 451 472 l 451 38 q 440 6 451 18 q 410 -7 429 -7 q 378 6 390 -7 q 367 38 367 18 l 367 475 l 21 919 q 11 946 11 931 q 22 973 11 961 q 49 985 33 985 q 79 968 67 985 l 410 540 l 740 968 m 506 1101 q 457 1110 482 1101 q 394 1136 432 1119 q 372 1147 390 1139 q 338 1160 353 1156 q 314 1164 324 1164 q 275 1153 289 1164 q 249 1125 261 1143 q 236 1110 243 1117 q 222 1104 229 1104 q 203 1113 211 1104 q 196 1133 196 1121 q 210 1180 196 1156 q 252 1220 225 1204 q 314 1236 279 1236 q 363 1227 338 1236 q 425 1201 388 1218 q 448 1190 429 1199 q 481 1178 467 1182 q 506 1174 496 1174 q 546 1185 532 1174 q 571 1214 560 1196 q 583 1228 576 1222 q 597 1235 590 1235 q 616 1226 608 1235 q 624 1206 624 1217 q 609 1159 624 1183 q 567 1118 594 1135 q 506 1101 540 1101 z "},"Z":{"ha":811,"x_min":53,"x_max":768,"o":"m 728 74 q 758 65 747 74 q 768 38 768 56 q 758 10 768 19 q 728 0 747 0 l 94 0 q 64 10 75 0 q 53 36 53 19 q 65 69 53 53 l 646 906 l 92 906 q 65 915 75 906 q 54 942 54 925 q 65 969 54 960 q 92 979 75 979 l 713 979 q 743 969 732 979 q 754 942 754 958 q 743 910 754 925 l 161 74 l 728 74 z "},"Ź":{"ha":811,"x_min":53,"x_max":768,"o":"m 728 74 q 758 65 747 74 q 768 38 768 56 q 758 10 768 19 q 728 0 747 0 l 94 0 q 64 10 75 0 q 53 36 53 19 q 65 69 53 53 l 646 906 l 92 906 q 65 915 75 906 q 54 942 54 925 q 65 969 54 960 q 92 979 75 979 l 713 979 q 743 969 732 979 q 754 942 754 958 q 743 910 754 925 l 161 74 l 728 74 m 421 1061 q 404 1056 414 1056 q 387 1063 394 1056 q 379 1079 379 1069 q 388 1097 379 1089 l 531 1257 q 572 1278 550 1278 q 603 1266 590 1278 q 615 1236 615 1254 q 589 1193 615 1214 l 421 1061 z "},"Ž":{"ha":811,"x_min":53,"x_max":768,"o":"m 728 74 q 758 65 747 74 q 768 38 768 56 q 758 10 768 19 q 728 0 747 0 l 94 0 q 64 10 75 0 q 53 36 53 19 q 65 69 53 53 l 646 906 l 92 906 q 65 915 75 906 q 54 942 54 925 q 65 969 54 960 q 92 979 75 979 l 713 979 q 743 969 732 979 q 754 942 754 958 q 743 910 754 925 l 161 74 l 728 74 m 404 1056 q 360 1076 381 1056 l 232 1214 q 219 1243 219 1226 q 230 1267 219 1257 q 254 1278 240 1278 q 282 1265 271 1278 l 404 1125 l 526 1265 q 554 1279 539 1279 q 578 1269 568 1279 q 589 1243 589 1258 q 576 1214 589 1229 l 449 1076 q 404 1056 429 1056 z "},"Ż":{"ha":811,"x_min":53,"x_max":768,"o":"m 728 74 q 758 65 747 74 q 768 38 768 56 q 758 10 768 19 q 728 0 747 0 l 94 0 q 64 10 75 0 q 53 36 53 19 q 65 69 53 53 l 646 906 l 92 906 q 65 915 75 906 q 54 942 54 925 q 65 969 54 960 q 92 979 75 979 l 713 979 q 743 969 732 979 q 754 942 754 958 q 743 910 754 925 l 161 74 l 728 74 m 404 1108 q 359 1125 376 1108 q 342 1168 342 1142 q 359 1213 342 1196 q 404 1229 376 1229 q 449 1213 432 1229 q 467 1168 467 1196 q 449 1125 467 1142 q 404 1108 432 1108 z "},"Ẓ":{"ha":811,"x_min":53,"x_max":768,"o":"m 728 74 q 758 65 747 74 q 768 38 768 56 q 758 10 768 19 q 728 0 747 0 l 94 0 q 64 10 75 0 q 53 36 53 19 q 65 69 53 53 l 646 906 l 92 906 q 65 915 75 906 q 54 942 54 925 q 65 969 54 960 q 92 979 75 979 l 713 979 q 743 969 732 979 q 754 942 754 958 q 743 910 754 925 l 161 74 l 728 74 m 414 -254 q 370 -237 388 -254 q 353 -193 353 -221 q 370 -150 353 -167 q 414 -133 388 -133 q 458 -150 440 -133 q 475 -193 475 -167 q 458 -237 475 -221 q 414 -254 440 -254 z "},"a":{"ha":731,"x_min":89,"x_max":621,"o":"m 378 690 q 560 626 500 690 q 621 433 621 563 l 621 38 q 610 6 621 18 q 579 -6 599 -6 q 549 6 560 -6 q 538 38 538 18 l 538 121 q 453 24 508 58 q 325 -10 397 -10 q 206 17 260 -10 q 120 90 151 43 q 89 194 89 138 q 128 311 89 269 q 257 371 167 353 q 508 389 347 389 l 538 389 l 538 440 q 500 574 538 532 q 382 617 463 617 q 186 563 279 617 q 165 548 182 560 q 135 536 147 536 q 112 547 121 536 q 103 572 103 557 q 151 632 103 603 q 260 675 200 660 q 378 690 319 690 m 332 64 q 480 125 422 64 q 538 281 538 186 l 538 326 l 511 326 q 307 315 378 326 q 207 277 236 304 q 178 199 178 250 q 222 102 178 140 q 332 64 267 64 z "},"á":{"ha":731,"x_min":89,"x_max":625,"o":"m 378 690 q 560 626 500 690 q 621 433 621 563 l 621 38 q 610 6 621 18 q 579 -6 599 -6 q 549 6 560 -6 q 538 38 538 18 l 538 121 q 453 24 508 58 q 325 -10 397 -10 q 206 17 260 -10 q 120 90 151 43 q 89 194 89 138 q 128 311 89 269 q 257 371 167 353 q 508 389 347 389 l 538 389 l 538 440 q 500 574 538 532 q 382 617 463 617 q 186 563 279 617 q 165 548 182 560 q 135 536 147 536 q 112 547 121 536 q 103 572 103 557 q 151 632 103 603 q 260 675 200 660 q 378 690 319 690 m 332 64 q 480 125 422 64 q 538 281 538 186 l 538 326 l 511 326 q 307 315 378 326 q 207 277 236 304 q 178 199 178 250 q 222 102 178 140 q 332 64 267 64 m 397 765 q 378 757 389 757 q 360 764 368 757 q 353 781 353 771 q 360 799 353 789 l 533 1022 q 582 1050 554 1050 q 613 1038 600 1050 q 625 1008 625 1026 q 601 963 625 985 l 397 765 z "},"ă":{"ha":731,"x_min":89,"x_max":621,"o":"m 378 690 q 560 626 500 690 q 621 433 621 563 l 621 38 q 610 6 621 18 q 579 -6 599 -6 q 549 6 560 -6 q 538 38 538 18 l 538 121 q 453 24 508 58 q 325 -10 397 -10 q 206 17 260 -10 q 120 90 151 43 q 89 194 89 138 q 128 311 89 269 q 257 371 167 353 q 508 389 347 389 l 538 389 l 538 440 q 500 574 538 532 q 382 617 463 617 q 186 563 279 617 q 165 548 182 560 q 135 536 147 536 q 112 547 121 536 q 103 572 103 557 q 151 632 103 603 q 260 675 200 660 q 378 690 319 690 m 332 64 q 480 125 422 64 q 538 281 538 186 l 538 326 l 511 326 q 307 315 378 326 q 207 277 236 304 q 178 199 178 250 q 222 102 178 140 q 332 64 267 64 m 378 808 q 253 843 308 808 q 169 944 199 878 q 165 965 165 956 q 176 990 165 981 q 201 1000 186 1000 q 223 993 213 1000 q 239 974 233 986 q 378 878 285 878 q 517 974 471 878 q 556 1000 531 1000 q 580 990 569 1000 q 590 964 590 981 q 586 944 590 956 q 503 844 560 879 q 378 808 447 808 z "},"ắ":{"ha":731,"x_min":89,"x_max":621,"o":"m 378 690 q 560 626 500 690 q 621 433 621 563 l 621 38 q 610 6 621 18 q 579 -6 599 -6 q 549 6 560 -6 q 538 38 538 18 l 538 121 q 453 24 508 58 q 325 -10 397 -10 q 206 17 260 -10 q 120 90 151 43 q 89 194 89 138 q 128 311 89 269 q 257 371 167 353 q 508 389 347 389 l 538 389 l 538 440 q 500 574 538 532 q 382 617 463 617 q 186 563 279 617 q 165 548 182 560 q 135 536 147 536 q 112 547 121 536 q 103 572 103 557 q 151 632 103 603 q 260 675 200 660 q 378 690 319 690 m 332 64 q 480 125 422 64 q 538 281 538 186 l 538 326 l 511 326 q 307 315 378 326 q 207 277 236 304 q 178 199 178 250 q 222 102 178 140 q 332 64 267 64 m 394 904 q 378 899 388 899 q 361 905 368 899 q 354 921 354 911 q 363 940 354 931 l 496 1088 q 539 1110 517 1110 q 565 1099 554 1110 q 576 1071 576 1088 q 550 1025 576 1046 l 394 904 m 378 757 q 254 788 308 757 q 169 879 200 819 q 164 901 164 890 q 173 924 164 915 q 196 933 182 933 q 235 908 218 933 q 296 845 261 865 q 378 825 331 825 q 460 845 425 825 q 521 908 494 865 q 560 932 536 932 q 582 923 572 932 q 592 900 592 914 q 586 879 592 889 q 503 788 558 819 q 378 757 447 757 z "},"ặ":{"ha":731,"x_min":89,"x_max":621,"o":"m 378 690 q 560 626 500 690 q 621 433 621 563 l 621 38 q 610 6 621 18 q 579 -6 599 -6 q 549 6 560 -6 q 538 38 538 18 l 538 121 q 453 24 508 58 q 325 -10 397 -10 q 206 17 260 -10 q 120 90 151 43 q 89 194 89 138 q 128 311 89 269 q 257 371 167 353 q 508 389 347 389 l 538 389 l 538 440 q 500 574 538 532 q 382 617 463 617 q 186 563 279 617 q 165 548 182 560 q 135 536 147 536 q 112 547 121 536 q 103 572 103 557 q 151 632 103 603 q 260 675 200 660 q 378 690 319 690 m 332 64 q 480 125 422 64 q 538 281 538 186 l 538 326 l 511 326 q 307 315 378 326 q 207 277 236 304 q 178 199 178 250 q 222 102 178 140 q 332 64 267 64 m 374 -254 q 330 -237 347 -254 q 313 -193 313 -221 q 330 -150 313 -167 q 374 -133 347 -133 q 417 -150 400 -133 q 435 -193 435 -167 q 417 -237 435 -221 q 374 -254 400 -254 m 378 808 q 253 843 308 808 q 169 944 199 878 q 165 965 165 956 q 176 990 165 981 q 201 1000 186 1000 q 223 993 213 1000 q 239 974 233 986 q 378 878 285 878 q 517 974 471 878 q 556 1000 531 1000 q 580 990 569 1000 q 590 964 590 981 q 586 944 590 956 q 503 844 560 879 q 378 808 447 808 z "},"ằ":{"ha":731,"x_min":89,"x_max":621,"o":"m 378 690 q 560 626 500 690 q 621 433 621 563 l 621 38 q 610 6 621 18 q 579 -6 599 -6 q 549 6 560 -6 q 538 38 538 18 l 538 121 q 453 24 508 58 q 325 -10 397 -10 q 206 17 260 -10 q 120 90 151 43 q 89 194 89 138 q 128 311 89 269 q 257 371 167 353 q 508 389 347 389 l 538 389 l 538 440 q 500 574 538 532 q 382 617 463 617 q 186 563 279 617 q 165 548 182 560 q 135 536 147 536 q 112 547 121 536 q 103 572 103 557 q 151 632 103 603 q 260 675 200 660 q 378 690 319 690 m 332 64 q 480 125 422 64 q 538 281 538 186 l 538 326 l 511 326 q 307 315 378 326 q 207 277 236 304 q 178 199 178 250 q 222 102 178 140 q 332 64 267 64 m 206 1025 q 178 1071 178 1047 q 189 1099 178 1088 q 217 1110 200 1110 q 260 1088 239 1110 l 393 940 q 401 921 401 931 q 394 905 401 911 q 378 899 388 899 q 361 904 368 899 l 206 1025 m 378 757 q 254 788 308 757 q 169 879 200 819 q 164 901 164 890 q 174 924 164 915 q 196 932 183 932 q 235 908 219 932 q 296 845 261 865 q 378 825 331 825 q 460 845 425 825 q 521 908 494 865 q 560 932 536 932 q 582 924 572 932 q 592 901 592 915 q 586 879 592 890 q 503 788 558 819 q 378 757 447 757 z "},"ẳ":{"ha":731,"x_min":89,"x_max":621,"o":"m 378 690 q 560 626 500 690 q 621 433 621 563 l 621 38 q 610 6 621 18 q 579 -6 599 -6 q 549 6 560 -6 q 538 38 538 18 l 538 121 q 453 24 508 58 q 325 -10 397 -10 q 206 17 260 -10 q 120 90 151 43 q 89 194 89 138 q 128 311 89 269 q 257 371 167 353 q 508 389 347 389 l 538 389 l 538 440 q 500 574 538 532 q 382 617 463 617 q 186 563 279 617 q 165 548 182 560 q 135 536 147 536 q 112 547 121 536 q 103 572 103 557 q 151 632 103 603 q 260 675 200 660 q 378 690 319 690 m 332 64 q 480 125 422 64 q 538 281 538 186 l 538 326 l 511 326 q 307 315 378 326 q 207 277 236 304 q 178 199 178 250 q 222 102 178 140 q 332 64 267 64 m 410 922 q 400 905 408 911 q 381 899 392 899 q 359 908 368 899 q 350 932 350 917 q 364 965 350 953 q 406 990 378 976 q 433 1006 424 1000 q 442 1021 442 1013 q 425 1040 442 1033 q 381 1047 408 1047 q 308 1036 346 1047 q 297 1035 304 1035 q 276 1043 283 1035 q 268 1063 268 1051 q 290 1093 268 1083 q 382 1110 332 1110 q 481 1086 444 1110 q 518 1025 518 1063 q 502 984 518 997 q 453 956 486 971 q 422 940 433 947 q 410 922 411 933 m 378 757 q 254 788 308 757 q 169 879 200 819 q 164 901 164 890 q 174 924 164 915 q 196 932 183 932 q 235 908 219 932 q 296 845 261 865 q 378 825 331 825 q 460 845 425 825 q 521 908 494 865 q 560 932 536 932 q 582 924 572 932 q 592 901 592 915 q 586 879 592 890 q 503 788 558 819 q 378 757 447 757 z "},"ẵ":{"ha":731,"x_min":89,"x_max":621,"o":"m 378 690 q 560 626 500 690 q 621 433 621 563 l 621 38 q 610 6 621 18 q 579 -6 599 -6 q 549 6 560 -6 q 538 38 538 18 l 538 121 q 453 24 508 58 q 325 -10 397 -10 q 206 17 260 -10 q 120 90 151 43 q 89 194 89 138 q 128 311 89 269 q 257 371 167 353 q 508 389 347 389 l 538 389 l 538 440 q 500 574 538 532 q 382 617 463 617 q 186 563 279 617 q 165 548 182 560 q 135 536 147 536 q 112 547 121 536 q 103 572 103 557 q 151 632 103 603 q 260 675 200 660 q 378 690 319 690 m 332 64 q 480 125 422 64 q 538 281 538 186 l 538 326 l 511 326 q 307 315 378 326 q 207 277 236 304 q 178 199 178 250 q 222 102 178 140 q 332 64 267 64 m 474 976 q 425 985 450 976 q 363 1011 400 994 q 340 1022 358 1014 q 306 1035 321 1031 q 282 1039 292 1039 q 242 1028 256 1039 q 217 999 228 1017 q 204 984 211 990 q 190 978 197 978 q 172 987 179 978 q 164 1007 164 996 q 178 1053 164 1029 q 220 1092 193 1076 q 282 1108 247 1108 q 331 1099 306 1108 q 393 1074 356 1090 q 437 1056 415 1064 q 474 1047 458 1047 q 513 1058 499 1047 q 539 1086 526 1068 q 551 1101 544 1094 q 565 1107 558 1107 q 584 1099 576 1107 q 592 1078 592 1090 q 577 1032 592 1056 q 535 992 563 1008 q 474 976 508 976 m 378 757 q 254 788 308 757 q 169 879 200 819 q 164 900 164 890 q 174 923 164 914 q 197 932 183 932 q 235 908 221 932 q 296 845 261 865 q 378 825 331 825 q 460 845 425 825 q 521 908 494 865 q 560 932 535 932 q 582 924 572 932 q 592 901 592 915 q 586 879 592 890 q 503 788 558 819 q 378 757 447 757 z "},"ǎ":{"ha":731,"x_min":89,"x_max":621,"o":"m 378 690 q 560 626 500 690 q 621 433 621 563 l 621 38 q 610 6 621 18 q 579 -6 599 -6 q 549 6 560 -6 q 538 38 538 18 l 538 121 q 453 24 508 58 q 325 -10 397 -10 q 206 17 260 -10 q 120 90 151 43 q 89 194 89 138 q 128 311 89 269 q 257 371 167 353 q 508 389 347 389 l 538 389 l 538 440 q 500 574 538 532 q 382 617 463 617 q 186 563 279 617 q 165 548 182 560 q 135 536 147 536 q 112 547 121 536 q 103 572 103 557 q 151 632 103 603 q 260 675 200 660 q 378 690 319 690 m 332 64 q 480 125 422 64 q 538 281 538 186 l 538 326 l 511 326 q 307 315 378 326 q 207 277 236 304 q 178 199 178 250 q 222 102 178 140 q 332 64 267 64 m 378 757 q 353 765 364 757 q 332 786 343 772 l 201 988 q 193 1013 193 1000 q 204 1038 193 1028 q 229 1049 215 1049 q 263 1028 250 1049 l 378 835 l 493 1028 q 525 1049 506 1049 q 551 1038 540 1049 q 563 1013 563 1028 q 554 988 563 1000 l 424 786 q 402 765 413 772 q 378 757 392 757 z "},"â":{"ha":731,"x_min":89,"x_max":621,"o":"m 378 690 q 560 626 500 690 q 621 433 621 563 l 621 38 q 610 6 621 18 q 579 -6 599 -6 q 549 6 560 -6 q 538 38 538 18 l 538 121 q 453 24 508 58 q 325 -10 397 -10 q 206 17 260 -10 q 120 90 151 43 q 89 194 89 138 q 128 311 89 269 q 257 371 167 353 q 508 389 347 389 l 538 389 l 538 440 q 500 574 538 532 q 382 617 463 617 q 186 563 279 617 q 165 548 182 560 q 135 536 147 536 q 112 547 121 536 q 103 572 103 557 q 151 632 103 603 q 260 675 200 660 q 378 690 319 690 m 332 64 q 480 125 422 64 q 538 281 538 186 l 538 326 l 511 326 q 307 315 378 326 q 207 277 236 304 q 178 199 178 250 q 222 102 178 140 q 332 64 267 64 m 261 778 q 229 757 249 757 q 203 767 214 757 q 193 793 193 778 q 201 818 193 806 l 332 1019 q 353 1041 343 1033 q 378 1049 364 1049 q 403 1042 393 1049 q 424 1019 414 1035 l 554 818 q 563 793 563 806 q 552 767 563 778 q 526 757 542 757 q 494 778 507 757 l 378 971 l 261 778 z "},"ấ":{"ha":731,"x_min":89,"x_max":704,"o":"m 378 690 q 560 626 500 690 q 621 433 621 563 l 621 38 q 610 6 621 18 q 579 -6 599 -6 q 549 6 560 -6 q 538 38 538 18 l 538 121 q 453 24 508 58 q 325 -10 397 -10 q 206 17 260 -10 q 120 90 151 43 q 89 194 89 138 q 128 311 89 269 q 257 371 167 353 q 508 389 347 389 l 538 389 l 538 440 q 500 574 538 532 q 382 617 463 617 q 186 563 279 617 q 165 548 182 560 q 135 536 147 536 q 112 547 121 536 q 103 572 103 557 q 151 632 103 603 q 260 675 200 660 q 378 690 319 690 m 332 64 q 480 125 422 64 q 538 281 538 186 l 538 326 l 511 326 q 307 315 378 326 q 207 277 236 304 q 178 199 178 250 q 222 102 178 140 q 332 64 267 64 m 544 907 q 528 900 535 900 q 510 908 517 900 q 503 925 503 915 q 508 942 503 935 l 621 1088 q 663 1111 639 1111 q 692 1099 679 1111 q 704 1071 704 1088 q 681 1028 704 1047 l 544 907 m 254 771 q 228 758 242 758 q 202 769 213 758 q 192 794 192 781 q 206 824 192 810 l 333 958 q 378 979 353 979 q 422 958 401 979 l 550 824 q 564 794 564 810 q 553 769 564 781 q 528 758 542 758 q 501 771 514 758 l 378 911 l 254 771 z "},"ậ":{"ha":731,"x_min":89,"x_max":621,"o":"m 378 690 q 560 626 500 690 q 621 433 621 563 l 621 38 q 610 6 621 18 q 579 -6 599 -6 q 549 6 560 -6 q 538 38 538 18 l 538 121 q 453 24 508 58 q 325 -10 397 -10 q 206 17 260 -10 q 120 90 151 43 q 89 194 89 138 q 128 311 89 269 q 257 371 167 353 q 508 389 347 389 l 538 389 l 538 440 q 500 574 538 532 q 382 617 463 617 q 186 563 279 617 q 165 548 182 560 q 135 536 147 536 q 112 547 121 536 q 103 572 103 557 q 151 632 103 603 q 260 675 200 660 q 378 690 319 690 m 332 64 q 480 125 422 64 q 538 281 538 186 l 538 326 l 511 326 q 307 315 378 326 q 207 277 236 304 q 178 199 178 250 q 222 102 178 140 q 332 64 267 64 m 374 -254 q 330 -237 347 -254 q 313 -193 313 -221 q 330 -150 313 -167 q 374 -133 347 -133 q 417 -150 400 -133 q 435 -193 435 -167 q 417 -237 435 -221 q 374 -254 400 -254 m 261 778 q 229 757 249 757 q 203 767 214 757 q 193 793 193 778 q 201 818 193 806 l 332 1019 q 353 1041 343 1033 q 378 1049 364 1049 q 403 1042 393 1049 q 424 1019 414 1035 l 554 818 q 563 793 563 806 q 552 767 563 778 q 526 757 542 757 q 494 778 507 757 l 378 971 l 261 778 z "},"ầ":{"ha":731,"x_min":89,"x_max":621,"o":"m 378 690 q 560 626 500 690 q 621 433 621 563 l 621 38 q 610 6 621 18 q 579 -6 599 -6 q 549 6 560 -6 q 538 38 538 18 l 538 121 q 453 24 508 58 q 325 -10 397 -10 q 206 17 260 -10 q 120 90 151 43 q 89 194 89 138 q 128 311 89 269 q 257 371 167 353 q 508 389 347 389 l 538 389 l 538 440 q 500 574 538 532 q 382 617 463 617 q 186 563 279 617 q 165 548 182 560 q 135 536 147 536 q 112 547 121 536 q 103 572 103 557 q 151 632 103 603 q 260 675 200 660 q 378 690 319 690 m 332 64 q 480 125 422 64 q 538 281 538 186 l 538 326 l 511 326 q 307 315 378 326 q 207 277 236 304 q 178 199 178 250 q 222 102 178 140 q 332 64 267 64 m 456 1036 q 442 1074 442 1056 q 455 1103 442 1092 q 485 1115 468 1115 q 528 1083 515 1115 l 593 938 l 596 926 q 588 908 596 915 q 569 900 581 900 q 549 911 557 900 l 456 1036 m 254 771 q 228 758 242 758 q 202 769 213 758 q 192 794 192 781 q 206 824 192 810 l 333 958 q 378 979 353 979 q 422 958 401 979 l 550 824 q 564 794 564 810 q 553 769 564 781 q 528 758 542 758 q 501 771 514 758 l 378 911 l 254 771 z "},"ẩ":{"ha":731,"x_min":89,"x_max":663,"o":"m 378 690 q 560 626 500 690 q 621 433 621 563 l 621 38 q 610 6 621 18 q 579 -6 599 -6 q 549 6 560 -6 q 538 38 538 18 l 538 121 q 453 24 508 58 q 325 -10 397 -10 q 206 17 260 -10 q 120 90 151 43 q 89 194 89 138 q 128 311 89 269 q 257 371 167 353 q 508 389 347 389 l 538 389 l 538 440 q 500 574 538 532 q 382 617 463 617 q 186 563 279 617 q 165 548 182 560 q 135 536 147 536 q 112 547 121 536 q 103 572 103 557 q 151 632 103 603 q 260 675 200 660 q 378 690 319 690 m 332 64 q 480 125 422 64 q 538 281 538 186 l 538 326 l 511 326 q 307 315 378 326 q 207 277 236 304 q 178 199 178 250 q 222 102 178 140 q 332 64 267 64 m 554 924 q 544 906 553 913 q 525 900 536 900 q 503 909 513 900 q 494 933 494 918 q 508 966 494 954 q 550 992 522 978 q 577 1008 568 1001 q 586 1022 586 1014 q 569 1042 586 1035 q 525 1049 553 1049 q 453 1038 497 1049 q 440 1036 449 1036 q 419 1044 428 1036 q 411 1063 411 1051 q 435 1094 411 1083 q 526 1111 476 1111 q 626 1088 589 1111 q 663 1026 663 1064 q 647 985 663 999 q 597 957 631 972 q 567 942 578 949 q 554 924 556 935 m 254 771 q 228 758 242 758 q 202 769 213 758 q 192 794 192 781 q 206 824 192 810 l 333 958 q 378 979 353 979 q 422 958 401 979 l 550 824 q 564 794 564 810 q 553 769 564 781 q 528 758 542 758 q 501 771 514 758 l 378 911 l 254 771 z "},"ẫ":{"ha":731,"x_min":89,"x_max":621,"o":"m 378 690 q 560 626 500 690 q 621 433 621 563 l 621 38 q 610 6 621 18 q 579 -6 599 -6 q 549 6 560 -6 q 538 38 538 18 l 538 121 q 453 24 508 58 q 325 -10 397 -10 q 206 17 260 -10 q 120 90 151 43 q 89 194 89 138 q 128 311 89 269 q 257 371 167 353 q 508 389 347 389 l 538 389 l 538 440 q 500 574 538 532 q 382 617 463 617 q 186 563 279 617 q 165 548 182 560 q 135 536 147 536 q 112 547 121 536 q 103 572 103 557 q 151 632 103 603 q 260 675 200 660 q 378 690 319 690 m 332 64 q 480 125 422 64 q 538 281 538 186 l 538 326 l 511 326 q 307 315 378 326 q 207 277 236 304 q 178 199 178 250 q 222 102 178 140 q 332 64 267 64 m 474 996 q 426 1004 450 996 q 364 1028 401 1013 q 319 1045 342 1038 q 282 1053 297 1053 q 243 1043 257 1053 q 217 1017 229 1033 q 203 1002 210 1007 q 190 997 197 997 q 172 1006 179 997 q 164 1026 164 1014 q 197 1092 164 1061 q 282 1124 229 1124 q 331 1115 306 1124 q 393 1092 356 1107 q 437 1074 415 1082 q 474 1065 458 1065 q 514 1076 500 1065 q 539 1103 528 1086 q 552 1117 546 1113 q 565 1122 558 1122 q 584 1113 576 1122 q 592 1093 592 1104 q 559 1027 592 1058 q 474 996 526 996 m 254 771 q 228 758 242 758 q 202 769 213 758 q 192 794 192 781 q 206 824 192 810 l 333 958 q 378 979 353 979 q 422 958 401 979 l 550 824 q 564 794 564 810 q 553 769 564 781 q 528 758 542 758 q 501 771 514 758 l 378 911 l 254 771 z "},"ȁ":{"ha":731,"x_min":89,"x_max":621,"o":"m 378 690 q 560 626 500 690 q 621 433 621 563 l 621 38 q 610 6 621 18 q 579 -6 599 -6 q 549 6 560 -6 q 538 38 538 18 l 538 121 q 453 24 508 58 q 325 -10 397 -10 q 206 17 260 -10 q 120 90 151 43 q 89 194 89 138 q 128 311 89 269 q 257 371 167 353 q 508 389 347 389 l 538 389 l 538 440 q 500 574 538 532 q 382 617 463 617 q 186 563 279 617 q 165 548 182 560 q 135 536 147 536 q 112 547 121 536 q 103 572 103 557 q 151 632 103 603 q 260 675 200 660 q 378 690 319 690 m 332 64 q 480 125 422 64 q 538 281 538 186 l 538 326 l 511 326 q 307 315 378 326 q 207 277 236 304 q 178 199 178 250 q 222 102 178 140 q 332 64 267 64 m 171 985 q 164 1014 164 999 q 175 1041 164 1031 q 201 1051 186 1051 q 228 1042 215 1051 q 246 1013 240 1032 l 317 785 q 318 775 318 782 q 313 761 318 767 q 299 756 307 756 q 278 769 283 756 l 171 985 m 332 985 q 325 1014 325 999 q 336 1041 325 1031 q 363 1051 347 1051 q 389 1042 376 1051 q 407 1013 401 1032 l 478 785 q 479 776 479 782 q 473 761 479 767 q 458 756 467 756 q 439 769 444 756 l 332 985 z "},"ä":{"ha":731,"x_min":89,"x_max":621,"o":"m 378 690 q 560 626 500 690 q 621 433 621 563 l 621 38 q 610 6 621 18 q 579 -6 599 -6 q 549 6 560 -6 q 538 38 538 18 l 538 121 q 453 24 508 58 q 325 -10 397 -10 q 206 17 260 -10 q 120 90 151 43 q 89 194 89 138 q 128 311 89 269 q 257 371 167 353 q 508 389 347 389 l 538 389 l 538 440 q 500 574 538 532 q 382 617 463 617 q 186 563 279 617 q 165 548 182 560 q 135 536 147 536 q 112 547 121 536 q 103 572 103 557 q 151 632 103 603 q 260 675 200 660 q 378 690 319 690 m 332 64 q 480 125 422 64 q 538 281 538 186 l 538 326 l 511 326 q 307 315 378 326 q 207 277 236 304 q 178 199 178 250 q 222 102 178 140 q 332 64 267 64 m 263 847 q 221 863 238 847 q 204 904 204 879 q 221 947 204 931 q 263 963 238 963 q 305 946 288 963 q 322 904 322 929 q 305 863 322 879 q 263 847 288 847 m 493 847 q 451 863 468 847 q 433 904 433 879 q 451 946 433 929 q 493 963 468 963 q 535 946 518 963 q 551 904 551 929 q 535 863 551 879 q 493 847 518 847 z "},"ȧ":{"ha":731,"x_min":89,"x_max":621,"o":"m 378 690 q 560 626 500 690 q 621 433 621 563 l 621 38 q 610 6 621 18 q 579 -6 599 -6 q 549 6 560 -6 q 538 38 538 18 l 538 121 q 453 24 508 58 q 325 -10 397 -10 q 206 17 260 -10 q 120 90 151 43 q 89 194 89 138 q 128 311 89 269 q 257 371 167 353 q 508 389 347 389 l 538 389 l 538 440 q 500 574 538 532 q 382 617 463 617 q 186 563 279 617 q 165 548 182 560 q 135 536 147 536 q 112 547 121 536 q 103 572 103 557 q 151 632 103 603 q 260 675 200 660 q 378 690 319 690 m 332 64 q 480 125 422 64 q 538 281 538 186 l 538 326 l 511 326 q 307 315 378 326 q 207 277 236 304 q 178 199 178 250 q 222 102 178 140 q 332 64 267 64 m 378 844 q 333 861 350 844 q 315 904 315 878 q 333 949 315 932 q 378 965 350 965 q 423 949 406 965 q 440 904 440 932 q 423 861 440 878 q 378 844 406 844 z "},"ạ":{"ha":731,"x_min":89,"x_max":621,"o":"m 378 690 q 560 626 500 690 q 621 433 621 563 l 621 38 q 610 6 621 18 q 579 -6 599 -6 q 549 6 560 -6 q 538 38 538 18 l 538 121 q 453 24 508 58 q 325 -10 397 -10 q 206 17 260 -10 q 120 90 151 43 q 89 194 89 138 q 128 311 89 269 q 257 371 167 353 q 508 389 347 389 l 538 389 l 538 440 q 500 574 538 532 q 382 617 463 617 q 186 563 279 617 q 165 548 182 560 q 135 536 147 536 q 112 547 121 536 q 103 572 103 557 q 151 632 103 603 q 260 675 200 660 q 378 690 319 690 m 332 64 q 480 125 422 64 q 538 281 538 186 l 538 326 l 511 326 q 307 315 378 326 q 207 277 236 304 q 178 199 178 250 q 222 102 178 140 q 332 64 267 64 m 374 -254 q 330 -237 347 -254 q 313 -193 313 -221 q 330 -150 313 -167 q 374 -133 347 -133 q 417 -150 400 -133 q 435 -193 435 -167 q 417 -237 435 -221 q 374 -254 400 -254 z "},"à":{"ha":731,"x_min":89,"x_max":621,"o":"m 378 690 q 560 626 500 690 q 621 433 621 563 l 621 38 q 610 6 621 18 q 579 -6 599 -6 q 549 6 560 -6 q 538 38 538 18 l 538 121 q 453 24 508 58 q 325 -10 397 -10 q 206 17 260 -10 q 120 90 151 43 q 89 194 89 138 q 128 311 89 269 q 257 371 167 353 q 508 389 347 389 l 538 389 l 538 440 q 500 574 538 532 q 382 617 463 617 q 186 563 279 617 q 165 548 182 560 q 135 536 147 536 q 112 547 121 536 q 103 572 103 557 q 151 632 103 603 q 260 675 200 660 q 378 690 319 690 m 332 64 q 480 125 422 64 q 538 281 538 186 l 538 326 l 511 326 q 307 315 378 326 q 207 277 236 304 q 178 199 178 250 q 222 102 178 140 q 332 64 267 64 m 154 963 q 131 1008 131 985 q 143 1038 131 1026 q 174 1050 156 1050 q 222 1022 200 1050 l 396 799 q 403 781 403 789 q 395 764 403 771 q 378 757 388 757 q 358 765 367 757 l 154 963 z "},"ả":{"ha":731,"x_min":89,"x_max":621,"o":"m 378 690 q 560 626 500 690 q 621 433 621 563 l 621 38 q 610 6 621 18 q 579 -6 599 -6 q 549 6 560 -6 q 538 38 538 18 l 538 121 q 453 24 508 58 q 325 -10 397 -10 q 206 17 260 -10 q 120 90 151 43 q 89 194 89 138 q 128 311 89 269 q 257 371 167 353 q 508 389 347 389 l 538 389 l 538 440 q 500 574 538 532 q 382 617 463 617 q 186 563 279 617 q 165 548 182 560 q 135 536 147 536 q 112 547 121 536 q 103 572 103 557 q 151 632 103 603 q 260 675 200 660 q 378 690 319 690 m 332 64 q 480 125 422 64 q 538 281 538 186 l 538 326 l 511 326 q 307 315 378 326 q 207 277 236 304 q 178 199 178 250 q 222 102 178 140 q 332 64 267 64 m 413 793 q 402 768 411 778 q 381 758 393 758 q 357 769 367 758 q 347 801 347 781 q 361 851 347 831 q 401 896 375 871 q 430 926 421 914 q 439 951 439 939 q 423 977 439 968 q 379 986 407 986 q 308 974 344 986 q 294 971 300 971 q 274 979 282 971 q 267 999 267 988 q 273 1016 267 1007 q 290 1031 279 1025 q 382 1049 331 1049 q 482 1023 446 1049 q 518 957 518 997 q 504 907 518 926 q 463 865 490 888 q 426 829 438 843 q 413 793 414 815 z "},"ȃ":{"ha":731,"x_min":89,"x_max":621,"o":"m 378 690 q 560 626 500 690 q 621 433 621 563 l 621 38 q 610 6 621 18 q 579 -6 599 -6 q 549 6 560 -6 q 538 38 538 18 l 538 121 q 453 24 508 58 q 325 -10 397 -10 q 206 17 260 -10 q 120 90 151 43 q 89 194 89 138 q 128 311 89 269 q 257 371 167 353 q 508 389 347 389 l 538 389 l 538 440 q 500 574 538 532 q 382 617 463 617 q 186 563 279 617 q 165 548 182 560 q 135 536 147 536 q 112 547 121 536 q 103 572 103 557 q 151 632 103 603 q 260 675 200 660 q 378 690 319 690 m 332 64 q 480 125 422 64 q 538 281 538 186 l 538 326 l 511 326 q 307 315 378 326 q 207 277 236 304 q 178 199 178 250 q 222 102 178 140 q 332 64 267 64 m 239 838 q 200 810 225 810 q 176 819 186 810 q 165 846 165 829 q 169 865 165 856 q 252 966 196 931 q 378 1001 308 1001 q 502 967 447 1001 q 586 865 557 932 q 590 844 590 856 q 580 819 590 829 q 556 810 569 810 q 517 838 531 810 q 378 932 471 932 q 239 838 285 932 z "},"ā":{"ha":731,"x_min":89,"x_max":621,"o":"m 378 690 q 560 626 500 690 q 621 433 621 563 l 621 38 q 610 6 621 18 q 579 -6 599 -6 q 549 6 560 -6 q 538 38 538 18 l 538 121 q 453 24 508 58 q 325 -10 397 -10 q 206 17 260 -10 q 120 90 151 43 q 89 194 89 138 q 128 311 89 269 q 257 371 167 353 q 508 389 347 389 l 538 389 l 538 440 q 500 574 538 532 q 382 617 463 617 q 186 563 279 617 q 165 548 182 560 q 135 536 147 536 q 112 547 121 536 q 103 572 103 557 q 151 632 103 603 q 260 675 200 660 q 378 690 319 690 m 332 64 q 480 125 422 64 q 538 281 538 186 l 538 326 l 511 326 q 307 315 378 326 q 207 277 236 304 q 178 199 178 250 q 222 102 178 140 q 332 64 267 64 m 210 869 q 177 878 189 869 q 165 904 165 888 q 177 931 165 922 q 210 940 189 940 l 546 940 q 578 931 567 940 q 590 904 590 922 q 578 878 590 888 q 546 869 567 869 l 210 869 z "},"ą":{"ha":731,"x_min":89,"x_max":690,"o":"m 647 -185 q 664 -181 656 -181 q 683 -189 676 -181 q 690 -210 690 -197 q 671 -242 690 -231 q 572 -265 619 -265 q 458 -226 503 -265 q 414 -122 414 -186 q 447 -25 414 -67 q 538 39 479 17 l 538 121 q 453 24 508 58 q 325 -10 397 -10 q 206 17 260 -10 q 120 90 151 43 q 89 194 89 138 q 128 311 89 269 q 257 371 167 353 q 508 389 347 389 l 538 389 l 538 440 q 500 574 538 532 q 382 617 463 617 q 186 563 279 617 q 163 547 179 558 q 135 536 146 536 q 112 547 121 536 q 103 572 103 557 q 151 632 103 603 q 260 675 200 660 q 378 690 319 690 q 560 626 500 690 q 621 433 621 563 l 621 38 q 613 11 621 22 q 592 -3 606 0 q 515 -41 542 -12 q 489 -112 489 -69 q 513 -178 489 -154 q 581 -203 538 -203 q 647 -185 611 -203 m 332 64 q 480 125 422 64 q 538 281 538 186 l 538 326 l 511 326 q 307 315 378 326 q 207 277 236 304 q 178 199 178 250 q 222 102 178 140 q 332 64 267 64 z "},"å":{"ha":731,"x_min":89,"x_max":621,"o":"m 378 690 q 560 626 500 690 q 621 433 621 563 l 621 38 q 610 6 621 18 q 579 -6 599 -6 q 549 6 560 -6 q 538 38 538 18 l 538 121 q 453 24 508 58 q 325 -10 397 -10 q 206 17 260 -10 q 120 90 151 43 q 89 194 89 138 q 128 311 89 269 q 257 371 167 353 q 508 389 347 389 l 538 389 l 538 440 q 500 574 538 532 q 382 617 463 617 q 186 563 279 617 q 165 548 182 560 q 135 536 147 536 q 112 547 121 536 q 103 572 103 557 q 151 632 103 603 q 260 675 200 660 q 378 690 319 690 m 332 64 q 480 125 422 64 q 538 281 538 186 l 538 326 l 511 326 q 307 315 378 326 q 207 277 236 304 q 178 199 178 250 q 222 102 178 140 q 332 64 267 64 m 378 771 q 281 810 321 771 q 240 904 240 849 q 281 1000 240 961 q 378 1039 321 1039 q 475 1000 435 1039 q 515 904 515 961 q 475 810 515 849 q 378 771 435 771 m 378 833 q 427 854 407 833 q 447 904 447 875 q 428 956 447 935 q 378 976 408 976 q 328 956 347 976 q 308 904 308 935 q 328 854 308 875 q 378 833 349 833 z "},"ǻ":{"ha":731,"x_min":89,"x_max":674,"o":"m 583 1165 q 624 1186 600 1186 q 658 1172 643 1186 q 674 1138 674 1157 q 649 1094 674 1111 l 493 978 q 515 904 515 944 q 475 810 515 849 q 378 771 435 771 q 281 810 321 771 q 242 904 242 849 q 281 1000 242 961 q 378 1039 321 1039 q 456 1015 421 1039 l 583 1165 m 378 833 q 427 854 407 833 q 447 904 447 875 q 428 956 447 935 q 378 976 408 976 q 329 956 349 976 q 310 904 310 935 q 329 854 310 875 q 378 833 349 833 m 378 690 q 560 626 500 690 q 621 433 621 563 l 621 38 q 610 6 621 18 q 579 -6 599 -6 q 549 6 560 -6 q 538 38 538 18 l 538 121 q 453 24 508 58 q 325 -10 397 -10 q 206 17 260 -10 q 120 90 151 43 q 89 194 89 138 q 128 311 89 269 q 257 371 167 353 q 508 389 347 389 l 538 389 l 538 440 q 500 574 538 532 q 382 617 463 617 q 186 563 279 617 q 165 548 182 560 q 135 536 147 536 q 112 547 121 536 q 103 572 103 557 q 151 632 103 603 q 260 675 200 660 q 378 690 319 690 m 332 64 q 480 125 422 64 q 538 281 538 186 l 538 326 l 511 326 q 307 315 378 326 q 207 277 236 304 q 178 199 178 250 q 222 102 178 140 q 332 64 267 64 z "},"ã":{"ha":731,"x_min":89,"x_max":621,"o":"m 378 690 q 560 626 500 690 q 621 433 621 563 l 621 38 q 610 6 621 18 q 579 -6 599 -6 q 549 6 560 -6 q 538 38 538 18 l 538 121 q 453 24 508 58 q 325 -10 397 -10 q 206 17 260 -10 q 120 90 151 43 q 89 194 89 138 q 128 311 89 269 q 257 371 167 353 q 508 389 347 389 l 538 389 l 538 440 q 500 574 538 532 q 382 617 463 617 q 186 563 279 617 q 165 548 182 560 q 135 536 147 536 q 112 547 121 536 q 103 572 103 557 q 151 632 103 603 q 260 675 200 660 q 378 690 319 690 m 332 64 q 480 125 422 64 q 538 281 538 186 l 538 326 l 511 326 q 307 315 378 326 q 207 277 236 304 q 178 199 178 250 q 222 102 178 140 q 332 64 267 64 m 474 824 q 423 837 449 824 q 364 874 397 850 q 313 904 329 896 q 282 913 297 913 q 243 899 257 913 q 218 863 229 886 q 205 840 211 847 q 190 833 199 833 q 172 842 179 833 q 164 863 164 850 q 178 916 164 886 q 220 967 193 946 q 282 988 247 988 q 331 975 307 988 q 392 938 356 963 q 440 907 422 917 q 474 897 458 897 q 513 911 499 897 q 538 949 526 925 q 551 971 546 964 q 565 978 557 978 q 584 969 576 978 q 592 949 592 961 q 577 895 592 925 q 535 844 563 865 q 474 824 508 824 z "},"æ":{"ha":1190,"x_min":89,"x_max":1126,"o":"m 1090 144 q 1112 134 1103 144 q 1121 110 1121 124 q 1072 50 1121 78 q 972 6 1025 21 q 867 -10 918 -10 q 690 38 763 -10 q 582 174 618 85 q 492 39 557 88 q 333 -10 426 -10 q 208 17 264 -10 q 121 90 153 43 q 89 194 89 136 q 128 311 89 269 q 259 371 168 353 q 513 389 350 389 l 543 389 l 543 436 q 506 574 543 531 q 386 617 468 617 q 267 600 314 617 q 174 556 221 583 q 150 542 161 547 q 132 536 139 536 q 111 547 119 536 q 103 572 103 557 q 151 632 103 604 q 381 690 254 690 q 606 557 558 690 q 709 656 646 621 q 850 690 772 690 q 1051 606 976 690 q 1126 375 1126 521 q 1115 338 1126 350 q 1079 326 1104 326 l 628 326 q 693 132 632 199 q 867 65 754 65 q 965 81 924 65 q 1047 124 1006 97 q 1090 144 1078 144 m 850 621 q 699 559 757 621 q 631 389 642 497 l 1049 389 q 994 560 1046 500 q 850 621 942 621 m 339 64 q 485 126 428 64 q 543 286 543 189 l 543 326 l 517 326 q 309 315 381 326 q 208 277 238 304 q 178 199 178 250 q 224 101 178 139 q 339 64 269 64 z "},"ǽ":{"ha":1190,"x_min":89,"x_max":1126,"o":"m 1090 144 q 1112 134 1103 144 q 1121 110 1121 124 q 1072 50 1121 78 q 972 6 1025 21 q 867 -10 918 -10 q 690 38 763 -10 q 582 174 618 85 q 492 39 557 88 q 333 -10 426 -10 q 208 17 264 -10 q 121 90 153 43 q 89 194 89 136 q 128 311 89 269 q 259 371 168 353 q 513 389 350 389 l 543 389 l 543 436 q 506 574 543 531 q 386 617 468 617 q 267 600 314 617 q 174 556 221 583 q 150 542 161 547 q 132 536 139 536 q 111 547 119 536 q 103 572 103 557 q 151 632 103 604 q 381 690 254 690 q 606 557 558 690 q 709 656 646 621 q 850 690 772 690 q 1051 606 976 690 q 1126 375 1126 521 q 1115 338 1126 350 q 1079 326 1104 326 l 628 326 q 693 132 632 199 q 867 65 754 65 q 965 81 924 65 q 1047 124 1006 97 q 1090 144 1078 144 m 850 621 q 699 559 757 621 q 631 389 642 497 l 1049 389 q 994 560 1046 500 q 850 621 942 621 m 339 64 q 485 126 428 64 q 543 286 543 189 l 543 326 l 517 326 q 309 315 381 326 q 208 277 238 304 q 178 199 178 250 q 224 101 178 139 q 339 64 269 64 m 606 765 q 586 757 597 757 q 569 764 576 757 q 561 781 561 771 q 568 799 561 789 l 742 1022 q 790 1050 763 1050 q 821 1038 808 1050 q 833 1008 833 1026 q 810 963 833 985 l 606 765 z "},"b":{"ha":796,"x_min":111,"x_max":728,"o":"m 428 690 q 585 647 517 690 q 690 526 653 604 q 728 343 728 447 q 690 158 728 238 q 585 34 653 78 q 428 -10 517 -10 q 286 26 346 -10 q 196 129 226 61 l 196 38 q 185 6 196 18 q 154 -6 174 -6 q 123 6 135 -6 q 111 38 111 18 l 111 943 q 123 974 111 963 q 154 986 135 986 q 185 974 174 986 q 196 943 196 963 l 196 551 q 286 655 226 619 q 428 690 346 690 m 417 65 q 581 139 522 65 q 640 343 640 213 q 581 545 640 474 q 415 617 522 617 q 253 544 310 617 q 196 340 196 472 q 253 137 196 208 q 417 65 311 65 z "},"c":{"ha":660,"x_min":68,"x_max":625,"o":"m 381 -10 q 217 33 288 -10 q 107 156 146 76 q 68 338 68 235 q 108 522 68 442 q 219 646 147 601 q 383 690 290 690 q 486 676 436 690 q 575 635 536 663 q 610 602 600 617 q 621 571 621 588 q 613 546 621 556 q 592 536 604 536 q 547 560 578 536 q 475 601 511 586 q 388 617 439 617 q 218 542 279 617 q 157 338 157 468 q 217 137 157 208 q 386 65 278 65 q 474 81 439 65 q 551 122 510 96 q 576 138 564 131 q 594 144 588 144 q 617 135 608 144 q 625 111 625 125 q 615 82 625 94 q 578 50 606 69 q 487 6 540 22 q 381 -10 433 -10 z "},"ć":{"ha":660,"x_min":68,"x_max":631,"o":"m 381 -10 q 217 33 288 -10 q 107 156 146 76 q 68 338 68 235 q 108 522 68 442 q 219 646 147 601 q 383 690 290 690 q 486 676 436 690 q 575 635 536 663 q 610 602 600 617 q 621 571 621 588 q 613 546 621 556 q 592 536 604 536 q 547 560 578 536 q 475 601 511 586 q 388 617 439 617 q 218 542 279 617 q 157 338 157 468 q 217 137 157 208 q 386 65 278 65 q 474 81 439 65 q 551 122 510 96 q 576 138 564 131 q 594 144 588 144 q 617 135 608 144 q 625 111 625 125 q 615 82 625 94 q 578 50 606 69 q 487 6 540 22 q 381 -10 433 -10 m 403 765 q 383 757 394 757 q 366 764 374 757 q 358 781 358 771 q 365 799 358 789 l 539 1022 q 588 1050 560 1050 q 618 1038 606 1050 q 631 1008 631 1026 q 607 963 631 985 l 403 765 z "},"č":{"ha":660,"x_min":68,"x_max":625,"o":"m 381 -10 q 217 33 288 -10 q 107 156 146 76 q 68 338 68 235 q 108 522 68 442 q 219 646 147 601 q 383 690 290 690 q 486 676 436 690 q 575 635 536 663 q 610 602 600 617 q 621 571 621 588 q 613 546 621 556 q 592 536 604 536 q 547 560 578 536 q 475 601 511 586 q 388 617 439 617 q 218 542 279 617 q 157 338 157 468 q 217 137 157 208 q 386 65 278 65 q 474 81 439 65 q 551 122 510 96 q 576 138 564 131 q 594 144 588 144 q 617 135 608 144 q 625 111 625 125 q 615 82 625 94 q 578 50 606 69 q 487 6 540 22 q 381 -10 433 -10 m 383 757 q 359 765 369 757 q 338 786 349 772 l 207 988 q 199 1013 199 1000 q 210 1038 199 1028 q 235 1049 221 1049 q 268 1028 256 1049 l 383 835 l 499 1028 q 531 1049 511 1049 q 557 1038 546 1049 q 568 1013 568 1028 q 560 988 568 1000 l 429 786 q 408 765 418 772 q 383 757 397 757 z "},"ç":{"ha":660,"x_min":68,"x_max":625,"o":"m 594 144 q 617 135 608 144 q 625 111 625 125 q 615 82 625 94 q 578 50 606 69 q 497 9 544 25 q 401 -10 450 -7 l 396 -62 q 433 -57 418 -57 q 506 -81 475 -57 q 536 -153 536 -106 q 494 -234 536 -203 q 379 -265 453 -265 q 285 -250 325 -265 q 263 -219 263 -240 q 271 -201 263 -208 q 292 -193 279 -193 q 304 -194 300 -193 q 382 -206 343 -206 q 444 -192 424 -206 q 465 -153 465 -178 q 453 -123 465 -133 q 421 -112 442 -112 q 380 -119 404 -112 q 349 -126 356 -126 q 330 -119 339 -126 q 322 -100 321 -111 l 332 -7 q 140 103 211 10 q 68 338 68 196 q 108 522 68 442 q 219 646 147 601 q 383 690 290 690 q 486 676 436 690 q 575 635 536 663 q 610 602 600 617 q 621 571 621 588 q 613 546 621 556 q 592 536 604 536 q 547 560 578 536 q 475 601 511 586 q 388 617 439 617 q 218 542 279 617 q 157 338 157 468 q 217 137 157 208 q 386 65 278 65 q 474 81 439 65 q 551 122 510 96 q 576 138 564 131 q 594 144 588 144 z "},"ḉ":{"ha":660,"x_min":68,"x_max":631,"o":"m 403 765 q 383 757 394 757 q 366 764 374 757 q 358 781 358 771 q 365 799 358 789 l 539 1022 q 588 1050 560 1050 q 618 1038 606 1050 q 631 1008 631 1026 q 607 963 631 985 l 403 765 m 594 144 q 617 135 608 144 q 625 111 625 125 q 615 82 625 94 q 578 50 606 69 q 497 9 544 25 q 401 -10 450 -7 l 396 -62 q 433 -57 418 -57 q 506 -81 475 -57 q 536 -153 536 -106 q 494 -234 536 -203 q 379 -265 453 -265 q 285 -250 325 -265 q 263 -219 263 -240 q 271 -201 263 -208 q 292 -193 279 -193 q 304 -194 300 -193 q 382 -206 343 -206 q 444 -192 424 -206 q 465 -153 465 -178 q 453 -123 465 -133 q 421 -112 442 -112 q 380 -119 404 -112 q 349 -126 356 -126 q 330 -119 339 -126 q 322 -100 321 -111 l 332 -7 q 140 103 211 10 q 68 338 68 196 q 108 522 68 442 q 219 646 147 601 q 383 690 290 690 q 486 676 436 690 q 575 635 536 663 q 610 602 600 617 q 621 571 621 588 q 613 546 621 556 q 592 536 604 536 q 547 560 578 536 q 475 601 511 586 q 388 617 439 617 q 218 542 279 617 q 157 338 157 468 q 217 137 157 208 q 386 65 278 65 q 474 81 439 65 q 551 122 510 96 q 576 138 564 131 q 594 144 588 144 z "}}}
